<svg width="104" height="31" viewBox="0 0 104 31" fill="none" xmlns="http://www.w3.org/2000/svg"><path d="M9.888 22.384c5.112 0 8.928-3.768 8.928-8.784 0-4.992-3.816-8.76-8.928-8.76C4.752 4.84.912 8.632.912 13.6c0 4.992 3.84 8.784 8.976 8.784zm0-3.432c-3 0-5.28-2.328-5.28-5.352 0-3.024 2.28-5.328 5.28-5.328 3 0 5.232 2.28 5.232 5.328 0 3.048-2.232 5.352-5.232 5.352zm19.806 3.432c5.112 0 8.928-3.768 8.928-8.784 0-4.992-3.816-8.76-8.928-8.76-5.136 0-8.976 3.792-8.976 8.76 0 4.992 3.84 8.784 8.976 8.784zm0-3.432c-3 0-5.28-2.328-5.28-5.352 0-3.024 2.28-5.328 5.28-5.328 3 0 5.232 2.28 5.232 5.328 0 3.048-2.232 5.352-5.232 5.352zM61.936 22L59.344 5.2h-3.648l-4.56 10.32-4.56-10.32h-3.624L40.312 22h3.696l1.656-10.944 5.016 10.92h.888l5.016-10.92L58.24 22h3.696z" fill="#003"/><path d="M83.24 9.04l-.36 1.224a6.413 6.413 0 0 0-4.272-1.584c-3.888 0-6.792 2.928-6.792 6.84s2.904 6.864 6.792 6.864c1.656 0 3.096-.576 4.2-1.56L83.12 22h2.736V9.04H83.24zm-4.344 10.032c-2.04 0-3.528-1.536-3.528-3.552 0-2.04 1.488-3.552 3.528-3.552s3.528 1.512 3.528 3.552-1.488 3.552-3.528 3.552zM99.762 9.04l-.576 1.296A6.298 6.298 0 0 0 94.89 8.68c-3.624 0-6.456 2.88-6.456 6.504 0 3.648 2.832 6.504 6.456 6.504a6.433 6.433 0 0 0 3.696-1.152v.48c0 1.896-1.464 3.048-3.24 3.048-1.296 0-2.664-.6-3.072-1.776h-3.48c.6 2.952 3.096 4.752 6.6 4.752 4.104 0 6.624-2.472 6.624-6.528V9.064l-2.256-.024zm-4.464 9.504c-1.92 0-3.312-1.416-3.312-3.336 0-1.944 1.392-3.36 3.312-3.36s3.312 1.416 3.312 3.36c0 1.92-1.392 3.336-3.312 3.336z" fill="#3C50E0"/><circle cx="67" cy="19" r="3" fill="#003"/></svg>