<svg width="484" height="199" viewBox="0 0 484 199" fill="none" xmlns="http://www.w3.org/2000/svg"><path d="M144.184 128.76v27.36h-18.432V195H95.8v-38.88H.472v-6.336L65.848 3.48h31.68L41.656 128.76h54.72l5.184-53.28h24.192v53.28h18.432zm99.324 69.696c-23.232 0-41.664-8.928-55.296-26.784-13.632-17.856-20.448-42.048-20.448-72.576 0-30.528 6.72-54.624 20.16-72.288C201.556 8.952 220.084.024 243.508.024c23.232 0 41.568 8.928 55.008 26.784 13.632 17.664 20.448 41.76 20.448 72.288s-6.816 54.72-20.448 72.576c-13.632 17.856-31.968 26.784-55.008 26.784zm0-29.376c13.824 0 24.576-6.144 32.256-18.432 7.872-12.288 11.808-29.472 11.808-51.552 0-14.592-1.824-27.072-5.472-37.44-3.456-10.56-8.544-18.528-15.264-23.904-6.528-5.568-14.304-8.352-23.328-8.352-9.216 0-17.184 2.784-23.904 8.352-6.72 5.376-11.808 13.344-15.264 23.904-3.456 10.368-5.184 22.848-5.184 37.44 0 22.08 3.84 39.264 11.52 51.552 7.872 12.288 18.816 18.432 32.832 18.432zm239.891-40.32v27.36h-18.432V195h-29.952v-38.88h-95.328v-6.336L405.063 3.48h31.68l-55.872 125.28h54.72l5.184-53.28h24.192v53.28h18.432z" fill="url(#a)"/><defs><linearGradient id="a" x1="-5" y1="-28" x2="515.262" y2="23.083" gradientUnits="userSpaceOnUse"><stop stop-color="#3C50E0"/><stop offset=".495" stop-color="#FFBCBD"/><stop offset="1" stop-color="#FF5670"/></linearGradient></defs></svg>