<svg width="104" height="31" viewBox="0 0 104 31" fill="none" xmlns="http://www.w3.org/2000/svg">
<path d="M9.888 22.384C15 22.384 18.816 18.616 18.816 13.6C18.816 8.608 15 4.84 9.888 4.84C4.752 4.84 0.912 8.632 0.912 13.6C0.912 18.592 4.752 22.384 9.888 22.384ZM9.888 18.952C6.888 18.952 4.608 16.624 4.608 13.6C4.608 10.576 6.888 8.272 9.888 8.272C12.888 8.272 15.12 10.552 15.12 13.6C15.12 16.648 12.888 18.952 9.888 18.952ZM29.6938 22.384C34.8058 22.384 38.6218 18.616 38.6218 13.6C38.6218 8.608 34.8058 4.84 29.6938 4.84C24.5578 4.84 20.7178 8.632 20.7178 13.6C20.7178 18.592 24.5578 22.384 29.6938 22.384ZM29.6938 18.952C26.6938 18.952 24.4138 16.624 24.4138 13.6C24.4138 10.576 26.6938 8.272 29.6938 8.272C32.6938 8.272 34.9258 10.552 34.9258 13.6C34.9258 16.648 32.6938 18.952 29.6938 18.952ZM61.9356 22L59.3436 5.2H55.6956L51.1356 15.52L46.5756 5.2H42.9516L40.3116 22H44.0076L45.6636 11.056L50.6796 21.976H51.5676L56.5836 11.056L58.2396 22H61.9356Z" fill="#000033"/>
<path d="M83.24 9.04L82.88 10.264C81.752 9.28 80.288 8.68 78.608 8.68C74.72 8.68 71.816 11.608 71.816 15.52C71.816 19.432 74.72 22.384 78.608 22.384C80.264 22.384 81.704 21.808 82.808 20.824L83.12 22H85.856V9.04H83.24ZM78.896 19.072C76.856 19.072 75.368 17.536 75.368 15.52C75.368 13.48 76.856 11.968 78.896 11.968C80.936 11.968 82.424 13.48 82.424 15.52C82.424 17.56 80.936 19.072 78.896 19.072ZM99.7623 9.04L99.1863 10.336C98.0583 9.304 96.5703 8.68 94.8903 8.68C91.2663 8.68 88.4343 11.56 88.4343 15.184C88.4343 18.832 91.2663 21.688 94.8903 21.688C96.2823 21.688 97.5543 21.256 98.5863 20.536V21.016C98.5863 22.912 97.1223 24.064 95.3463 24.064C94.0503 24.064 92.6823 23.464 92.2743 22.288H88.7943C89.3943 25.24 91.8903 27.04 95.3943 27.04C99.4983 27.04 102.018 24.568 102.018 20.512V9.064L99.7623 9.04ZM95.2983 18.544C93.3783 18.544 91.9863 17.128 91.9863 15.208C91.9863 13.264 93.3783 11.848 95.2983 11.848C97.2183 11.848 98.6103 13.264 98.6103 15.208C98.6103 17.128 97.2183 18.544 95.2983 18.544Z" fill="#3C50E0"/>
<circle cx="67" cy="19" r="3" fill="#000033"/>
</svg>
