<svg width="484" height="199" viewBox="0 0 484 199" fill="none" xmlns="http://www.w3.org/2000/svg">
<path d="M144.184 128.76V156.12H125.752V195H95.8V156.12H0.472V149.784L65.848 3.47999H97.528L41.656 128.76H96.376L101.56 75.48H125.752V128.76H144.184ZM243.508 198.456C220.276 198.456 201.844 189.528 188.212 171.672C174.58 153.816 167.764 129.624 167.764 99.096C167.764 68.568 174.484 44.472 187.924 26.808C201.556 8.95199 220.084 0.0239868 243.508 0.0239868C266.74 0.0239868 285.076 8.95199 298.516 26.808C312.148 44.472 318.964 68.568 318.964 99.096C318.964 129.624 312.148 153.816 298.516 171.672C284.884 189.528 266.548 198.456 243.508 198.456ZM243.508 169.08C257.332 169.08 268.084 162.936 275.764 150.648C283.636 138.36 287.572 121.176 287.572 99.096C287.572 84.504 285.748 72.024 282.1 61.656C278.644 51.096 273.556 43.128 266.836 37.752C260.308 32.184 252.532 29.4 243.508 29.4C234.292 29.4 226.324 32.184 219.604 37.752C212.884 43.128 207.796 51.096 204.34 61.656C200.884 72.024 199.156 84.504 199.156 99.096C199.156 121.176 202.996 138.36 210.676 150.648C218.548 162.936 229.492 169.08 243.508 169.08ZM483.399 128.76V156.12H464.967V195H435.015V156.12H339.687V149.784L405.063 3.47999H436.743L380.871 128.76H435.591L440.775 75.48H464.967V128.76H483.399Z" fill="url(#paint0_linear)"/>
<defs>
<linearGradient id="paint0_linear" x1="-5" y1="-28" x2="515.262" y2="23.0834" gradientUnits="userSpaceOnUse">
<stop stop-color="#3C50E0"/>
<stop offset="0.494792" stop-color="#FFBCBD"/>
<stop offset="1" stop-color="#FF5670"/>
</linearGradient>
</defs>
</svg>
