<svg width="48" height="48" viewBox="0 0 48 48" fill="none" xmlns="http://www.w3.org/2000/svg">
<path d="M40.5 43.5H7.5C6.30693 43.4987 5.1631 43.0242 4.31947 42.1805C3.47584 41.3369 3.00131 40.1931 3 39V13.5C3.00131 12.3069 3.47584 11.1631 4.31947 10.3195C5.1631 9.47584 6.30693 9.00131 7.5 9H40.5C41.6931 9.00131 42.8369 9.47584 43.6805 10.3195C44.5242 11.1631 44.9987 12.3069 45 13.5V39C44.9987 40.1931 44.5242 41.3369 43.6805 42.1805C42.8369 43.0242 41.6931 43.4987 40.5 43.5ZM7.5 12C7.10233 12.0005 6.7211 12.1587 6.43991 12.4399C6.15872 12.7211 6.00052 13.1023 6 13.5V39C6.00052 39.3977 6.15872 39.7789 6.43991 40.0601C6.7211 40.3413 7.10233 40.4995 7.5 40.5H40.5C40.8977 40.4995 41.2789 40.3413 41.5601 40.0601C41.8413 39.7789 41.9995 39.3977 42 39V13.5C41.9995 13.1023 41.8413 12.7211 41.5601 12.4399C41.2789 12.1587 40.8977 12.0005 40.5 12H7.5Z" fill="#3C50E0"/>
<path d="M43.5 19.5H4.5C4.10218 19.5 3.72064 19.342 3.43934 19.0607C3.15804 18.7794 3 18.3978 3 18C3 17.6022 3.15804 17.2206 3.43934 16.9393C3.72064 16.658 4.10218 16.5 4.5 16.5H43.5C43.8978 16.5 44.2794 16.658 44.5607 16.9393C44.842 17.2206 45 17.6022 45 18C45 18.3978 44.842 18.7794 44.5607 19.0607C44.2794 19.342 43.8978 19.5 43.5 19.5Z" fill="#3C50E0"/>
<path d="M13.5 12C13.1022 12 12.7206 11.842 12.4393 11.5607C12.158 11.2794 12 10.8978 12 10.5V4.5C12 4.10218 12.158 3.72064 12.4393 3.43934C12.7206 3.15804 13.1022 3 13.5 3C13.8978 3 14.2794 3.15804 14.5607 3.43934C14.842 3.72064 15 4.10218 15 4.5V10.5C15 10.8978 14.842 11.2794 14.5607 11.5607C14.2794 11.842 13.8978 12 13.5 12Z" fill="#3C50E0"/>
<path d="M34.5 12C34.1022 12 33.7206 11.842 33.4393 11.5607C33.158 11.2794 33 10.8978 33 10.5V4.5C33 4.10218 33.158 3.72064 33.4393 3.43934C33.7206 3.15804 34.1022 3 34.5 3C34.8978 3 35.2794 3.15804 35.5607 3.43934C35.842 3.72064 36 4.10218 36 4.5V10.5C36 10.8978 35.842 11.2794 35.5607 11.5607C35.2794 11.842 34.8978 12 34.5 12Z" fill="#3C50E0"/>
<path d="M37.5 33H28.5C28.1022 33 27.7206 32.842 27.4393 32.5607C27.158 32.2794 27 31.8978 27 31.5C27 31.1022 27.158 30.7206 27.4393 30.4393C27.7206 30.158 28.1022 30 28.5 30H37.5C37.8978 30 38.2794 30.158 38.5607 30.4393C38.842 30.7206 39 31.1022 39 31.5C39 31.8978 38.842 32.2794 38.5607 32.5607C38.2794 32.842 37.8978 33 37.5 33Z" fill="#3C50E0"/>
<path d="M33 37.5C32.6022 37.5 32.2206 37.342 31.9393 37.0607C31.658 36.7794 31.5 36.3978 31.5 36V27C31.5 26.6022 31.658 26.2206 31.9393 25.9393C32.2206 25.658 32.6022 25.5 33 25.5C33.3978 25.5 33.7794 25.658 34.0607 25.9393C34.342 26.2206 34.5 26.6022 34.5 27V36C34.5 36.3978 34.342 36.7794 34.0607 37.0607C33.7794 37.342 33.3978 37.5 33 37.5Z" fill="#3C50E0"/>
</svg>
