<svg width="48" height="48" viewBox="0 0 48 48" fill="none" xmlns="http://www.w3.org/2000/svg">
<path d="M24 43.5C29.1717 43.5 34.1316 41.4455 37.7886 37.7886C41.4455 34.1316 43.5 29.1717 43.5 24C43.5 18.8283 41.4455 13.8684 37.7886 10.2114C34.1316 6.55446 29.1717 4.5 24 4.5C23.6022 4.5 23.2206 4.65804 22.9393 4.93934C22.658 5.22064 22.5 5.60218 22.5 6V10.5C22.5 10.8978 22.658 11.2794 22.9393 11.5607C23.2206 11.842 23.6022 12 24 12C24.3978 12 24.7794 11.842 25.0607 11.5607C25.342 11.2794 25.5 10.8978 25.5 10.5V7.56735C28.6225 7.8526 31.599 9.02163 34.0811 10.9375C36.5631 12.8534 38.4479 15.4369 39.5146 18.3853C40.5814 21.3338 40.786 24.5251 40.1044 27.5856C39.4228 30.6461 37.8833 33.4491 35.6662 35.6662C33.4491 37.8833 30.6461 39.4228 27.5856 40.1044C24.5251 40.786 21.3338 40.5814 18.3853 39.5146C15.4369 38.4479 12.8534 36.5631 10.9375 34.0811C9.02163 31.599 7.8526 28.6225 7.56735 25.5H10.5C10.8978 25.5 11.2794 25.342 11.5607 25.0607C11.842 24.7794 12 24.3978 12 24C12 23.6022 11.842 23.2206 11.5607 22.9393C11.2794 22.658 10.8978 22.5 10.5 22.5H6C5.60218 22.5 5.22064 22.658 4.93934 22.9393C4.65804 23.2206 4.5 23.6022 4.5 24C4.50584 29.1699 6.56217 34.1264 10.2179 37.7821C13.8736 41.4378 18.8301 43.4942 24 43.5Z" fill="#3C50E0"/>
<path d="M21.1117 23.2329C21.0411 23.4826 21.0035 23.7405 21 24C21 24.5933 21.1759 25.1734 21.5056 25.6667C21.8352 26.1601 22.3038 26.5446 22.8519 26.7716C23.4001 26.9987 24.0033 27.0581 24.5853 26.9424C25.1672 26.8266 25.7018 26.5409 26.1213 26.1213C26.5409 25.7018 26.8266 25.1672 26.9424 24.5853C27.0581 24.0033 26.9987 23.4001 26.7716 22.8519C26.5446 22.3038 26.1601 21.8352 25.6667 21.5056C25.1734 21.1759 24.5933 21 24 21C23.7405 21.0035 23.4826 21.0411 23.2329 21.1119L12.3105 10.1895C12.1721 10.0462 12.0066 9.93196 11.8236 9.85335C11.6406 9.77473 11.4438 9.73335 11.2446 9.73162C11.0454 9.72989 10.8479 9.76785 10.6636 9.84327C10.4792 9.91869 10.3117 10.0301 10.1709 10.1709C10.0301 10.3117 9.91869 10.4792 9.84327 10.6636C9.76785 10.8479 9.72989 11.0454 9.73162 11.2446C9.73335 11.4438 9.77473 11.6406 9.85335 11.8236C9.93196 12.0066 10.0462 12.1721 10.1895 12.3105L21.1117 23.2329Z" fill="#3C50E0"/>
<path d="M31.5 24C31.5 24.3978 31.658 24.7794 31.9393 25.0607C32.2206 25.342 32.6022 25.5 33 25.5H36C36.3978 25.5 36.7794 25.342 37.0607 25.0607C37.342 24.7794 37.5 24.3978 37.5 24C37.5 23.6022 37.342 23.2206 37.0607 22.9393C36.7794 22.658 36.3978 22.5 36 22.5H33C32.6022 22.5 32.2206 22.658 31.9393 22.9393C31.658 23.2206 31.5 23.6022 31.5 24Z" fill="#3C50E0"/>
<path d="M31.425 14.4536L29.3028 16.575C29.1634 16.7143 29.0528 16.8796 28.9774 17.0616C28.9019 17.2436 28.863 17.4387 28.863 17.6357C28.8629 17.8327 28.9016 18.0279 28.977 18.2099C29.0523 18.392 29.1628 18.5574 29.302 18.6968C29.4413 18.8361 29.6067 18.9467 29.7886 19.0221C29.9706 19.0976 30.1657 19.1365 30.3628 19.1366C30.5598 19.1366 30.7549 19.0979 30.9369 19.0226C31.119 18.9472 31.2844 18.8368 31.4238 18.6975L33.5464 16.5765C33.6858 16.4372 33.7964 16.2718 33.8719 16.0898C33.9474 15.9077 33.9863 15.7126 33.9863 15.5156C33.9864 15.3185 33.9477 15.1233 33.8723 14.9413C33.797 14.7592 33.6865 14.5937 33.5472 14.4543C33.4079 14.3149 33.2425 14.2043 33.0605 14.1288C32.8784 14.0534 32.6833 14.0145 32.4862 14.0144C32.2892 14.0143 32.094 14.0531 31.9119 14.1284C31.7298 14.2038 31.5644 14.3143 31.425 14.4536Z" fill="#3C50E0"/>
</svg>
