<svg width="48" height="48" viewBox="0 0 48 48" fill="none" xmlns="http://www.w3.org/2000/svg">
<path d="M33.6966 41.5597C33.4996 41.5599 33.3045 41.5213 33.1225 41.4459C32.9405 41.3705 32.7752 41.2598 32.6361 41.1204L24.15 32.6359C23.9135 32.3993 23.7629 32.0904 23.7222 31.7584C23.6814 31.4263 23.7528 31.0902 23.925 30.8034L30.2898 20.1966C30.4071 20.0012 30.5674 19.8351 30.7585 19.7109C30.9496 19.5867 31.1665 19.5077 31.3927 19.4799C31.6189 19.4521 31.8485 19.4762 32.064 19.5503C32.2795 19.6245 32.4752 19.7468 32.6364 19.908L45.3645 32.6359C45.5255 32.7971 45.6477 32.9929 45.7218 33.2084C45.7959 33.4239 45.82 33.6535 45.7922 33.8796C45.7644 34.1058 45.6854 34.3227 45.5613 34.5138C45.4372 34.7049 45.2712 34.8653 45.0759 34.9827L34.4687 41.346C34.2354 41.4858 33.9686 41.5597 33.6966 41.5597ZM27.099 31.3425L33.93 38.1717L41.8841 33.3991L31.8734 23.3869L27.099 31.3425Z" fill="#3C50E0"/>
<path d="M28.3925 45.6189C27.8018 45.6199 27.2167 45.5044 26.6707 45.2789C26.1248 45.0534 25.6287 44.7225 25.2108 44.3049L20.9687 40.0599C20.5507 39.6422 20.2191 39.1462 19.9929 38.6003C19.7667 38.0544 19.6503 37.4693 19.6503 36.8784C19.6503 36.2874 19.7667 35.7023 19.9929 35.1564C20.2191 34.6105 20.5507 34.1145 20.9687 33.6968L24.15 30.515C24.2892 30.3756 24.4546 30.2651 24.6365 30.1897C24.8185 30.1143 25.0135 30.0754 25.2105 30.0754C25.4075 30.0754 25.6025 30.1143 25.7845 30.1897C25.9665 30.2651 26.1318 30.3756 26.271 30.515L34.7573 39C35.0385 39.2813 35.1965 39.6628 35.1965 40.0606C35.1965 40.4584 35.0385 40.8399 34.7573 41.1212L31.575 44.3034C31.1571 44.7212 30.6609 45.0525 30.1148 45.2782C29.5687 45.5039 28.9834 45.6197 28.3925 45.6189ZM25.2108 33.6966L23.0897 35.8176C22.9504 35.9568 22.8399 36.122 22.7645 36.3038C22.6891 36.4857 22.6503 36.6806 22.6503 36.8775C22.6503 37.0743 22.6891 37.2693 22.7645 37.4511C22.8399 37.633 22.9504 37.7982 23.0897 37.9373L27.332 42.1823C27.614 42.4628 27.9957 42.6202 28.3935 42.6199C28.7913 42.6196 29.1728 42.4617 29.4545 42.1808L31.575 40.0598L25.2108 33.6966Z" fill="#3C50E0"/>
<path d="M37.9389 45.8034C37.7419 45.8036 37.5468 45.765 37.3647 45.6896C37.1827 45.6142 37.0174 45.5035 36.8783 45.364L32.6361 41.1204C32.4916 40.9823 32.3762 40.8167 32.2967 40.6334C32.2171 40.4501 32.175 40.2527 32.1727 40.0529C32.1705 39.853 32.2082 39.6548 32.2837 39.4697C32.3591 39.2847 32.4708 39.1166 32.6122 38.9753C32.7535 38.834 32.9216 38.7224 33.1067 38.647C33.2918 38.5716 33.4901 38.5339 33.6899 38.5362C33.8897 38.5385 34.0871 38.5807 34.2704 38.6604C34.4537 38.74 34.6192 38.8555 34.7572 39L39 43.2429C39.2097 43.4527 39.3525 43.7199 39.4104 44.0108C39.4682 44.3018 39.4385 44.6033 39.325 44.8774C39.2115 45.1514 39.0193 45.3857 38.7727 45.5505C38.5261 45.7153 38.2361 45.8033 37.9395 45.8034H37.9389Z" fill="#3C50E0"/>
<path d="M4.44662 37.4466C4.14996 37.4466 3.85997 37.3586 3.61333 37.1937C3.36668 37.0289 3.17445 36.7946 3.06094 36.5205C2.94743 36.2465 2.91773 35.9449 2.97561 35.6539C3.03349 35.363 3.17635 35.0957 3.38612 34.8859L8.63612 29.6359C8.79304 29.479 8.98283 29.3589 9.19179 29.2842C9.40076 29.2095 9.6237 29.1821 9.84453 29.204C10.0654 29.2258 10.2786 29.2964 10.4689 29.4106C10.6591 29.5249 10.8217 29.6799 10.9448 29.8645L12.93 32.8425L20.6366 25.1359C20.9191 24.8605 21.2987 24.7075 21.6932 24.71C22.0877 24.7125 22.4654 24.8703 22.7444 25.1493C23.0233 25.4283 23.1812 25.8059 23.1837 26.2005C23.1862 26.595 23.0331 26.9746 22.7577 27.2571L13.7577 36.2571C13.6008 36.414 13.411 36.5341 13.202 36.6088C12.9931 36.6835 12.7701 36.711 12.5493 36.6891C12.3285 36.6672 12.1152 36.5966 11.925 36.4824C11.7347 36.3682 11.5722 36.2131 11.4491 36.0285L9.46381 33.0505L5.50727 37.0071C5.36814 37.1466 5.20282 37.2573 5.0208 37.3327C4.83878 37.4081 4.64365 37.4468 4.44662 37.4466Z" fill="#3C50E0"/>
<path d="M41.1219 32.015C40.8252 32.0149 40.5353 31.9269 40.2886 31.7621C40.042 31.5973 39.8497 31.363 39.7362 31.0889C39.6227 30.8148 39.593 30.5133 39.6509 30.2223C39.7088 29.9314 39.8516 29.6641 40.0614 29.4543C40.34 29.1757 40.5611 28.8449 40.7119 28.4808C40.8627 28.1168 40.9403 27.7266 40.9403 27.3325C40.9403 26.9384 40.8627 26.5482 40.7119 26.1842C40.5611 25.8201 40.34 25.4893 40.0614 25.2107C39.7828 24.932 39.452 24.711 39.0879 24.5602C38.7238 24.4094 38.3336 24.3318 37.9396 24.3318C37.5455 24.3318 37.1553 24.4094 36.7912 24.5602C36.4272 24.711 36.0964 24.932 35.8177 25.2107C35.535 25.4849 35.1558 25.637 34.7619 25.634C34.3681 25.631 33.9912 25.4732 33.7127 25.1947C33.4342 24.9162 33.2764 24.5394 33.2733 24.1455C33.2703 23.7516 33.4224 23.3724 33.6966 23.0897C34.8218 21.9644 36.348 21.3321 37.9394 21.3321C39.5307 21.332 41.0569 21.9642 42.1822 23.0894C43.3076 24.2146 43.9398 25.7408 43.9398 27.3321C43.9399 28.9235 43.3078 30.4497 42.1825 31.575C42.0435 31.7146 41.8781 31.8253 41.6961 31.9008C41.5141 31.9763 41.319 32.0151 41.1219 32.015Z" fill="#3C50E0"/>
<path d="M8.06776 26.1966C7.66994 26.1966 7.2884 26.0386 7.0071 25.7573C6.7258 25.476 6.56776 25.0944 6.56776 24.6966V21.6966H5.19661C4.40129 21.6955 3.63885 21.3791 3.07647 20.8167C2.5141 20.2544 2.19768 19.4919 2.19661 18.6966V5.19659C2.19764 4.40126 2.51404 3.6388 3.07643 3.07641C3.63881 2.51403 4.40128 2.19763 5.19661 2.19659H23.1966C23.992 2.19759 24.7544 2.51398 25.3168 3.07637C25.8792 3.63876 26.1956 4.40125 26.1966 5.19659V18.6966C26.1956 19.4919 25.8792 20.2544 25.3168 20.8168C24.7544 21.3792 23.9919 21.6956 23.1966 21.6966H16.1069L8.82946 25.9885C8.59889 26.1251 8.33575 26.197 8.06776 26.1966ZM5.19661 5.19659V18.6966H8.06776C8.26478 18.6965 8.45988 18.7352 8.64193 18.8105C8.82397 18.8859 8.98937 18.9964 9.12868 19.1357C9.268 19.275 9.37848 19.4404 9.45382 19.6224C9.52916 19.8045 9.56788 19.9996 9.56776 20.1966V22.0701L14.582 19.1125C15.044 18.8403 15.5706 18.6967 16.1069 18.6966H23.1966V5.19659H5.19661Z" fill="#3C50E0"/>
</svg>
