<svg width="48" height="48" viewBox="0 0 48 48" fill="none" xmlns="http://www.w3.org/2000/svg">
<path fill-rule="evenodd" clip-rule="evenodd" d="M12.5 7C12.5 4.51472 14.5147 2.5 17 2.5H24H31C33.4853 2.5 35.5 4.51472 35.5 7V21C35.5 21.526 35.4098 22.0308 35.2439 22.5H41C43.4853 22.5 45.5 24.5147 45.5 27V41C45.5 43.4853 43.4853 45.5 41 45.5H27C25.8475 45.5 24.7961 45.0667 24 44.3542C23.2039 45.0667 22.1525 45.5 21 45.5H7C4.51472 45.5 2.5 43.4853 2.5 41V27C2.5 24.5147 4.51472 22.5 7 22.5H12.7561C12.5902 22.0308 12.5 21.526 12.5 21V7ZM22.5 5.5V10.5C22.5 11.3284 23.1716 12 24 12C24.8284 12 25.5 11.3284 25.5 10.5V5.5H31C31.8284 5.5 32.5 6.17157 32.5 7V21C32.5 21.8284 31.8284 22.5 31 22.5H27H21H17C16.1716 22.5 15.5 21.8284 15.5 21V7C15.5 6.17157 16.1716 5.5 17 5.5H22.5ZM7 25.5H12.5V30.5C12.5 31.3284 13.1716 32 14 32C14.8284 32 15.5 31.3284 15.5 30.5V25.5H17H21C21.8284 25.5 22.5 26.1716 22.5 27V41C22.5 41.8284 21.8284 42.5 21 42.5H7C6.17157 42.5 5.5 41.8284 5.5 41V27C5.5 26.1716 6.17157 25.5 7 25.5ZM25.5 27C25.5 26.1716 26.1716 25.5 27 25.5H31H32.5V30.5C32.5 31.3284 33.1716 32 34 32C34.8284 32 35.5 31.3284 35.5 30.5V25.5H41C41.8284 25.5 42.5 26.1716 42.5 27V41C42.5 41.8284 41.8284 42.5 41 42.5H27C26.1716 42.5 25.5 41.8284 25.5 41V27Z" fill="#3C50E0"/>
</svg>
