<svg width="48" height="48" viewBox="0 0 48 48" fill="none" xmlns="http://www.w3.org/2000/svg">
<path d="M35 10.5C34.1716 10.5 33.5 11.1716 33.5 12C33.5 12.8284 34.1716 13.5 35 13.5H36.5245L26.2414 24.574L12.791 16.2255C12.1991 15.8581 11.432 15.9467 10.9393 16.4393L3.43934 23.9393C2.85355 24.5251 2.85355 25.4749 3.43934 26.0607C4.02513 26.6464 4.97487 26.6464 5.56066 26.0607L12.2196 19.4017L25.709 27.7745C26.3186 28.1529 27.1109 28.0465 27.5992 27.5207L38.5 15.7813V16C38.5 16.8284 39.1716 17.5 40 17.5C40.8284 17.5 41.5 16.8284 41.5 16V12C41.5 11.1716 40.8284 10.5 40 10.5H35Z" fill="#3C50E0"/>
<path d="M41.5 21.5C41.5 20.6716 40.8284 20 40 20C39.1716 20 38.5 20.6716 38.5 21.5V39C38.5 39.8284 39.1716 40.5 40 40.5C40.8284 40.5 41.5 39.8284 41.5 39V21.5Z" fill="#3C50E0"/>
<path d="M13.5 26C13.5 25.1716 12.8284 24.5 12 24.5C11.1716 24.5 10.5 25.1716 10.5 26L10.5 39C10.5 39.8284 11.1716 40.5 12 40.5C12.8284 40.5 13.5 39.8284 13.5 39L13.5 26Z" fill="#3C50E0"/>
<path d="M6 31C6 30.1716 5.32843 29.5 4.5 29.5C3.67157 29.5 3 30.1716 3 31V39C3 39.8284 3.67157 40.5 4.5 40.5C5.32843 40.5 6 39.8284 6 39L6 31Z" fill="#3C50E0"/>
<path d="M19 27.5C19.8284 27.5 20.5 28.1716 20.5 29V39C20.5 39.8284 19.8284 40.5 19 40.5C18.1716 40.5 17.5 39.8284 17.5 39V29C17.5 28.1716 18.1716 27.5 19 27.5Z" fill="#3C50E0"/>
<path d="M27.5 32C27.5 31.1716 26.8284 30.5 26 30.5C25.1716 30.5 24.5 31.1716 24.5 32V39C24.5 39.8284 25.1716 40.5 26 40.5C26.8284 40.5 27.5 39.8284 27.5 39V32Z" fill="#3C50E0"/>
<path d="M33 25.5C33.8284 25.5 34.5 26.1716 34.5 27V39C34.5 39.8284 33.8284 40.5 33 40.5C32.1716 40.5 31.5 39.8284 31.5 39V27C31.5 26.1716 32.1716 25.5 33 25.5Z" fill="#3C50E0"/>
</svg>
