<svg width="48" height="48" viewBox="0 0 48 48" fill="none" xmlns="http://www.w3.org/2000/svg">
<path d="M7 31V43" stroke="#3C50E0" stroke-width="2.5"/>
<path d="M27 22V43" stroke="#3C50E0" stroke-width="2.5"/>
<path d="M20 31V43" stroke="#3C50E0" stroke-width="2.5"/>
<path d="M40 22V43" stroke="#3C50E0" stroke-width="2.5"/>
<ellipse cx="13.5" cy="30.5" rx="6.5" ry="2.5" stroke="#3C50E0" stroke-width="2.5"/>
<ellipse cx="33.5" cy="22.5" rx="6.5" ry="2.5" stroke="#3C50E0" stroke-width="2.5"/>
<path d="M20 43C20 44.3807 17.0899 45.5 13.5 45.5C9.91015 45.5 7 44.3807 7 43" stroke="#3C50E0" stroke-width="2.5"/>
<path d="M40 43C40 44.3807 37.0899 45.5 33.5 45.5C29.9101 45.5 27 44.3807 27 43" stroke="#3C50E0" stroke-width="2.5"/>
<circle cx="13.5" cy="16.5" r="6.5" stroke="#3C50E0" stroke-width="2.5"/>
<circle cx="33.5" cy="8.5" r="6.5" stroke="#3C50E0" stroke-width="2.5"/>
<path d="M34.0752 7.71781H34.0505V6.14545C34.4796 6.20727 34.8789 6.36872 35.2461 6.63054L35.7901 5.86108C35.2432 5.48727 34.6636 5.27854 34.0505 5.23345V4.80727H33.5152V5.22545C32.9741 5.25381 32.5356 5.42036 32.1974 5.72727C31.8599 6.03418 31.6919 6.42836 31.6912 6.91127C31.6912 7.39345 31.8374 7.75781 32.1305 8.0029C32.4236 8.24872 32.8847 8.44654 33.5145 8.59708V10.2196C33.0185 10.1418 32.5363 9.8989 32.0672 9.49163L31.457 10.2189C32.0643 10.7491 32.7501 11.0524 33.5145 11.1309V11.7418H34.0505V11.1396C34.6192 11.112 35.0767 10.944 35.4221 10.6378C35.7683 10.3316 35.9407 9.93381 35.9407 9.44581C35.9407 8.95781 35.7901 8.58545 35.489 8.32945C35.1872 8.07272 34.7159 7.86836 34.0752 7.71781ZM33.5145 7.56727C33.2025 7.4669 32.9909 7.36218 32.8789 7.25381C32.7669 7.14472 32.7116 6.99708 32.7116 6.81018C32.7116 6.62327 32.7821 6.46763 32.9247 6.34181C33.0665 6.21672 33.2636 6.14254 33.5138 6.11999L33.5145 7.56727ZM34.6854 10.0102C34.529 10.1382 34.3174 10.2167 34.0498 10.2444V8.7389C34.3843 8.83927 34.6127 8.9469 34.7356 9.06108C34.8585 9.17527 34.9196 9.33018 34.9196 9.52508C34.9196 9.71999 34.841 9.88145 34.6854 10.0102Z" fill="#3C50E0"/>
<path d="M13.6182 15.9105H13.5935V14.3382C14.0225 14.4 14.4218 14.5615 14.7891 14.8233L15.3331 14.0538C14.7862 13.68 14.2065 13.4713 13.5935 13.4262V13H13.0582V13.4182C12.5171 13.4465 12.0785 13.6131 11.7404 13.92C11.4029 14.2269 11.2349 14.6211 11.2342 15.104C11.2342 15.5862 11.3804 15.9505 11.6735 16.1956C11.9665 16.4415 12.4276 16.6393 13.0575 16.7898V18.4124C12.5615 18.3345 12.0793 18.0916 11.6102 17.6844L11 18.4116C11.6073 18.9418 12.2931 19.2451 13.0575 19.3236V19.9345H13.5935V19.3324C14.1622 19.3047 14.6196 19.1367 14.9651 18.8305C15.3113 18.5244 15.4836 18.1265 15.4836 17.6385C15.4836 17.1505 15.3331 16.7782 15.032 16.5222C14.7302 16.2655 14.2589 16.0611 13.6182 15.9105ZM13.0575 15.76C12.7455 15.6596 12.5338 15.5549 12.4218 15.4465C12.3098 15.3375 12.2545 15.1898 12.2545 15.0029C12.2545 14.816 12.3251 14.6604 12.4676 14.5345C12.6095 14.4095 12.8065 14.3353 13.0567 14.3127L13.0575 15.76ZM14.2284 18.2029C14.072 18.3309 13.8604 18.4095 13.5927 18.4371V16.9316C13.9273 17.032 14.1556 17.1396 14.2785 17.2538C14.4015 17.368 14.4625 17.5229 14.4625 17.7178C14.4625 17.9127 14.384 18.0742 14.2284 18.2029Z" fill="#3C50E0"/>
</svg>
