<svg width="48" height="48" viewBox="0 0 48 48" fill="none" xmlns="http://www.w3.org/2000/svg">
<path d="M24.0254 17.026C21.4898 17.026 19.4365 19.1079 19.4365 21.6567C19.4365 24.2056 21.4899 26.2869 24.0254 26.2869C26.561 26.2869 28.6143 24.2056 28.6143 21.6567C28.6143 19.1079 26.5611 17.026 24.0254 17.026ZM24.0254 24.3172C22.581 24.3172 21.3965 23.1282 21.3965 21.6567C21.3965 20.1852 22.5811 18.9957 24.0254 18.9957C25.4697 18.9957 26.6543 20.1851 26.6543 21.6567C26.6543 23.1282 25.4698 24.3172 24.0254 24.3172Z" fill="#3C50E0" stroke="#3C50E0"/>
<path d="M14.264 28.2823L14.264 28.2822C13.501 27.1027 12.965 25.8105 12.6714 24.4422L14.264 28.2823ZM14.264 28.2823C14.4119 28.5107 14.6491 28.6653 14.9173 28.7089C15.1894 28.7552 15.4654 28.677 15.6746 28.5085L15.6754 28.5079M14.264 28.2823L15.6754 28.5079M13.1163 20.1178L12.833 20.3234C12.6728 20.1026 12.6142 19.8238 12.6714 19.5574L13.1163 20.1178ZM13.1163 20.1178L12.833 20.3234C12.9927 20.5434 13.2384 20.6864 13.5101 20.7148M13.1163 20.1178L13.5101 20.7148M15.6754 28.5079C16.1889 28.0919 16.9292 28.1313 17.3991 28.601C17.8678 29.0695 17.9073 29.8098 17.4922 30.3244C17.3204 30.5363 17.2474 30.8115 17.2905 31.0804M15.6754 28.5079L17.7175 31.7357M17.7175 31.7357L17.7174 31.7356C17.4888 31.5876 17.3333 31.3494 17.2905 31.0804M17.7175 31.7357C18.8971 32.4986 20.1895 33.0349 21.5576 33.3285L21.5587 33.3287M17.7175 31.7357L21.5587 33.3287M17.2905 31.0804C17.2905 31.0804 17.2905 31.0803 17.2904 31.0802L17.6361 31.0252L17.2905 31.0806C17.2905 31.0806 17.2905 31.0805 17.2905 31.0804ZM21.5587 33.3287C21.8243 33.3848 22.1015 33.3269 22.3226 33.1676L22.3231 33.1672M21.5587 33.3287L22.3231 33.1672M22.3231 33.1672C22.5442 33.0073 22.6866 32.7605 22.7152 32.4895L22.7153 32.4894M22.3231 33.1672L22.7153 32.4894M22.7153 32.4894C22.7845 31.8312 23.336 31.3347 24 31.3347C24.664 31.3347 25.2155 31.8312 25.2847 32.4894L25.2848 32.4895M22.7153 32.4894L25.2848 32.4895M25.2848 32.4895C25.3134 32.7604 25.4557 33.0072 25.6767 33.1671L25.2848 32.4895ZM26.4423 33.3285L26.4408 33.3288C26.3765 33.3423 26.3094 33.35 26.2407 33.35C26.04 33.35 25.8424 33.2872 25.6768 33.1672L26.4423 33.3285ZM26.4423 33.3285C27.809 33.0355 29.1015 32.4992 30.2824 31.7357L30.2829 31.7354M26.4423 33.3285L30.2829 31.7354M30.2829 31.7354C30.5108 31.5875 30.6663 31.3502 30.7095 31.0806C30.7526 30.8116 30.6797 30.5364 30.5079 30.3245C30.0927 29.8099 30.1321 29.0695 30.6009 28.601L30.6009 28.6009C31.0705 28.1314 31.8105 28.0918 32.3247 28.5079L32.3257 28.5087M30.2829 31.7354L32.3257 28.5087M32.3257 28.5087C32.5349 28.6769 32.8114 28.7552 33.0829 28.7088C33.351 28.6652 33.5881 28.5106 33.736 28.2823L33.736 28.2822M32.3257 28.5087L33.736 28.2822M33.736 28.2822C34.499 27.1027 35.035 25.8105 35.3286 24.4422M33.736 28.2822L35.3286 24.4422M29.2419 16.7584L29.2418 16.7584C28.3469 15.8635 28.0812 14.5665 28.4756 13.4324C27.9679 13.1662 27.4395 12.9471 26.894 12.7762C26.3714 13.8579 25.2664 14.5871 24 14.5871C22.7336 14.5871 21.6286 13.8579 21.106 12.7762C20.5605 12.9471 20.0321 13.1662 19.5244 13.4324C19.9188 14.5665 19.6531 15.8634 18.7582 16.7583L29.2419 16.7584ZM29.2419 16.7584C30.1372 17.6534 31.4331 17.9185 32.5675 17.5241C32.8338 18.0319 33.0531 18.5601 33.2241 19.1056C32.1425 19.6283 31.4131 20.7338 31.4131 22.0001C31.4131 23.2665 32.1426 24.3714 33.224 24.8941M29.2419 16.7584L33.224 24.8941M13.5101 20.7148C14.1686 20.7843 14.665 21.3361 14.665 22.0001M13.5101 20.7148L14.665 22.0001M14.665 22.0001C14.665 22.664 14.1687 23.2153 13.5101 23.2848M14.665 22.0001L13.5101 23.2848M13.5101 23.2848C13.2388 23.3132 12.9927 23.456 12.833 23.6762M13.5101 23.2848L12.833 23.6762M12.833 23.6762C12.6728 23.897 12.6142 24.1757 12.6714 24.4422L12.833 23.6762ZM35.3286 24.4422C35.3858 24.1758 35.3272 23.8971 35.167 23.6762C35.0073 23.456 34.7612 23.3132 34.4899 23.2848C33.8316 23.2153 33.3353 22.664 33.3353 22.0001L35.3286 24.4422ZM33.224 24.8941C33.0531 25.4394 32.8339 25.9676 32.5676 26.4753C31.4335 26.0806 30.1367 26.3464 29.2418 27.2418L33.224 24.8941ZM33.0256 15.636C32.8552 15.608 32.6801 15.6545 32.5449 15.7637L34.9864 19.6309C34.7017 18.3048 34.1822 17.0522 33.4422 15.9075C33.3482 15.7619 33.1966 15.6635 33.0256 15.636ZM35.3286 19.5574C35.035 18.1897 34.4991 16.8977 33.7362 15.7177C33.5882 15.4883 33.3498 15.3337 33.0815 15.2905C32.8122 15.2464 32.5369 15.3202 32.3249 15.4915L32.3249 15.4915C31.8104 15.9074 31.0701 15.868 30.601 15.3993C30.601 15.3993 30.6009 15.3992 30.6009 15.3992L35.3286 19.5574ZM14.2638 15.7177C13.5009 16.8977 12.965 18.1897 12.6714 19.5574L14.2638 15.7177ZM29.2417 27.2419C28.347 28.1367 28.0809 29.4331 28.4756 30.5671C27.9675 30.8335 27.4393 31.053 26.8943 31.2239C26.3717 30.1422 25.2667 29.4125 24 29.4125C22.7333 29.4125 21.6283 30.1422 21.1057 31.224C20.5603 31.053 20.0319 30.8336 19.5243 30.5672C19.9189 29.4333 19.6534 28.1368 18.7585 27.2419C17.8635 26.3465 16.5666 26.08 15.4324 26.4752C15.1661 25.9676 14.9469 25.4394 14.776 24.8941C15.8577 24.3715 16.5872 23.2665 16.5872 22.0001C16.5872 20.7337 15.8578 19.6283 14.776 19.1055C14.9469 18.5601 15.1661 18.0319 15.4325 17.5242C16.5662 17.9184 17.8635 17.6534 18.7582 16.7584L29.2417 27.2419Z" fill="#3C50E0" stroke="#3C50E0" stroke-width="0.7"/>
<path fill-rule="evenodd" clip-rule="evenodd" d="M43.6199 10.1583L43.6182 10.157C41.7241 8.70555 39.515 7.45743 37.0585 6.4406C28.7592 3.00845 19.2438 3.00735 10.9422 6.44048C8.48653 7.45598 6.27744 8.70416 4.38145 10.157L4.37979 10.1583C4.01744 10.4371 3.80487 10.8665 3.7999 11.3215C3.79801 11.5001 3.80169 17.2045 6.21865 24.144C8.63919 31.0938 13.5058 39.3474 23.2667 44.4675L23.2707 44.4695C23.4778 44.577 23.711 44.6364 23.9525 44.6364H24.0472C24.2887 44.6364 24.5219 44.577 24.729 44.4695L24.733 44.4675C34.4939 39.3474 39.3605 31.0938 41.781 24.144C44.198 17.2045 44.2017 11.5004 44.1998 11.3218C44.1948 10.8668 43.9822 10.4371 43.6199 10.1583ZM42.236 11.6187C42.2364 11.6043 42.2367 11.5905 42.237 11.5772C42.2238 11.5672 42.2105 11.5573 42.1972 11.5474L42.237 11.5772L42.236 11.6187ZM36.3058 8.25965L36.3123 8.26231L36.3058 8.25965ZM38.6173 24.2032C40.7063 18.7031 41.1324 13.8589 41.2185 12.0713C39.6793 10.9738 37.9052 10.0036 35.9299 9.18634C28.3513 6.05181 19.6508 6.05136 12.0703 9.1864C10.0965 10.0022 8.32213 10.9728 6.78177 12.071C6.86904 13.8595 7.29799 18.7052 9.38827 24.2059C11.6877 30.2572 15.9776 37.0544 23.9999 41.4916C32.029 37.051 36.3193 30.2535 38.6173 24.2032ZM5.1835 10.8038C5.11851 10.8526 5.0539 10.9015 4.98968 10.9508C4.87156 11.0417 4.80148 11.1823 4.79984 11.3324C4.7997 11.3456 4.79955 11.4371 4.80345 11.5994C4.83779 13.0304 5.18625 19.9715 8.6218 27.4408C4.79653 19.1242 4.79846 11.4624 4.79984 11.3324C4.80148 11.1823 4.87156 11.0417 4.98968 10.9508C6.80721 9.55804 8.93707 8.35215 11.3205 7.36618C11.3218 7.36565 11.3231 7.36511 11.3244 7.36458L11.3205 7.36618L11.3181 7.36716C9.01993 8.31809 6.95738 9.47359 5.1835 10.8038Z" fill="#3C50E0"/>
</svg>
