<svg width="48" height="48" viewBox="0 0 48 48" fill="none" xmlns="http://www.w3.org/2000/svg">
<path d="M40.5 4.5H15C14.6022 4.5 14.2206 4.65804 13.9393 4.93934C13.658 5.22064 13.5 5.60218 13.5 6C13.5 6.39782 13.658 6.77936 13.9393 7.06066C14.2206 7.34196 14.6022 7.5 15 7.5H40.5C40.8978 7.50024 41.2791 7.65835 41.5604 7.9396C41.8417 8.22086 41.9998 8.60225 42 9V40.6465C42.0003 40.8897 41.9413 41.1293 41.8283 41.3447C41.7153 41.56 41.5517 41.7446 41.3514 41.8826C41.1511 42.0206 40.9203 42.1077 40.6789 42.1366C40.4374 42.1655 40.1925 42.1352 39.9654 42.0483L29.3511 38.0053C28.3198 37.6128 27.1802 37.6128 26.1489 38.0053L15.5333 42.0483C15.3062 42.135 15.0614 42.1652 14.8201 42.1363C14.5787 42.1074 14.3481 42.0201 14.148 41.8822C13.9478 41.7442 13.7843 41.5596 13.6714 41.3444C13.5585 41.1291 13.4997 40.8896 13.5 40.6465V33C13.5 32.6022 13.342 32.2206 13.0607 31.9393C12.7794 31.658 12.3978 31.5 12 31.5C11.6022 31.5 11.2206 31.658 10.9393 31.9393C10.658 32.2206 10.5 32.6022 10.5 33V40.6465C10.5 41.3756 10.6771 42.0937 11.0161 42.7391C11.3551 43.3845 11.8458 43.9379 12.4461 44.3516C13.0463 44.7654 13.7381 45.0271 14.4619 45.1143C15.1857 45.2015 15.9198 45.1115 16.6011 44.8521L27.2154 40.8091C27.5596 40.6772 27.9404 40.6772 28.2846 40.8091L38.8974 44.8521C39.5788 45.1118 40.3131 45.202 41.0371 45.115C41.7611 45.0279 42.4531 44.7663 43.0535 44.3525C43.6539 43.9387 44.1448 43.3852 44.4839 42.7396C44.823 42.0941 45.0001 41.3758 45 40.6465V9C44.9987 7.80693 44.5242 6.6631 43.6805 5.81947C42.8369 4.97584 41.6931 4.50131 40.5 4.5Z" fill="#3C50E0"/>
<path d="M21 19.5V15.75C21 14.3576 20.4469 13.0223 19.4623 12.0377C18.4777 11.0531 17.1424 10.5 15.75 10.5C14.3576 10.5 13.0223 11.0531 12.0377 12.0377C11.0531 13.0223 10.5 14.3576 10.5 15.75V21C10.5 21.3978 10.658 21.7794 10.9393 22.0607C11.2206 22.342 11.6022 22.5 12 22.5C12.3978 22.5 12.7794 22.342 13.0607 22.0607C13.342 21.7794 13.5 21.3978 13.5 21V15.75C13.5 15.1533 13.7371 14.581 14.159 14.159C14.581 13.7371 15.1533 13.5 15.75 13.5C16.3467 13.5 16.919 13.7371 17.341 14.159C17.7629 14.581 18 15.1533 18 15.75V19.5C18 21.0913 17.3679 22.6174 16.2426 23.7426C15.1174 24.8679 13.5913 25.5 12 25.5C10.4087 25.5 8.88258 24.8679 7.75736 23.7426C6.63214 22.6174 6 21.0913 6 19.5V6C6 5.60218 5.84196 5.22064 5.56066 4.93934C5.27936 4.65804 4.89782 4.5 4.5 4.5C4.10218 4.5 3.72064 4.65804 3.43934 4.93934C3.15804 5.22064 3 5.60218 3 6V19.5C3 21.8869 3.94821 24.1761 5.63604 25.864C7.32387 27.5518 9.61305 28.5 12 28.5C14.3869 28.5 16.6761 27.5518 18.364 25.864C20.0518 24.1761 21 21.8869 21 19.5Z" fill="#3C50E0"/>
<path d="M33 10.5C32.6022 10.5 32.2206 10.658 31.9393 10.9393C31.658 11.2206 31.5 11.6022 31.5 12V13.8942C30.7049 14.2623 30.0337 14.8532 29.5677 15.5953C29.1018 16.3373 28.8611 17.1986 28.875 18.0747C28.88 18.6671 29.0028 19.2526 29.2364 19.797C29.4699 20.3415 29.8095 20.834 30.2353 21.2459C30.6612 21.6578 31.1647 21.9808 31.7166 22.1961C32.2685 22.4114 32.8578 22.5147 33.45 22.5C33.6486 22.505 33.8441 22.5502 34.0246 22.6331C34.2052 22.7159 34.367 22.8346 34.5003 22.9819C34.6336 23.1292 34.7355 23.302 34.7999 23.4899C34.8643 23.6779 34.8899 23.8769 34.875 24.075C34.8747 24.4528 34.7245 24.8151 34.4573 25.0823C34.1901 25.3495 33.8278 25.4997 33.45 25.5H31.5C31.1022 25.5 30.7206 25.658 30.4393 25.9393C30.158 26.2206 30 26.6022 30 27C30 27.3978 30.158 27.7794 30.4393 28.0607C30.7206 28.342 31.1022 28.5 31.5 28.5V30C31.5 30.3978 31.658 30.7794 31.9393 31.0607C32.2206 31.342 32.6022 31.5 33 31.5C33.3978 31.5 33.7794 31.342 34.0607 31.0607C34.342 30.7794 34.5 30.3978 34.5 30V28.3596C35.567 28.084 36.4958 27.4265 37.1104 26.5119C37.7251 25.5972 37.9829 24.4889 37.8349 23.3968C37.687 22.3048 37.1437 21.305 36.3079 20.5868C35.4721 19.8686 34.4018 19.4819 33.3 19.5C33.1014 19.495 32.9059 19.4498 32.7254 19.3669C32.5448 19.2841 32.383 19.1654 32.2497 19.0181C32.1164 18.8708 32.0145 18.698 31.9501 18.5101C31.8857 18.3221 31.8601 18.1231 31.875 17.925C31.8753 17.5472 32.0255 17.1849 32.2927 16.9177C32.5599 16.6505 32.9222 16.5003 33.3 16.5H36C36.3978 16.5 36.7794 16.342 37.0607 16.0607C37.342 15.7794 37.5 15.3978 37.5 15C37.5 14.6022 37.342 14.2206 37.0607 13.9393C36.7794 13.658 36.3978 13.5 36 13.5H34.5V12C34.5 11.6022 34.342 11.2206 34.0607 10.9393C33.7794 10.658 33.3978 10.5 33 10.5Z" fill="#3C50E0"/>
</svg>
