<svg width="48" height="48" viewBox="0 0 48 48" fill="none" xmlns="http://www.w3.org/2000/svg">
<path d="M33.285 45.4878C33.1749 45.4876 33.0651 45.4758 32.9575 45.4527C32.5692 45.3663 32.2311 45.1291 32.0177 44.7934C31.8042 44.4577 31.7329 44.0509 31.8193 43.6626C31.9167 43.224 31.9144 42.7692 31.8125 42.3316C31.7105 41.8941 31.5116 41.485 31.2305 41.1346C30.9493 40.7842 30.593 40.5014 30.1879 40.3072C29.7828 40.1129 29.3392 40.0121 28.89 40.0122H19.11C18.6608 40.0123 18.2174 40.1132 17.8124 40.3076C17.4075 40.5019 17.0514 40.7847 16.7703 41.1351C16.4893 41.4854 16.2905 41.8944 16.1886 42.3319C16.0868 42.7694 16.0844 43.2241 16.1818 43.6626C16.2279 43.8561 16.235 44.0568 16.2027 44.253C16.1705 44.4493 16.0995 44.6372 15.994 44.8058C15.8885 44.9743 15.7505 45.1202 15.588 45.235C15.4256 45.3497 15.242 45.431 15.0478 45.4742C14.8537 45.5173 14.6529 45.5214 14.4571 45.4862C14.2614 45.451 14.0746 45.3772 13.9076 45.2692C13.7406 45.1611 13.5968 45.0209 13.4845 44.8568C13.3722 44.6926 13.2937 44.5078 13.2535 44.313C13.0586 43.436 13.0631 42.5264 13.2668 41.6514C13.4704 40.7764 13.868 39.9583 14.4301 39.2575C14.9923 38.5567 15.7047 37.9911 16.5146 37.6025C17.3246 37.2139 18.2116 37.0122 19.11 37.0122H28.89C29.7884 37.0122 30.6753 37.2139 31.4853 37.6025C32.2953 37.9911 33.0077 38.5567 33.5698 39.2575C34.132 39.9583 34.5295 40.7764 34.7332 41.6514C34.9368 42.5264 34.9414 43.436 34.7464 44.313C34.6725 44.6457 34.4875 44.9434 34.2219 45.1569C33.9562 45.3704 33.6258 45.4872 33.285 45.4878Z" fill="#3C50E0"/>
<path d="M24 34.0122C22.665 34.0122 21.3599 33.6163 20.2499 32.8746C19.1399 32.1329 18.2747 31.0787 17.7638 29.8453C17.2529 28.6119 17.1193 27.2547 17.3797 25.9454C17.6402 24.636 18.283 23.4332 19.227 22.4892C20.171 21.5452 21.3738 20.9024 22.6831 20.6419C23.9925 20.3815 25.3497 20.5151 26.5831 21.026C27.8165 21.5369 28.8707 22.4021 29.6124 23.5121C30.3541 24.6221 30.75 25.9272 30.75 27.2622C30.748 29.0518 30.0362 30.7675 28.7708 32.033C27.5053 33.2984 25.7896 34.0102 24 34.0122ZM24 23.5122C23.2583 23.5122 22.5333 23.7321 21.9166 24.1442C21.2999 24.5563 20.8193 25.1419 20.5355 25.8271C20.2516 26.5124 20.1774 27.2664 20.3221 27.9938C20.4668 28.7212 20.8239 29.3894 21.3484 29.9139C21.8728 30.4383 22.541 30.7955 23.2684 30.9402C23.9958 31.0849 24.7498 31.0106 25.4351 30.7268C26.1203 30.4429 26.706 29.9623 27.118 29.3456C27.5301 28.7289 27.75 28.0039 27.75 27.2622C27.749 26.268 27.3536 25.3147 26.6505 24.6117C25.9475 23.9087 24.9942 23.5132 24 23.5122Z" fill="#3C50E0"/>
<path d="M4.21574 27.4878C3.87471 27.4874 3.54398 27.3708 3.2781 27.1573C3.01221 26.9437 2.82703 26.6459 2.75309 26.313C2.55815 25.436 2.56268 24.5264 2.76636 23.6513C2.97003 22.7763 3.36765 21.9581 3.92985 21.2573C4.49205 20.5565 5.20447 19.991 6.01452 19.6024C6.82457 19.2138 7.71156 19.0121 8.60999 19.0122H15C15.3978 19.0122 15.7793 19.1702 16.0607 19.4515C16.342 19.7329 16.5 20.1144 16.5 20.5122C16.5 20.91 16.342 21.2916 16.0607 21.5729C15.7793 21.8542 15.3978 22.0122 15 22.0122H8.60999C8.16083 22.0123 7.71741 22.1132 7.31247 22.3076C6.90752 22.5019 6.55139 22.7847 6.27034 23.1351C5.98929 23.4854 5.7905 23.8944 5.68864 24.3319C5.58679 24.7694 5.58447 25.2241 5.68184 25.6626C5.76829 26.0509 5.69694 26.4577 5.48348 26.7934C5.27003 27.1291 4.93196 27.3663 4.54364 27.4527C4.43588 27.4759 4.32597 27.4876 4.21574 27.4878Z" fill="#3C50E0"/>
<path d="M13.5 16.0122C12.165 16.0122 10.8599 15.6163 9.7499 14.8746C8.63987 14.1329 7.77471 13.0787 7.26382 11.8453C6.75292 10.6119 6.61925 9.25472 6.8797 7.94535C7.14015 6.63598 7.78303 5.43324 8.72703 4.48924C9.67104 3.54523 10.8738 2.90236 12.1831 2.64191C13.4925 2.38146 14.8497 2.51513 16.0831 3.02602C17.3165 3.53691 18.3707 4.40208 19.1124 5.51211C19.8541 6.62214 20.25 7.92719 20.25 9.26221C20.248 11.0518 19.5362 12.7675 18.2708 14.033C17.0053 15.2984 15.2896 16.0102 13.5 16.0122ZM13.5 5.51221C12.7583 5.51221 12.0333 5.73214 11.4166 6.1442C10.7999 6.55625 10.3193 7.14192 10.0355 7.82715C9.75163 8.51237 9.67736 9.26637 9.82206 9.9938C9.96675 10.7212 10.3239 11.3894 10.8484 11.9139C11.3728 12.4383 12.041 12.7955 12.7684 12.9402C13.4958 13.0848 14.2498 13.0106 14.9351 12.7268C15.6203 12.4429 16.206 11.9623 16.618 11.3456C17.0301 10.7289 17.25 10.0039 17.25 9.26221C17.249 8.26796 16.8536 7.31474 16.1505 6.6117C15.4475 5.90866 14.4942 5.51324 13.5 5.51221Z" fill="#3C50E0"/>
<path d="M43.785 27.4878C43.6749 27.4876 43.5652 27.4758 43.4576 27.4527C43.0692 27.3663 42.7312 27.1291 42.5177 26.7934C42.3043 26.4577 42.2329 26.0509 42.3194 25.6626C42.4168 25.224 42.4144 24.7692 42.3125 24.3316C42.2106 23.8941 42.0117 23.485 41.7305 23.1346C41.4493 22.7842 41.093 22.5014 40.6879 22.3072C40.2828 22.1129 39.8393 22.0121 39.39 22.0122H33C32.6022 22.0122 32.2206 21.8542 31.9393 21.5729C31.658 21.2916 31.5 20.91 31.5 20.5122C31.5 20.1144 31.658 19.7329 31.9393 19.4515C32.2206 19.1702 32.6022 19.0122 33 19.0122H39.39C40.2884 19.0122 41.1753 19.2139 41.9853 19.6025C42.7953 19.9911 43.5077 20.5567 44.0698 21.2575C44.632 21.9583 45.0296 22.7764 45.2332 23.6514C45.4369 24.5264 45.4414 25.436 45.2465 26.313C45.1726 26.6457 44.9876 26.9434 44.7219 27.1569C44.4563 27.3704 44.1258 27.4872 43.785 27.4878Z" fill="#3C50E0"/>
<path d="M34.5 16.0122C33.165 16.0122 31.8599 15.6163 30.7499 14.8746C29.6399 14.1329 28.7747 13.0787 28.2638 11.8453C27.7529 10.6119 27.6193 9.25472 27.8797 7.94535C28.1402 6.63598 28.783 5.43324 29.727 4.48924C30.671 3.54523 31.8738 2.90236 33.1831 2.64191C34.4925 2.38146 35.8497 2.51513 37.0831 3.02602C38.3165 3.53691 39.3707 4.40208 40.1124 5.51211C40.8541 6.62214 41.25 7.92719 41.25 9.26221C41.248 11.0518 40.5362 12.7675 39.2708 14.033C38.0053 15.2984 36.2896 16.0102 34.5 16.0122ZM34.5 5.51221C33.7583 5.51221 33.0333 5.73214 32.4166 6.1442C31.7999 6.55625 31.3193 7.14192 31.0355 7.82715C30.7516 8.51237 30.6774 9.26637 30.8221 9.9938C30.9668 10.7212 31.3239 11.3894 31.8484 11.9139C32.3728 12.4383 33.041 12.7955 33.7684 12.9402C34.4958 13.0848 35.2498 13.0106 35.9351 12.7268C36.6203 12.4429 37.206 11.9623 37.618 11.3456C38.0301 10.7289 38.25 10.0039 38.25 9.26221C38.249 8.26796 37.8535 7.31474 37.1505 6.6117C36.4475 5.90866 35.4942 5.51324 34.5 5.51221Z" fill="#3C50E0"/>
</svg>
