<svg width="48" height="48" viewBox="0 0 48 48" fill="none" xmlns="http://www.w3.org/2000/svg">
<path d="M42 46.5H15C13.8069 46.4987 12.6631 46.0242 11.8195 45.1805C10.9758 44.3369 10.5013 43.1931 10.5 42V27C10.5013 25.8069 10.9758 24.6631 11.8195 23.8195C12.6631 22.9758 13.8069 22.5013 15 22.5H42C43.1931 22.5013 44.3369 22.9758 45.1805 23.8195C46.0242 24.6631 46.4987 25.8069 46.5 27V42C46.4987 43.1931 46.0242 44.3369 45.1805 45.1805C44.3369 46.0242 43.1931 46.4987 42 46.5ZM15 25.5C14.6023 25.5004 14.221 25.6585 13.9397 25.9397C13.6585 26.221 13.5004 26.6023 13.5 27V42C13.5004 42.3977 13.6585 42.779 13.9397 43.0603C14.221 43.3415 14.6023 43.4996 15 43.5H42C42.3977 43.4996 42.779 43.3415 43.0603 43.0603C43.3415 42.779 43.4996 42.3977 43.5 42V27C43.4996 26.6023 43.3415 26.221 43.0603 25.9397C42.779 25.6585 42.3977 25.5004 42 25.5H15Z" fill="#3C50E0"/>
<path d="M28.5 39C27.61 39 26.74 38.7361 25.9999 38.2416C25.2599 37.7471 24.6831 37.0443 24.3425 36.2221C24.0019 35.3998 23.9128 34.495 24.0865 33.6221C24.2601 32.7492 24.6887 31.9474 25.318 31.318C25.9474 30.6887 26.7492 30.2601 27.6221 30.0865C28.495 29.9128 29.3998 30.0019 30.2221 30.3425C31.0443 30.6831 31.7471 31.2599 32.2416 31.9999C32.7361 32.74 33 33.61 33 34.5C32.9987 35.6931 32.5242 36.8369 31.6805 37.6805C30.8369 38.5242 29.6931 38.9987 28.5 39ZM28.5 33C28.2033 33 27.9133 33.088 27.6666 33.2528C27.42 33.4176 27.2277 33.6519 27.1142 33.926C27.0007 34.2001 26.9709 34.5017 27.0288 34.7926C27.0867 35.0836 27.2296 35.3509 27.4393 35.5607C27.6491 35.7704 27.9164 35.9133 28.2074 35.9712C28.4983 36.0291 28.7999 35.9994 29.074 35.8858C29.3481 35.7723 29.5824 35.58 29.7472 35.3334C29.912 35.0867 30 34.7967 30 34.5C29.9996 34.1023 29.8415 33.721 29.5603 33.4397C29.279 33.1585 28.8977 33.0004 28.5 33Z" fill="#3C50E0"/>
<path d="M6 39C4.80693 38.9987 3.6631 38.5242 2.81947 37.6805C1.97584 36.8369 1.50131 35.6931 1.5 34.5V6C1.50131 4.80693 1.97584 3.6631 2.81947 2.81947C3.6631 1.97584 4.80693 1.50131 6 1.5H37.5C38.6931 1.50131 39.8369 1.97584 40.6805 2.81947C41.5242 3.6631 41.9987 4.80693 42 6V18.9873C42 19.3851 41.842 19.7667 41.5607 20.048C41.2794 20.3293 40.8978 20.4873 40.5 20.4873C40.1022 20.4873 39.7206 20.3293 39.4393 20.048C39.158 19.7667 39 19.3851 39 18.9873V6C38.9996 5.60228 38.8415 5.22096 38.5603 4.93973C38.279 4.65851 37.8977 4.50036 37.5 4.5H6C5.60228 4.50036 5.22096 4.65851 4.93973 4.93973C4.65851 5.22096 4.50036 5.60228 4.5 6V34.5C4.50036 34.8977 4.65851 35.279 4.93973 35.5603C5.22096 35.8415 5.60228 35.9996 6 36C6.39782 36 6.77936 36.158 7.06066 36.4393C7.34196 36.7206 7.5 37.1022 7.5 37.5C7.5 37.8978 7.34196 38.2794 7.06066 38.5607C6.77936 38.842 6.39782 39 6 39Z" fill="#3C50E0"/>
<path d="M30 15H25.5C24.7046 14.9991 23.9421 14.6827 23.3797 14.1203C22.8173 13.5579 22.5009 12.7954 22.5 12V3C22.5 2.60218 22.658 2.22064 22.9393 1.93934C23.2206 1.65804 23.6022 1.5 24 1.5H31.5C31.8978 1.5 32.2794 1.65804 32.5607 1.93934C32.842 2.22064 33 2.60218 33 3V12C32.9991 12.7954 32.6827 13.5579 32.1203 14.1203C31.5579 14.6827 30.7954 14.9991 30 15ZM25.5 4.5V12H30.0022L30 4.5H25.5Z" fill="#3C50E0"/>
</svg>
