<svg width="48" height="48" viewBox="0 0 48 48" fill="none" xmlns="http://www.w3.org/2000/svg">
<path d="M42 36.75H6C4.80693 36.7487 3.6631 36.2742 2.81947 35.4305C1.97584 34.5869 1.50131 33.4431 1.5 32.25V8.25C1.50131 7.05693 1.97584 5.9131 2.81947 5.06947C3.6631 4.22584 4.80693 3.75131 6 3.75H24C24.3978 3.75 24.7794 3.90804 25.0607 4.18934C25.342 4.47064 25.5 4.85218 25.5 5.25C25.5 5.64782 25.342 6.02936 25.0607 6.31066C24.7794 6.59196 24.3978 6.75 24 6.75H6C5.60228 6.75036 5.22096 6.90851 4.93973 7.18973C4.65851 7.47096 4.50036 7.85228 4.5 8.25V32.25C4.50036 32.6477 4.65851 33.029 4.93973 33.3103C5.22096 33.5915 5.60228 33.7496 6 33.75H42C42.3977 33.7496 42.779 33.5915 43.0603 33.3103C43.3415 33.029 43.4996 32.6477 43.5 32.25V21.7302C43.5 21.3324 43.658 20.9508 43.9393 20.6695C44.2206 20.3882 44.6022 20.2302 45 20.2302C45.3978 20.2302 45.7794 20.3882 46.0607 20.6695C46.342 20.9508 46.5 21.3324 46.5 21.7302V32.25C46.4987 33.4431 46.0242 34.5869 45.1805 35.4305C44.3369 36.2742 43.1931 36.7487 42 36.75Z" fill="#3C50E0"/>
<path d="M31.5 44.25H16.5C16.2781 44.2499 16.059 44.2005 15.8585 44.1055C15.658 44.0105 15.4811 43.8722 15.3405 43.7006C15.1999 43.5289 15.0991 43.3282 15.0454 43.1129C14.9917 42.8976 14.9865 42.6731 15.03 42.4555L16.53 34.9555C16.598 34.6157 16.7817 34.3099 17.0496 34.0902C17.3176 33.8704 17.6534 33.7502 18 33.75H30C30.3466 33.7502 30.6824 33.8704 30.9504 34.0902C31.2184 34.3099 31.402 34.6157 31.47 34.9555L32.97 42.4555C33.0136 42.6731 33.0083 42.8976 32.9546 43.1129C32.9009 43.3282 32.8002 43.5289 32.6595 43.7006C32.5189 43.8722 32.342 44.0105 32.1415 44.1055C31.941 44.2005 31.7219 44.2499 31.5 44.25ZM18.33 41.25H29.67L28.77 36.75H19.229L18.33 41.25Z" fill="#3C50E0"/>
<path d="M37.5 44.25H10.5C10.1022 44.25 9.72064 44.092 9.43934 43.8107C9.15804 43.5294 9 43.1478 9 42.75C9 42.3522 9.15804 41.9706 9.43934 41.6893C9.72064 41.408 10.1022 41.25 10.5 41.25H37.5C37.8978 41.25 38.2794 41.408 38.5607 41.6893C38.842 41.9706 39 42.3522 39 42.75C39 43.1478 38.842 43.5294 38.5607 43.8107C38.2794 44.092 37.8978 44.25 37.5 44.25Z" fill="#3C50E0"/>
<path d="M15 23.25H9C8.60218 23.25 8.22064 23.092 7.93934 22.8107C7.65804 22.5294 7.5 22.1478 7.5 21.75C7.5 21.3522 7.65804 20.9706 7.93934 20.6893C8.22064 20.408 8.60218 20.25 9 20.25H15C15.3978 20.25 15.7794 20.408 16.0607 20.6893C16.342 20.9706 16.5 21.3522 16.5 21.75C16.5 22.1478 16.342 22.5294 16.0607 22.8107C15.7794 23.092 15.3978 23.25 15 23.25Z" fill="#3C50E0"/>
<path d="M21 29.25H9C8.60218 29.25 8.22064 29.092 7.93934 28.8107C7.65804 28.5294 7.5 28.1478 7.5 27.75C7.5 27.3522 7.65804 26.9706 7.93934 26.6893C8.22064 26.408 8.60218 26.25 9 26.25H21C21.3978 26.25 21.7794 26.408 22.0607 26.6893C22.342 26.9706 22.5 27.3522 22.5 27.75C22.5 28.1478 22.342 28.5294 22.0607 28.8107C21.7794 29.092 21.3978 29.25 21 29.25Z" fill="#3C50E0"/>
<path d="M33 17.25C32.803 17.2502 32.6079 17.2115 32.4259 17.1361C32.2439 17.0607 32.0786 16.95 31.9395 16.8105L28.1895 13.0605C28.0501 12.9213 27.9396 12.756 27.8642 12.574C27.7888 12.392 27.7499 12.197 27.7499 12C27.7499 11.803 27.7888 11.608 27.8642 11.426C27.9396 11.244 28.0501 11.0787 28.1895 10.9395L31.9395 7.1895C32.0779 7.04623 32.2434 6.93196 32.4264 6.85335C32.6094 6.77473 32.8062 6.73335 33.0054 6.73162C33.2046 6.72989 33.4021 6.76785 33.5864 6.84327C33.7708 6.91869 33.9382 7.03007 34.0791 7.17091C34.2199 7.31175 34.3313 7.47922 34.4067 7.66357C34.4821 7.84791 34.5201 8.04543 34.5184 8.2446C34.5166 8.44377 34.4753 8.6406 34.3966 8.82361C34.318 9.00661 34.2038 9.17213 34.0605 9.3105L31.3711 12L34.0605 14.6895C34.2702 14.8993 34.413 15.1665 34.4709 15.4575C34.5287 15.7484 34.499 16.0499 34.3855 16.324C34.272 16.598 34.0798 16.8323 33.8332 16.9971C33.5866 17.1619 33.2966 17.2499 33 17.25Z" fill="#3C50E0"/>
<path d="M37.5015 18.7507C37.2693 18.7503 37.0404 18.6961 36.8326 18.5924C36.6249 18.4887 36.444 18.3383 36.3041 18.153C36.1641 17.9677 36.0691 17.7525 36.0262 17.5243C35.9834 17.2961 35.994 17.061 36.0571 16.8376L39.0571 6.33761C39.1665 5.95494 39.4235 5.63141 39.7714 5.43818C40.1194 5.24495 40.5298 5.19786 40.9125 5.30726C41.2952 5.41666 41.6187 5.6736 41.8119 6.02154C42.0051 6.36949 42.0522 6.77994 41.9428 7.16261L38.9428 17.6626C38.853 17.9757 38.6638 18.2511 38.4039 18.4474C38.1439 18.6436 37.8272 18.7501 37.5015 18.7507Z" fill="#3C50E0"/>
</svg>
