<svg width="48" height="48" viewBox="0 0 48 48" fill="none" xmlns="http://www.w3.org/2000/svg">
<path d="M38.1832 14.3921H24.1732L24.5198 12.315C24.6777 11.3689 24.6275 10.3997 24.3729 9.47489C24.1182 8.55009 23.6651 7.69188 23.0451 6.95994C22.4252 6.22801 21.6532 5.63993 20.7829 5.23661C19.9125 4.83329 18.9648 4.62441 18.0056 4.6245H14.2648C13.9096 4.62452 13.566 4.75054 13.2951 4.98014C13.0241 5.20974 12.8434 5.52803 12.7851 5.87835L11.3657 14.3921H6.125C5.72718 14.3921 5.34564 14.5501 5.06434 14.8314C4.78304 15.1127 4.625 15.4942 4.625 15.8921V41.937C4.625 42.3348 4.78304 42.7164 5.06434 42.9977C5.34564 43.279 5.72718 43.437 6.125 43.437H12.6362C13.034 43.437 13.4156 43.279 13.6969 42.9977C13.9782 42.7164 14.1362 42.3348 14.1362 41.937V40.182H33.0341C34.9603 40.1737 36.8198 39.4751 38.2749 38.2129C39.7301 36.9508 40.6845 35.2087 40.9649 33.303L42.8911 19.8207C42.9876 19.1461 42.9381 18.4587 42.7457 17.8049C42.5534 17.1512 42.2228 16.5464 41.7764 16.0316C41.3299 15.5168 40.778 15.1039 40.1581 14.821C39.5381 14.5381 38.8646 14.3918 38.1832 14.3919V14.3921ZM11.1362 40.437H7.625V17.3921H11.1362V40.437ZM37.9957 32.8784C37.8202 34.0706 37.2231 35.1605 36.3128 35.9501C35.4025 36.7398 34.2392 37.1769 33.0341 37.1822H14.1362V16.0152L15.5351 7.6245H18.0056C18.5291 7.62465 19.0463 7.73881 19.5213 7.95906C19.9962 8.17931 20.4175 8.50036 20.7558 8.8999C21.0942 9.29943 21.3414 9.76785 21.4804 10.2726C21.6194 10.7773 21.6467 11.3063 21.5606 11.8227L20.9234 15.6461C20.9163 15.6884 20.931 15.7275 20.9276 15.7697C20.9241 15.8118 20.9029 15.8486 20.9029 15.8921C20.9109 15.9502 20.9225 16.0078 20.9377 16.0646C20.9536 16.2595 21.0143 16.4481 21.115 16.6158C21.1596 16.6981 21.2121 16.7759 21.2715 16.8482C21.4577 17.074 21.7102 17.2354 21.9934 17.3094C22.0462 17.3335 22.1006 17.3543 22.1561 17.3717C22.2002 17.3795 22.2406 17.3643 22.2842 17.3681C22.3255 17.3715 22.3608 17.3921 22.4029 17.3921H38.1828C38.4344 17.392 38.6831 17.4461 38.9119 17.5505C39.1408 17.6549 39.3446 17.8073 39.5095 17.9973C39.6743 18.1873 39.7964 18.4106 39.8675 18.6519C39.9386 18.8932 39.957 19.147 39.9215 19.3961L37.9957 32.8784Z" fill="#3C50E0"/>
</svg>
