<svg width="48" height="48" viewBox="0 0 48 48" fill="none" xmlns="http://www.w3.org/2000/svg">
<path fill-rule="evenodd" clip-rule="evenodd" d="M23.45 11.5C17.4914 11.5 12.5666 16.3432 12.3104 22.4972L12.2506 23.9348H8.6C5.82168 23.9348 3.5 26.261 3.5 29.2174C3.5 32.1737 5.82168 34.5 8.6 34.5H37.2C41.1934 34.5 44.5 31.1615 44.5 26.9565C44.5 22.7515 41.1934 19.413 37.2 19.413H34.0925L33.709 18.487C31.9991 14.3584 28.0334 11.5 23.45 11.5ZM9.44272 20.9348C10.4189 13.9334 16.2877 8.5 23.45 8.5C28.9691 8.5 33.7254 11.7327 36.0587 16.413H37.2C42.9269 16.413 47.5 21.1724 47.5 26.9565C47.5 32.7407 42.9269 37.5 37.2 37.5H8.6C4.08817 37.5 0.5 33.7529 0.5 29.2174C0.5 24.6819 4.08817 20.9348 8.6 20.9348H9.44272Z" fill="#3C50E0"/>
</svg>
