<svg width="48" height="48" viewBox="0 0 48 48" fill="none" xmlns="http://www.w3.org/2000/svg">
<path d="M38.1834 14.3921H24.1734L24.52 12.315C24.6779 11.3689 24.6278 10.3997 24.3731 9.4749C24.1185 8.5501 23.6654 7.69189 23.0454 6.95995C22.4254 6.22802 21.6534 5.63994 20.7831 5.23661C19.9128 4.83329 18.9651 4.62442 18.0058 4.62451H14.265C13.9099 4.62453 13.5662 4.75055 13.2953 4.98015C13.0244 5.20975 12.8437 5.52804 12.7854 5.87836L11.3659 14.3921H6.12524C5.72742 14.3921 5.34589 14.5501 5.06458 14.8314C4.78328 15.1127 4.62524 15.4942 4.62524 15.8921V41.937C4.62524 42.3348 4.78328 42.7164 5.06458 42.9977C5.34589 43.279 5.72742 43.437 6.12524 43.437H12.6364C13.0343 43.437 13.4158 43.279 13.6971 42.9977C13.9784 42.7164 14.1364 42.3348 14.1364 41.937V40.182H33.0343C34.9606 40.1737 36.82 39.4751 38.2752 38.2129C39.7303 36.9508 40.6847 35.2087 40.9651 33.303L42.8913 19.8207C42.9879 19.1461 42.9383 18.4587 42.746 17.8049C42.5537 17.1512 42.2231 16.5464 41.7766 16.0316C41.3302 15.5168 40.7783 15.1039 40.1583 14.821C39.5384 14.5381 38.8648 14.3918 38.1834 14.3919V14.3921ZM11.1364 40.437H7.62524V17.3921H11.1364V40.437ZM37.9959 32.8784C37.8205 34.0706 37.2234 35.1605 36.313 35.9501C35.4027 36.7398 34.2394 37.1769 33.0343 37.1822H14.1364V16.0152L15.5353 7.62451H18.0058C18.5294 7.62465 19.0466 7.73882 19.5215 7.95907C19.9965 8.17932 20.4178 8.50037 20.7561 8.8999C21.0944 9.29943 21.3416 9.76786 21.4806 10.2726C21.6196 10.7774 21.647 11.3063 21.5608 11.8227L20.9236 15.6461C20.9166 15.6884 20.9313 15.7275 20.9278 15.7697C20.9244 15.8118 20.9031 15.8486 20.9031 15.8921C20.9111 15.9502 20.9227 16.0078 20.9379 16.0646C20.9539 16.2595 21.0145 16.4481 21.1152 16.6158C21.1599 16.6981 21.2123 16.7759 21.2718 16.8482C21.4579 17.074 21.7105 17.2354 21.9936 17.3094C22.0465 17.3335 22.1008 17.3543 22.1563 17.3717C22.2004 17.3795 22.2408 17.3643 22.2844 17.3681C22.3257 17.3715 22.3611 17.3921 22.4031 17.3921H38.1831C38.4347 17.392 38.6833 17.4461 38.9122 17.5505C39.1411 17.6549 39.3448 17.8073 39.5097 17.9973C39.6746 18.1873 39.7967 18.4106 39.8678 18.6519C39.9389 18.8932 39.9573 19.147 39.9217 19.3961L37.9959 32.8784Z" fill="#3C50E0"/>
</svg>
