<svg width="48" height="48" viewBox="0 0 48 48" fill="none" xmlns="http://www.w3.org/2000/svg">
<path d="M9 36C8.60218 36 8.22064 35.842 7.93934 35.5607C7.65804 35.2794 7.5 34.8978 7.5 34.5C7.48011 31.2224 6.52109 28.0193 4.73655 25.2701C2.86625 22.7029 1.74575 19.6667 1.5 16.5C1.5 12.5218 3.08035 8.70644 5.8934 5.8934C8.70644 3.08035 12.5218 1.5 16.5 1.5C20.4782 1.5 24.2936 3.08035 27.1066 5.8934C29.9196 8.70644 31.5 12.5218 31.5 16.5C31.2542 19.6667 30.1338 22.7029 28.2635 25.2701C26.4791 28.0188 25.5201 31.2214 25.5 34.4985C25.5 34.8963 25.342 35.2779 25.0607 35.5592C24.7794 35.8405 24.3978 35.9985 24 35.9985L9 36ZM10.4413 32.9985L22.5586 33C22.8321 29.6702 23.9238 26.4594 25.7365 23.6529C27.2788 21.5575 28.2329 19.088 28.5 16.5C28.5 13.3174 27.2357 10.2652 24.9853 8.01472C22.7348 5.76428 19.6826 4.5 16.5 4.5C13.3174 4.5 10.2652 5.76428 8.01472 8.01472C5.76428 10.2652 4.5 13.3174 4.5 16.5C4.76714 19.088 5.72122 21.5575 7.26345 23.6529C9.07621 26.4589 10.1678 29.6691 10.4413 32.9985Z" fill="#3C50E0"/>
<path d="M22.5 42H10.5C10.1022 42 9.72064 41.842 9.43934 41.5607C9.15804 41.2794 9 40.8978 9 40.5C9 40.1022 9.15804 39.7206 9.43934 39.4393C9.72064 39.158 10.1022 39 10.5 39H22.5C22.8978 39 23.2794 39.158 23.5607 39.4393C23.842 39.7206 24 40.1022 24 40.5C24 40.8978 23.842 41.2794 23.5607 41.5607C23.2794 41.842 22.8978 42 22.5 42Z" fill="#3C50E0"/>
<path d="M42 46.5H27C26.6022 46.5 26.2206 46.342 25.9393 46.0607C25.658 45.7794 25.5 45.3978 25.5 45C25.5 44.6022 25.658 44.2206 25.9393 43.9393C26.2206 43.658 26.6022 43.5 27 43.5H42C42.3977 43.4996 42.779 43.3415 43.0603 43.0603C43.3415 42.779 43.4996 42.3977 43.5 42V18C43.4996 17.6023 43.3415 17.221 43.0603 16.9397C42.779 16.6585 42.3977 16.5004 42 16.5H35.3087C34.9108 16.5 34.5293 16.342 34.248 16.0607C33.9667 15.7794 33.8087 15.3978 33.8087 15C33.8087 14.6022 33.9667 14.2206 34.248 13.9393C34.5293 13.658 34.9108 13.5 35.3087 13.5H42C43.1931 13.5013 44.3369 13.9758 45.1805 14.8195C46.0242 15.6631 46.4987 16.8069 46.5 18V42C46.4987 43.1931 46.0242 44.3369 45.1805 45.1805C44.3369 46.0242 43.1931 46.4987 42 46.5Z" fill="#3C50E0"/>
<path d="M39 34.5H33C32.6022 34.5 32.2206 34.342 31.9393 34.0607C31.658 33.7794 31.5 33.3978 31.5 33C31.5 32.6022 31.658 32.2206 31.9393 31.9393C32.2206 31.658 32.6022 31.5 33 31.5H39C39.3978 31.5 39.7794 31.658 40.0607 31.9393C40.342 32.2206 40.5 32.6022 40.5 33C40.5 33.3978 40.342 33.7794 40.0607 34.0607C39.7794 34.342 39.3978 34.5 39 34.5Z" fill="#3C50E0"/>
<path d="M39 40.5H30C29.6022 40.5 29.2206 40.342 28.9393 40.0607C28.658 39.7794 28.5 39.3978 28.5 39C28.5 38.6022 28.658 38.2206 28.9393 37.9393C29.2206 37.658 29.6022 37.5 30 37.5H39C39.3978 37.5 39.7794 37.658 40.0607 37.9393C40.342 38.2206 40.5 38.6022 40.5 39C40.5 39.3978 40.342 39.7794 40.0607 40.0607C39.7794 40.342 39.3978 40.5 39 40.5Z" fill="#3C50E0"/>
</svg>
