<svg width="165" height="55" viewBox="0 0 165 55" fill="none" xmlns="http://www.w3.org/2000/svg"><path d="M90.335 35.371c-.273 0-.567-.069-.77-.345l-8.742-11.519v11.75H78.83V20.788a1.04 1.04 0 0 1 1.02-1.037c.316 0 .588.092.791.369l8.72 11.496V19.913h1.992v14.445c0 .599-.475 1.013-1.018 1.013m11.674.139c-1.992 0-4.076-.415-6.024-1.152l.476-1.66c1.79.577 3.737.992 5.548.992 2.514 0 3.827-.899 3.827-2.166 0-1.152-1.019-1.728-4.529-3.387-3.51-1.658-4.891-2.718-4.891-4.791 0-2.603 1.993-3.663 5.751-3.663 1.563 0 3.963.323 5.345.737l-.317 1.705c-1.518-.369-3.419-.622-4.982-.622-2.65 0-3.736.506-3.736 1.774 0 1.244.792 1.773 4.506 3.502 3.918 1.82 4.914 2.741 4.914 4.63 0 2.742-2.582 4.1-5.888 4.1m11.589-15.595h2.061v15.343h-2.061V19.914zM128.91 28.3h-5.119v5.206h5.119c1.744 0 2.808-1.106 2.808-2.65 0-1.451-1.11-2.557-2.808-2.557zm-.997-6.636h-4.122v4.907h4.122c1.654 0 2.854-1.06 2.854-2.534 0-1.451-1.042-2.373-2.854-2.373zm1.019 13.593h-6.159a1.029 1.029 0 0 1-1.042-1.037V20.95c0-.553.453-1.036 1.042-1.036h5.095c3.125 0 4.982 1.543 4.982 3.962 0 1.313-.77 2.534-1.948 3.248 1.745.53 2.922 1.982 2.922 3.732 0 2.442-2.015 4.4-4.891 4.4m11.579.001c-.565 0-1.018-.484-1.018-1.037V19.914h2.06V33.39h8.198v1.866h-9.24zm19.009.253c-4.212 0-6.748-1.567-6.748-4.723 0-1.497.838-2.926 2.469-3.594-1.314-.83-1.993-2.004-1.993-3.294 0-2.857 2.197-4.216 6.318-4.216 1.382 0 3.329.161 4.96.53l-.227 1.704c-1.721-.276-3.329-.437-4.892-.437-2.672 0-4.099.737-4.099 2.511 0 1.405 1.314 2.511 3.058 2.511h3.532c.499 0 .884.392.884.875a.878.878 0 0 1-.884.899h-3.803c-1.994 0-3.261.99-3.261 2.511 0 2.235 2.06 2.903 4.642 2.903 1.404 0 3.306-.184 4.845-.553l.295 1.681c-1.472.415-3.397.692-5.095.692M67.773 22.791l3.609 9.062-5.451-4.368 1.842-4.694zm6.411 11.15l-5.55-13.592c-.16-.391-.477-.599-.862-.599a.925.925 0 0 0-.883.6l-6.093 14.907h2.084l2.413-6.146 7.197 5.915c.29.238.498.346.77.346.544 0 1.02-.414 1.02-1.013a1.37 1.37 0 0 0-.096-.419zm-19.83-6.708c0 15.04-12.167 27.233-27.177 27.233C12.168 54.466 0 42.274 0 27.233 0 12.193 12.168 0 27.177 0c15.01 0 27.177 12.193 27.177 27.233z" fill="#5E6882"/><path d="M27.634 16.636l7.033 17.394-10.623-8.386 3.59-9.008zm12.494 21.4L29.31 11.948c-.309-.752-.926-1.15-1.676-1.15-.75 0-1.413.398-1.722 1.15L14.04 40.564h4.06l4.7-11.799L36.828 40.12c.564.458.971.664 1.5.664 1.06 0 1.986-.796 1.986-1.945 0-.187-.066-.483-.185-.803z" fill="#fff"/></svg>