<svg width="68" height="41" viewBox="0 0 68 41" fill="none" xmlns="http://www.w3.org/2000/svg"><path fill-rule="evenodd" clip-rule="evenodd" d="M19.327 14.958c0 .834.09 1.51.246 2.005.179.496.402 1.037.715 1.622.112.18.157.36.157.518 0 .226-.134.45-.425.676l-1.41.946a1.068 1.068 0 0 1-.58.203c-.224 0-.448-.113-.672-.315a6.965 6.965 0 0 1-.805-1.06c-.224-.382-.447-.81-.693-1.328-1.745 2.072-3.937 3.108-6.577 3.108-1.879 0-3.377-.54-4.473-1.621-1.096-1.082-1.656-2.523-1.656-4.326 0-1.915.671-3.469 2.036-4.64 1.364-1.172 3.176-1.758 5.48-1.758.76 0 1.543.068 2.371.18.828.113 1.678.294 2.572.496V8.02c0-1.712-.357-2.906-1.05-3.605-.717-.698-1.925-1.036-3.647-1.036a10.1 10.1 0 0 0-2.416.293 17.66 17.66 0 0 0-2.415.766 6.39 6.39 0 0 1-.783.293 1.364 1.364 0 0 1-.358.067c-.313 0-.47-.225-.47-.698V2.996c0-.36.045-.63.157-.788.111-.158.313-.316.626-.473C6.04 1.329 6.979.99 8.075.72c1.096-.293 2.26-.428 3.49-.428 2.662 0 4.608.608 5.86 1.825 1.23 1.216 1.857 3.063 1.857 5.541v7.3h.045zm-9.082 3.424c.738 0 1.499-.135 2.304-.405.805-.27 1.521-.766 2.125-1.442.358-.428.626-.9.76-1.442.135-.54.224-1.194.224-1.96v-.946a18.554 18.554 0 0 0-2.058-.383 16.743 16.743 0 0 0-2.102-.135c-1.499 0-2.595.293-3.333.901-.738.609-1.096 1.465-1.096 2.591 0 1.059.268 1.847.827 2.388.537.563 1.32.833 2.35.833z" fill="#5E6882"/><path d="M28.207 20.815c-.403 0-.671-.067-.85-.225-.179-.135-.336-.45-.47-.878L21.631 2.297c-.135-.45-.202-.744-.202-.901 0-.36.18-.563.537-.563h2.192c.425 0 .716.067.873.225.179.135.313.45.447.878l3.758 14.914 3.49-14.914c.111-.45.245-.743.424-.878.18-.135.492-.225.895-.225h1.79c.425 0 .715.067.894.225.18.135.336.45.425.878l3.534 15.094 3.87-15.094c.135-.45.291-.743.448-.878.179-.135.47-.225.872-.225h2.08c.358 0 .56.18.56.563 0 .096-.017.192-.036.302l-.01.058a3.224 3.224 0 0 1-.156.563l-5.39 17.414c-.135.45-.291.743-.47.879-.18.135-.47.225-.85.225h-1.924c-.425 0-.716-.068-.895-.225-.179-.158-.335-.45-.425-.901l-3.467-14.53-3.445 14.507c-.111.45-.246.743-.425.901-.179.158-.492.225-.894.225h-1.924zm28.743.609c-1.163 0-2.326-.136-3.444-.406-1.119-.27-1.991-.563-2.573-.901-.358-.203-.604-.428-.693-.63a1.6 1.6 0 0 1-.134-.631v-1.15c0-.473.179-.698.514-.698.134 0 .269.023.403.068.086.029.2.077.331.131l.228.094c.76.338 1.588.608 2.46.789.895.18 1.768.27 2.662.27 1.41 0 2.506-.248 3.266-.744.76-.495 1.163-1.216 1.163-2.14 0-.63-.201-1.149-.604-1.577-.402-.428-1.163-.81-2.259-1.171l-3.243-1.014c-1.633-.518-2.841-1.284-3.58-2.298-.737-.99-1.118-2.095-1.118-3.266 0-.946.202-1.78.604-2.5a5.78 5.78 0 0 1 1.61-1.848c.672-.518 1.432-.9 2.327-1.171.895-.27 1.834-.383 2.819-.383.492 0 1.006.022 1.498.09.515.067.984.158 1.454.248.448.112.873.225 1.275.36.403.135.716.27.94.406.313.18.536.36.67.563.135.18.202.428.202.743v1.059c0 .473-.179.72-.514.72-.18 0-.47-.09-.85-.27-1.275-.585-2.707-.878-4.295-.878-1.275 0-2.282.203-2.975.63-.694.429-1.052 1.082-1.052 2.006 0 .63.224 1.171.672 1.6.447.427 1.275.855 2.46 1.238l3.176 1.014c1.61.518 2.774 1.239 3.468 2.163.693.923 1.028 1.982 1.028 3.153 0 .97-.2 1.848-.581 2.614a6.049 6.049 0 0 1-1.633 1.982c-.694.563-1.521.969-2.483 1.262a10.566 10.566 0 0 1-3.199.473zm4.228 10.948c-7.36 5.474-18.052 8.38-27.245 8.38-12.884 0-24.494-4.798-33.262-12.773-.693-.63-.067-1.487.76-.991 9.485 5.542 21.183 8.898 33.285 8.898 8.164 0 17.134-1.712 25.388-5.226 1.23-.563 2.282.81 1.074 1.712z" fill="#5E6882"/><path d="M55.63 28.565c2.394-.293 7.673-.924 8.612.293.94 1.194-1.051 6.217-1.946 8.448-.268.675.313.946.917.428 3.937-3.335 4.966-10.296 4.16-11.31-.804-.99-7.716-1.847-11.922 1.127-.648.473-.536 1.104.18 1.014z" fill="#5E6882"/></svg>