<svg width="208" height="38" viewBox="0 0 208 38" fill="none" xmlns="http://www.w3.org/2000/svg"><path fill-rule="evenodd" clip-rule="evenodd" d="M32.724 8.022c.615.33 1.107.866 1.313 1.525l3.118 13.478c.082.7-.082 1.401-.492 1.978l-8.658 10.758c-.452.618-1.15.948-1.888.866H12.33a2.981 2.981 0 0 1-1.887-.866L1.785 25.003a2.61 2.61 0 0 1-.451-1.978L4.41 9.465A2.212 2.212 0 0 1 5.641 7.94l12.515-6.06c.328-.082.698-.082 1.026-.082.328 0 .697.041 1.026.206l12.515 6.018zm-.698 14.426c0 .041.04.041.082.041a.97.97 0 0 1 .738.866.893.893 0 0 1-.82.577c-.082 0-.124 0-.206-.041-.04-.042-.04-.042-.082-.042a.266.266 0 0 1-.11-.026c-.02-.008-.037-.015-.054-.015-.122-.03-.22-.084-.33-.143a4.792 4.792 0 0 0-.121-.063.583.583 0 0 1-.246-.082h-.041a6.87 6.87 0 0 0-1.313-.371h-.041a.464.464 0 0 0-.329.123s0 .042-.04.042l-.329-.042c-.738 2.35-2.339 4.328-4.431 5.606l.123.33s-.041 0-.041.04a.49.49 0 0 0-.041.413c.164.412.369.824.656 1.195v.083a.71.71 0 0 1 .164.206c.123.123.206.247.288.412.04.041.082.082.082.123 0 0 .04 0 .04.042.083.206.083.412.042.618-.041.206-.206.37-.37.453l-.072.026a.704.704 0 0 1-.256.057c-.328 0-.615-.206-.78-.495-.04 0-.04-.041-.04-.041-.021-.02-.031-.041-.042-.062a.216.216 0 0 0-.04-.062c-.083-.123-.124-.288-.165-.453l-.082-.247v-.042c-.123-.453-.328-.865-.533-1.277a.639.639 0 0 0-.329-.248c0-.04 0-.04-.04-.04l-.165-.29-.32.101c-.32.102-.656.21-.993.27a8.18 8.18 0 0 1-2.215.29 9.62 9.62 0 0 1-3.57-.66l-.164.33c0 .02 0 .03-.005.035-.006.006-.016.006-.036.006a.639.639 0 0 0-.329.247c-.205.412-.41.824-.533 1.278l-.082.247c-.02.082-.051.154-.082.227-.03.072-.062.144-.082.226-.041.042-.082.083-.082.124-.041 0-.041.041-.041.041-.164.289-.452.495-.78.495a.758.758 0 0 1-.287-.083.85.85 0 0 1-.328-1.113c.04 0 .04-.04.04-.04.021-.021.031-.042.042-.063.01-.02.02-.04.04-.061.055-.073.1-.145.142-.21.054-.084.1-.156.146-.203a.725.725 0 0 0 .164-.206v-.04c.246-.372.492-.784.657-1.196a.49.49 0 0 0-.042-.412s-.04 0-.04-.041l.205-.289c-.41-.206-.739-.453-1.108-.742-1.6-1.236-2.75-2.926-3.365-4.822l-.37.04s0-.04-.04-.04a.465.465 0 0 0-.328-.124h-.041a7.291 7.291 0 0 0-1.355.371h-.04a.582.582 0 0 0-.247.082 2.7 2.7 0 0 0-.152.06c-.093.037-.196.08-.3.105a.272.272 0 0 1-.053-.008c-.05-.01-.11-.02-.11.008 0 .041 0 .041-.041.041-.082.042-.123.042-.205.042a.762.762 0 0 1-.821-.577.804.804 0 0 1 .656-.948c.024-.024.034-.034.046-.038.01-.003.02-.003.037-.003.048 0 .082-.015.11-.026a.146.146 0 0 1 .054-.016c.082 0 .164-.01.246-.02.082-.01.164-.02.246-.02.082-.042.164-.042.246-.042a7.585 7.585 0 0 0 1.395-.248c.123-.082.247-.164.288-.288 0 0 .04 0 .04-.041l.329-.083c-.37-2.349.164-4.74 1.436-6.76a.909.909 0 0 1 .061-.102.921.921 0 0 0 .062-.103l-.238-.24c.019-.118-.056-.262-.131-.337-.329-.33-.739-.577-1.15-.825l-.245-.123a4.47 4.47 0 0 1-.452-.248c-.04 0-.123-.082-.123-.082s0-.041-.04-.041a.89.89 0 0 1-.165-1.154c.123-.207.328-.289.575-.289.205 0 .41.082.574.206l.041.041c.02.021.041.031.062.042.02.01.04.02.061.04.062.063.113.125.164.186.052.062.103.124.164.186a.48.48 0 0 0 .047.038c.04.032.089.07.117.127.288.33.657.66 1.026.948a.581.581 0 0 0 .246.082.266.266 0 0 0 .11-.026.157.157 0 0 1 .055-.015h.04l.247.165c1.354-1.443 3.118-2.473 5.047-2.885l.21-.036c.413-.07.799-.135 1.185-.17l.04-.33v-.083c.124-.082.165-.206.206-.33 0-.494 0-.947-.082-1.4v-.042c0-.082 0-.165-.041-.247a2.074 2.074 0 0 1-.082-.495v-.206c0-.206.082-.412.246-.577.205-.206.451-.33.698-.289.41.042.738.454.697.866v.247c-.02.083-.03.165-.04.248-.011.082-.021.164-.042.247 0 .041-.01.082-.02.124a.517.517 0 0 0-.02.123v.041c-.083.495-.083.948-.083 1.402.041.123.082.247.205.33v-.042l.041.33c1.929.206 3.816.948 5.334 2.143.165.165.339.33.513.495.175.165.35.33.513.495l.329-.207h.04c.041.042.124.042.165.042.082 0 .164-.042.246-.083.37-.247.738-.577 1.026-.907a.474.474 0 0 1 .046-.038c.04-.031.09-.069.118-.126.082-.124.205-.248.328-.371.041 0 .082-.042.123-.083l.041-.041a.977.977 0 0 1 .575-.206c.205 0 .45.123.574.288.287.371.205.866-.164 1.155a.06.06 0 0 0 .011.033c.008.014.014.024-.011.049a.213.213 0 0 1-.062.041.215.215 0 0 0-.061.041c-.082.042-.154.083-.226.124a4.539 4.539 0 0 1-.226.124l-.246.123c-.41.248-.78.495-1.149.825-.082.082-.123.247-.123.37v.042l-.246.247a11.192 11.192 0 0 1 1.436 3.38c.246 1.195.328 2.432.164 3.627l.329.082a.497.497 0 0 0 .287.289 8.27 8.27 0 0 0 1.395.247h.04c.083.041.165.041.247.041.164 0 .328 0 .492.042.083 0 .165 0 .165.04zm-21.411-8.07l-.008-.009v.042a.22.22 0 0 0 .008-.034zm8.527 7.37l1.107-.537.288-1.195-.78-.99h-1.23l-.78.99.287 1.195 1.108.536zm7.96-.619a7.926 7.926 0 0 0-.164-2.597 8.406 8.406 0 0 0-.985-2.431l-3.078 2.802a.665.665 0 0 0-.164.289c-.082.37.123.742.493.824l3.898 1.113zm-5.745-4.163l3.365-2.39a7.708 7.708 0 0 0-4.637-2.226l.246 4.163c0 .123.041.206.124.288.205.289.615.33.902.165zm-3.241-4.658l-.82.165c-1.437.33-2.75 1.072-3.817 2.102l3.406 2.432.072.026a.704.704 0 0 0 .256.057c.37 0 .698-.289.698-.66l.205-4.121zm-2.79 6.513l-3.037-2.72a8.707 8.707 0 0 0-1.19 5.028l3.98-1.154c.164-.041.247-.083.329-.206a.664.664 0 0 0-.082-.948zm.328 3.544l-4.062.701a8.103 8.103 0 0 0 3.16 4.04l1.558-3.793a.49.49 0 0 0 .041-.412c-.04-.33-.369-.535-.697-.535zm3.488 6.018a8.27 8.27 0 0 0 1.764-.206c.287-.082.533-.124.78-.165l-1.97-3.586c-.123-.123-.205-.206-.328-.288-.288-.165-.616-.083-.82.165l-2.012 3.668c.821.247 1.724.412 2.585.412zm4.308-1.319a7.851 7.851 0 0 0 2.462-2.473c.328-.453.574-.989.78-1.566l-4.104-.7c-.123 0-.246.04-.369.082a.671.671 0 0 0-.37.783l1.6 3.874z" fill="#5E6882"/><path d="M200.093 27.559a4.073 4.073 0 0 0 1.723-.248.918.918 0 0 0 .493-.906c-.041-.412-.287-.783-.657-.907a8.842 8.842 0 0 0-2.01-.907 16.262 16.262 0 0 1-1.888-.824c-.533-.247-.984-.577-1.436-.99a3.93 3.93 0 0 1-.903-1.4c-.246-.619-.328-1.278-.328-1.938a4.285 4.285 0 0 1 1.642-3.503c1.107-.866 2.585-1.278 4.472-1.278.903 0 1.846.082 2.749.288a13.08 13.08 0 0 1 2.093.536l-.78 3.504c-.574-.206-1.108-.33-1.682-.495-.657-.165-1.354-.206-2.011-.206-1.395 0-2.092.371-2.092 1.154 0 .165.041.33.082.495.082.165.205.288.369.412.164.123.41.247.698.412.287.165.697.33 1.189.495.821.288 1.642.66 2.38 1.071a4.5 4.5 0 0 1 1.477 1.154c.37.371.616.825.78 1.36.164.578.246 1.155.246 1.732a3.96 3.96 0 0 1-1.764 3.544c-1.149.783-2.79 1.196-4.924 1.196a12.409 12.409 0 0 1-3.488-.371 25.217 25.217 0 0 1-1.887-.577l.738-3.627a14.9 14.9 0 0 0 2.298.7c.821.041 1.6.124 2.421.124zm-22.609-4.534c-.041-1.236.206-2.473.616-3.627.369-.99.944-1.855 1.682-2.638.698-.7 1.477-1.237 2.38-1.566a7.306 7.306 0 0 1 2.79-.536c2.216 0 3.98.7 5.252 2.06 1.272 1.36 1.929 3.38 1.929 6.018 0 .248 0 .536-.041.866 0 .33-.041.577-.041.824h-10.012c.082.866.533 1.69 1.272 2.185a5.28 5.28 0 0 0 3.036.824c.78 0 1.601-.082 2.38-.206a8.094 8.094 0 0 0 1.929-.618l.615 3.627c-.287.165-.615.247-.944.37-.451.125-.902.248-1.354.29-.492.082-.984.164-1.559.247-.533.04-1.108.082-1.682.082a9.416 9.416 0 0 1-3.693-.618 7.227 7.227 0 0 1-2.585-1.69c-.698-.742-1.19-1.649-1.518-2.597-.287-1.113-.452-2.225-.452-3.297zm10.382-1.69c0-.37-.082-.742-.206-1.113-.082-.37-.287-.66-.492-.948a2.802 2.802 0 0 0-.862-.7 2.737 2.737 0 0 0-1.272-.289c-.451 0-.861.082-1.272.288-.328.165-.656.372-.902.66a2.964 2.964 0 0 0-.575.99 5.422 5.422 0 0 0-.246 1.112h5.827zm-22.404-10.222l4.432-.7v4.616h5.334v3.71h-5.334v5.523c-.042.783.123 1.566.492 2.225.328.536.985.825 2.01.825a8.15 8.15 0 0 0 1.437-.124 7.733 7.733 0 0 0 1.395-.371l.615 3.462c-.574.247-1.19.412-1.805.577-.78.165-1.601.247-2.421.247a7.39 7.39 0 0 1-2.995-.494 4.839 4.839 0 0 1-1.888-1.36c-.492-.618-.821-1.36-1.026-2.143a10.503 10.503 0 0 1-.246-2.762v-13.23zm-17.931 11.912c-.041-1.236.205-2.473.615-3.627.37-.99.944-1.855 1.683-2.638.697-.7 1.477-1.237 2.38-1.566a7.298 7.298 0 0 1 2.79-.536c2.216 0 3.98.7 5.252 2.06 1.272 1.36 1.928 3.38 1.928 6.018 0 .248 0 .536-.041.866-.041.33-.041.577-.041.824h-10.052c.082.866.533 1.69 1.272 2.185a5.275 5.275 0 0 0 3.036.824c.78 0 1.6-.082 2.38-.206a9.045 9.045 0 0 0 1.969-.618l.616 3.627c-.287.165-.616.247-.944.37-.451.125-.903.248-1.354.29-.492.082-.985.164-1.559.247-.534.04-1.108.082-1.683.082a9.41 9.41 0 0 1-3.692-.618 7.218 7.218 0 0 1-2.585-1.69c-.698-.742-1.19-1.649-1.519-2.597-.328-1.113-.492-2.225-.451-3.297zm10.381-1.69a3.55 3.55 0 0 0-.205-1.113c-.082-.37-.287-.66-.492-.948a2.825 2.825 0 0 0-.862-.7 2.74 2.74 0 0 0-1.272-.289 2.74 2.74 0 0 0-1.272.288 2.68 2.68 0 0 0-.862.66 2.979 2.979 0 0 0-.574.99 5.422 5.422 0 0 0-.246 1.112h5.785zm-27.204-5.77a33.185 33.185 0 0 1 2.913-.619 22.802 22.802 0 0 1 3.734-.288c1.108-.041 2.216.165 3.283.536.82.288 1.559.783 2.092 1.442.534.66.903 1.443 1.108 2.267.246.948.328 1.938.328 2.927v8.861h-4.39v-8.284c0-1.443-.205-2.432-.575-3.05-.369-.577-1.066-.907-2.092-.907-.328 0-.657 0-1.026.041-.369 0-.656.041-.944.082v12.118h-4.431V15.565zm-3.119 3.42c-.41-.082-.861-.205-1.395-.288a8.133 8.133 0 0 0-1.723-.165c-.328 0-.657.041-1.026.083a6.26 6.26 0 0 0-.862.165v11.994h-4.431v-14.92c.903-.33 1.846-.578 2.79-.784a13.453 13.453 0 0 1 3.611-.37c.287 0 .574.04.862.04.328 0 .656.042 1.026.124.328.041.656.082 1.025.165.288.041.575.123.862.247l-.739 3.71zm-27.532 4.04c-.041-1.236.205-2.473.615-3.627.37-.99.944-1.855 1.683-2.638.697-.7 1.477-1.237 2.38-1.566a7.298 7.298 0 0 1 2.79-.536c2.215 0 3.98.7 5.252 2.06 1.272 1.36 1.928 3.38 1.928 5.977 0 .247 0 .536-.041.866-.041.33-.041.577-.041.824H104.57c.082.866.534 1.69 1.272 2.185a5.28 5.28 0 0 0 3.037.824c.779 0 1.6-.082 2.38-.206.656-.124 1.313-.33 1.928-.577l.616 3.627c-.288.165-.616.247-.944.37-.451.125-.903.248-1.354.29-.493.082-.985.164-1.559.247-.534.04-1.108.082-1.683.082a9.416 9.416 0 0 1-3.693-.618 7.236 7.236 0 0 1-2.585-1.69c-.697-.742-1.19-1.649-1.518-2.597-.246-1.113-.41-2.184-.41-3.297zm10.422-1.69a3.55 3.55 0 0 0-.205-1.113c-.082-.37-.287-.66-.493-.948a2.81 2.81 0 0 0-.861-.7 2.743 2.743 0 0 0-1.272-.289c-.452 0-.862.082-1.272.288-.328.165-.657.372-.903.66a2.979 2.979 0 0 0-.574.99 5.492 5.492 0 0 0-.247 1.112h5.827zm-17.603 1.443c0-2.886-1.067-4.287-3.16-4.287-.45 0-.902.041-1.353.165-.37.082-.739.247-1.067.453v8.079c.205.041.492.082.82.123.329.042.698.042 1.108.042a3.126 3.126 0 0 0 2.75-1.237 5.93 5.93 0 0 0 .902-3.338zm4.514.165c0 1.154-.164 2.308-.575 3.42a6.97 6.97 0 0 1-1.559 2.597 7.437 7.437 0 0 1-2.544 1.69c-1.108.412-2.257.577-3.447.577-.533 0-1.107-.041-1.682-.082-.574-.041-1.149-.124-1.723-.165-.534-.083-1.067-.165-1.6-.289a5.372 5.372 0 0 1-1.355-.37V8.268l4.432-.7v7.83a9.824 9.824 0 0 1 1.56-.494 8.143 8.143 0 0 1 1.722-.165c1.026 0 2.011.165 2.955.619.82.37 1.559.948 2.133 1.648a7.062 7.062 0 0 1 1.314 2.597c.246 1.03.369 2.184.369 3.338zm-18.71 7.254c-.945.247-1.93.453-2.914.577a22.79 22.79 0 0 1-3.734.288c-1.149.041-2.257-.165-3.324-.536a5.41 5.41 0 0 1-2.092-1.483 6.195 6.195 0 0 1-1.108-2.35c-.246-.948-.328-1.978-.328-2.967v-8.697h4.431v8.202c0 1.443.205 2.473.575 3.091.369.619 1.066.948 2.092.948.328 0 .657 0 1.026-.04.37-.042.656-.042.944-.125V15.03h4.431v15.168zm-25.851-9.48c.451-.495.862-.99 1.354-1.484.451-.536.903-1.03 1.354-1.525.451-.536.862-.99 1.231-1.443.37-.453.739-.865 1.026-1.195h5.252c-1.067 1.195-2.093 2.39-3.078 3.503-1.025 1.113-2.092 2.267-3.282 3.421.657.619 1.272 1.237 1.846 1.938a56.845 56.845 0 0 1 1.847 2.308 41.42 41.42 0 0 1 1.641 2.39c.492.784.903 1.526 1.231 2.185h-5.088c-.328-.536-.697-1.072-1.108-1.69-.41-.618-.861-1.236-1.272-1.896a20.337 20.337 0 0 0-1.477-1.813 9.769 9.769 0 0 0-1.477-1.443v6.883h-4.431V8.27l4.43-.7v13.148z" fill="#5E6882"/></svg>