<svg width="111" height="31" viewBox="0 0 111 31" fill="none" xmlns="http://www.w3.org/2000/svg"><path fill-rule="evenodd" clip-rule="evenodd" d="M9.905.13C4.418 1.073 1.441 4.412.298 10.906c-.374 2.13-.402 7.28-.05 9.295.599 3.421 1.736 5.853 3.556 7.605 1.448 1.394 3.131 2.237 5.547 2.778 1.77.396 5.607.433 7.34.071 1.777-.372 4.242-1.348 4.882-1.933.209-.192.225-.731.225-7.713 0-5.66-.038-7.546-.155-7.667-.114-.119-1.389-.16-4.94-.16-4.18 0-4.812.027-4.989.21-.169.176-.202.61-.202 2.647 0 1.718.046 2.485.154 2.598.107.11.749.16 2.057.16h1.903v5.878l-.353.103c-.195.056-1.28.1-2.41.099-2.493-.005-3.104-.196-4.296-1.343-1.398-1.346-2.126-3.393-2.313-6.506-.32-5.33.848-8.81 3.438-10.24 1.825-1.009 5.33-1.115 8.543-.26.88.234 1.153.264 1.23.134.054-.091.348-1.26.653-2.597l.554-2.432-.285-.24c-.39-.329-2.093-.872-3.517-1.121-1.63-.286-5.65-.368-6.965-.142zm39.31.974c-.23.097-.237 28.926-.007 29.165.234.243 5.548.226 5.743-.019.1-.124.153-2.056.176-6.317l.034-6.138 4.082-.036 4.082-.035v6.192c0 4.638.039 6.232.154 6.353.11.114.933.16 2.884.16 2.31 0 2.76-.032 2.931-.21.181-.188.202-1.687.202-14.497s-.02-14.308-.202-14.496c-.17-.178-.613-.21-2.837-.21-1.57 0-2.735.055-2.883.138-.24.133-.249.336-.249 5.482v5.343h-8.228V6.658c0-3.96-.04-5.363-.155-5.482-.11-.115-.915-.157-2.86-.15-1.489.006-2.779.041-2.867.078zm43.497.122c-.181.188-.202 1.687-.202 14.496 0 12.81.02 14.309.202 14.497.165.172.547.21 2.112.21 2.092 0 2.312-.074 2.316-.778.004-.682.165-.747.783-.315 1.494 1.045 3.28 1.54 5.579 1.545 1.753.005 2.62-.17 3.725-.748 2.393-1.252 3.56-4.115 3.752-9.203.242-6.42-1.563-10.126-5.329-10.943-1.811-.392-4.371-.096-6.117.708-.415.191-.777.348-.803.348-.027 0-.049-2.184-.049-4.853 0-3.597-.04-4.895-.154-5.014-.11-.115-.932-.16-2.884-.16-2.31 0-2.76.032-2.931.21zm-65.809.648c-2.343.656-3.181 3.817-1.52 5.734 1.588 1.831 4.45 1.422 5.488-.784.918-1.952-.05-4.324-2.013-4.93-.8-.248-1.128-.25-1.955-.02zm9.254 2.838c-.049.05-.088 1.373-.088 2.939v2.847l-.483.13c-.265.072-.858.227-1.317.344-1.551.394-1.426.168-1.386 2.51l.036 2.04 1.543.067 1.542.066.067 5.282c.07 5.584.08 5.683.733 7.006.603 1.221 2.1 2.305 3.723 2.697 1.624.392 5.163.173 5.777-.357.232-.2.263-4.33.033-4.477-.08-.052-.76-.1-1.51-.108-1.563-.017-2.066-.222-2.518-1.023-.249-.44-.262-.679-.262-4.741v-4.279l2.057-.035c1.75-.03 2.081-.069 2.218-.26.113-.157.16-.863.16-2.378 0-1.516-.047-2.222-.16-2.38-.137-.19-.469-.229-2.218-.259l-2.057-.035-.064-2.808-.065-2.808-2.836-.036c-1.56-.02-2.877.006-2.925.056zm-11.248 5.823c-.117.122-.154 2.483-.154 9.81 0 8.807.018 9.666.212 9.834.16.139.845.193 2.821.224 2.49.04 2.621.029 2.873-.234.262-.272.265-.365.265-9.874 0-7.288-.037-9.638-.154-9.76-.219-.227-5.644-.227-5.863 0zm47.32-.072c-.249.104-.226 14.612.024 15.839.598 2.933 2.527 4.394 6.101 4.62 2.11.134 4.429-.396 6.298-1.438.381-.212.742-.353.804-.314.061.04.111.244.111.455 0 .722.22.804 2.17.804 1.2 0 1.814-.051 1.919-.16.117-.122.154-2.514.154-9.946 0-8.8-.02-9.794-.203-9.867-.405-.162-5.522-.09-5.686.079-.116.12-.154 1.907-.154 7.217v7.056l-.486.258c-1.402.744-3.482.91-4.232.338-.822-.627-.81-.506-.81-7.9 0-5.921-.024-6.734-.202-6.92-.172-.178-.612-.208-2.925-.199-1.498.006-2.795.04-2.884.078zm31.065 4.865c1.208.706 1.618 1.975 1.615 5.007-.002 4.25-.647 5.404-3.017 5.412-1.026.003-2.455-.337-3.011-.716l-.328-.223v-8.961l.61-.273c1.591-.71 3.174-.805 4.131-.246z" fill="#5E6882"/></svg>