<svg width="183" height="34" viewBox="0 0 183 34" fill="none" xmlns="http://www.w3.org/2000/svg"><g clip-path="url(#a)"><path d="M39.768 7.092h-7.905V1.84H53.38v5.252h-7.905v20.583h-5.707V7.092z" fill="#5E6882"/><path d="M47.459 17.9v-.06c0-5.647 4.029-10.292 9.827-10.292 6.623 0 9.675 5.13 9.675 10.746 0 .456-.03.972-.06 1.488H53.074c.55 2.55 2.35 3.886 4.852 3.886 1.893 0 3.266-.577 4.823-2.034l3.235 2.854c-1.862 2.277-4.517 3.703-8.119 3.703-5.982-.06-10.407-4.25-10.407-10.291zm14.04-1.67c-.336-2.52-1.832-4.22-4.182-4.22-2.35 0-3.846 1.67-4.303 4.22h8.484zm5.859 5.768v-.06c0-4.311 3.297-6.315 7.997-6.315 2.014 0 3.448.334 4.852.82v-.334c0-2.338-1.434-3.613-4.272-3.613-2.137 0-3.663.395-5.494 1.063l-1.404-4.28c2.197-.972 4.334-1.58 7.722-1.58 3.082 0 5.31.82 6.714 2.217 1.496 1.487 2.137 3.643 2.137 6.314v11.476h-5.464V25.58c-1.373 1.517-3.265 2.52-6.012 2.52-3.724-.061-6.776-2.187-6.776-6.103zM80.3 20.693V19.69c-.977-.455-2.228-.729-3.601-.729-2.411 0-3.907.972-3.907 2.733v.06c0 1.518 1.251 2.399 3.083 2.399 2.624.03 4.425-1.427 4.425-3.461zm6.47-12.781h5.645v2.793c1.313-1.67 2.991-3.157 5.86-3.157 2.595 0 4.548 1.153 5.586 3.127 1.739-2.034 3.815-3.127 6.531-3.127 4.181 0 6.715 2.52 6.715 7.255v12.872h-5.647v-11.02c0-2.641-1.19-4.007-3.296-4.007s-3.418 1.366-3.418 4.007v11.02H99.1v-11.02c0-2.641-1.19-4.007-3.297-4.007-2.106 0-3.418 1.366-3.418 4.007v11.02h-5.646V7.912h.03zm30.978 6.922v-.061c0-7.347 5.554-13.358 13.52-13.358 4.883 0 7.813 1.61 10.224 3.977l-3.601 4.16c-2.014-1.822-4.029-2.915-6.623-2.915-4.364 0-7.538 3.613-7.538 8.045v.06c0 4.433 3.082 8.106 7.538 8.106 2.961 0 4.792-1.184 6.837-3.035l3.632 3.643c-2.656 2.853-5.647 4.614-10.652 4.614-7.661.06-13.337-5.829-13.337-13.236zM142.286.747h5.921v4.98h-5.921V.746zm.152 7.165h5.647v19.763h-5.647V7.912zm8.973 14.147v-9.35h-2.38V7.912h2.38v-5.07h5.647v5.04h4.669v4.796h-4.669v8.44c0 1.305.549 1.912 1.831 1.912 1.038 0 1.953-.273 2.777-.698v4.524c-1.19.698-2.564 1.153-4.456 1.153-3.449 0-5.799-1.366-5.799-5.95zM177.14 7.912H183l-7.63 20.249c-1.526 4.007-3.144 5.525-6.532 5.525-2.044 0-3.57-.516-5.005-1.366l1.892-4.068c.733.455 1.679.79 2.412.79.976 0 1.495-.304 1.953-1.306l-7.783-19.854h5.982l4.517 13.448 4.334-13.418zM25.942 1.87H0v25.805h25.942V1.871z" fill="#5E6882"/><path d="M4.395 6.394H2.41V5.089h5.372v1.305H5.799v5.13H4.395v-5.13zm3.48 1.943c0-1.852 1.403-3.37 3.387-3.37 1.221 0 1.954.395 2.564 1.002l-.916 1.032c-.488-.455-1.007-.728-1.648-.728-1.098 0-1.892.91-1.892 2.003v.03c0 1.094.763 2.035 1.892 2.035.733 0 1.19-.304 1.71-.76l.915.911c-.671.699-1.404 1.154-2.655 1.154-1.954 0-3.357-1.457-3.357-3.309zm4.272 14.511H2.411v1.61h9.736v-1.61z" fill="#fff"/></g><defs><clipPath id="a"><path fill="#fff" transform="translate(0 .747)" d="M0 0h183v32.939H0z"/></clipPath></defs></svg>