<svg width="152" height="48" viewBox="0 0 152 48" fill="none" xmlns="http://www.w3.org/2000/svg"><path fill-rule="evenodd" clip-rule="evenodd" d="M17.221.552c-1.948.176-3.674.784-5.962 2.098C9.453 3.687 8.517 4.529 8.08 5.509c-.199.446-.438.77-.672.91-.5.297-1.076 1.516-1.175 2.484l-.078.758-1.182 1.216C1.433 14.516-.327 19.404.05 24.54c.31 4.202 2.054 8.074 4.953 10.99l.906.912.075 1.509c.061 1.225.116 1.549.291 1.719.119.115.84.493 1.603.84 2.818 1.283 3.02 1.354 4.073 1.424l.997.067.266.924c.147.508.486 1.602.755 2.43.483 1.49.494 1.509.946 1.667.914.318 2.517.441 4.904.376 2.502-.068 2.976-.16 3.533-.68.31-.29.33-.363.259-.94l-.078-.624.638-.155c1.248-.301 1.393-.745.952-2.923-.28-1.384-.243-1.673.25-1.957.208-.12.355-.307.355-.45 0-.189.142-.286.625-.43.962-.288 1.624-.249 1.944.115.54.613 3.156.53 3.93-.126.516-.438.888-1.416.953-2.51.048-.786.003-1.112-.273-2.004-.408-1.318-.805-2.122-1.203-2.437l-.305-.241.536-1.14a20.214 20.214 0 0 0 1.474-4.441c.326-1.636.295-5.152-.059-6.796-.685-3.182-2.11-6.011-4.153-8.245l-.897-.982-.076-.9c-.107-1.268-.603-3.138-1.063-4.008-.434-.819-2.201-2.77-3.133-3.46C22.473.915 19.794.32 17.221.553zm3.675 1.34c1.077.306 2.433.932 3.055 1.411.425.327 2.019 2.193 2.019 2.363 0 .043-.132.052-.293.021-.524-.1-1.152.197-1.365.647-.215.455-.14.657.152.413.332-.277 1.228-.177 1.841.204 1.052.655 1.343 1.752 1.349 5.08.006 3.569-.692 6.062-2.42 8.64-.718 1.072-1.225 1.505-2.46 2.105-1.227.595-2.079.778-3.283.708-1.799-.105-3.55-1.287-5.228-3.527-.777-1.039-.974-.961-.409.161.33.654 1.862 2.353 2.636 2.922l.47.346h-.605c-.435 0-.697.073-.933.26-.314.248-.373.253-1.37.113-1.29-.182-2.08-.515-2.577-1.085-.518-.593-1.258-2.22-1.578-3.467l-.264-1.026.39-.487c.213-.268.388-.572.388-.677 0-.26-.39-.237-.747.047-1.154.914-2.677-.201-3.12-2.285-.304-1.422.63-2.687 1.982-2.687.705 0 1.192.463 1.417 1.346l.158.623.586-.057c.967-.093 1.018-.22.695-1.7-.295-1.355-.299-1.27.175-3.855.156-.851.164-1.174.048-1.836-.141-.801-.14-.807.232-1.35.89-1.305 3.572-3.17 5.136-3.574.845-.218 2.79-.117 3.923.204zm-7.02.69c.024.072-.353.336-.836.587-1.333.692-2.025 1.169-2.69 1.851-.568.584-1.057.879-1.458.879-.552 0 1.097-1.734 2.317-2.437.771-.445 2.337-1.095 2.511-1.043a.276.276 0 0 1 .156.164zm2.493 3.565c-.498.151-1.417.98-1.661 1.497-.377.8-.16 1.68.227.923.315-.612 1.01-1.31 1.454-1.457a2.9 2.9 0 0 1 .927-.1c.439.033.518.003.548-.21.074-.519-.75-.88-1.495-.653zm-5.424.319c.092.24-.069.357-.64.465-.607.115-1.49.593-1.95 1.056-.613.617-.884 1.344-.918 2.466-.046 1.466-.222 1.103-.222-.457 0-1.258.025-1.408.32-1.913C7.91 7.44 8.72 6.82 9.6 6.5c.793-.288 1.243-.299 1.344-.034zm7.712 3.045c.03.284.221.877.426 1.32.206.441.374.821.374.844 0 .12-.866.166-1.415.074-.571-.096-.638-.083-.706.133-.14.444.33.743 1.252.795.75.043.854.019 1.207-.28.5-.424.504-.838.012-1.35-.206-.213-.56-.762-.788-1.22l-.414-.832.052.516zm7.437-.126c-.002.215.11.697.25 1.071.138.375.231.702.206.728-.026.026-.397.092-.826.146-.683.088-.775.13-.741.34.056.347.368.544.859.541.485-.002 1.376-.458 1.424-.73.017-.098-.238-.697-.568-1.332-.523-1.005-.6-1.103-.604-.764zm-3.7.463c-.129.338.188 1.451.616 2.168.224.374.791 1.152 1.261 1.729.834 1.024 1.006 1.44.757 1.835-.051.08-.525.352-1.053.602-.792.374-1.097.455-1.738.46-.825.004-.898-.049-1.157-.846-.075-.228-.087-.224-.197.06-.136.35-.056 1.036.15 1.286.217.263 1.548.219 2.438-.08a9.809 9.809 0 0 0 1.508-.696c.708-.414.771-.488.948-1.098l.188-.653-.595-.624c-1.352-1.417-2.598-3.162-2.747-3.846-.094-.43-.274-.572-.38-.297zM8.005 12.963c-.324.121-.6.44-.605.702-.003.137.028.143.14.03.323-.324.443-.162.375.505-.041.4-.005.832.094 1.123l.162.473.087-.837c.136-1.316.557-1.505 1.055-.472.2.416.3.52.376.396.12-.198.03-.777-.194-1.225-.277-.556-.98-.884-1.49-.694zM93.27 23.631v10.325l2.322-.033 2.321-.033.032-3.063.033-3.063 2.795 3.003c1.537 1.65 2.852 3.042 2.923 3.091.154.108 5.615.125 5.615.017 0-.042-1.718-1.848-3.818-4.012l-3.818-3.937.411-.43c.226-.236 1.81-1.75 3.521-3.364l3.111-2.936-2.685-.033-2.686-.032-2.686 2.703-2.687 2.704V13.306H93.27v10.325zm17.971-8.382v1.943h4.703v-3.886h-4.703v1.943zm-65.434-.94c-.03.083-.07 4.44-.087 9.684l-.03 9.533-.267.5c-.286.54-.859 1.085-1.355 1.292-.17.07-.743.16-1.273.2l-.965.073-.033 1.93-.034 1.93 1.601-.069c4-.17 6.118-1.516 7.187-4.569.173-.494.2-1.716.234-10.607l.038-10.05h-2.48c-1.874 0-2.494.037-2.536.152zm-20.08 2.788a9.946 9.946 0 0 1-1.446.631l-.784.26.014.456c.008.251.042.484.075.518.123.123 1.087-.178 1.546-.485.431-.287 1.426-1.583 1.307-1.702-.027-.027-.347.118-.712.322zm-7.01.552c.412.775 1.913 1.361 3.49 1.364l.882.001-.037-.516-.037-.516-1.568-.08c-.867-.044-1.838-.166-2.171-.272a13.262 13.262 0 0 0-.638-.193c-.019-.001.017.095.08.212zm-.757.862c-.114.185 1.363 1.926 1.832 2.16.344.173.716.224 1.594.221 1.243-.004 1.984-.19 2.172-.544.195-.367.15-.394-.513-.313-.348.042-1.152.026-1.787-.036-1.42-.138-2.178-.465-2.612-1.125-.294-.448-.55-.584-.686-.363zm42.685.439c-3.09.574-5.132 2.402-5.853 5.237-.327 1.29-.327 3.423 0 4.713.652 2.565 2.44 4.327 5.153 5.074.792.219 1.276.26 3.052.262 2.3.003 3.636-.204 5.608-.87l.965-.326.033-1.805c.027-1.43.002-1.792-.12-1.738l-1.24.546c-1.739.767-2.996 1.043-4.776 1.049-1.505.005-1.527.001-2.337-.42-.958-.497-1.422-1.071-1.672-2.064l-.167-.668 5.55-.032 5.55-.031-.08-1.426c-.15-2.707-.665-4.042-2.13-5.522-.704-.712-1.146-1.042-1.82-1.36-1.599-.754-3.74-.986-5.716-.62zm21.44.008c-1.001.272-1.835.759-2.651 1.548l-.758.732v-2.102h-4.704v14.816h4.69l.04-4.463c.045-4.974.066-5.112.92-6.118 1.365-1.606 3.831-1.244 4.229.621.082.39.132 2.363.132 5.29v4.67h4.852l-.061-5.252c-.05-4.258-.099-5.397-.255-6.014-.37-1.463-1.167-2.652-2.176-3.247-1.04-.614-2.964-.83-4.258-.48zm46.435 0c-1.001.272-1.835.759-2.652 1.548l-.757.732v-2.102h-4.704v14.816h4.69l.04-4.463c.045-4.974.066-5.112.921-6.118 1.363-1.606 3.83-1.244 4.227.621.083.39.133 2.363.133 5.29v4.67h4.852l-.062-5.252c-.05-4.258-.098-5.397-.254-6.014-.37-1.463-1.167-2.652-2.176-3.247-1.04-.614-2.964-.83-4.258-.48zm14.622-.052c-2.275.332-3.756 1.36-4.218 2.929-.247.836-.238 2.45.019 3.249.265.827 1.069 1.723 1.904 2.12.874.417 1.748.636 3.682.925 2.108.314 2.468.419 2.767.802.305.39.321 1.097.034 1.455-.396.494-.983.688-2.258.745-1.773.078-4.007-.384-6.004-1.245-.201-.087-.212.022-.181 1.71l.034 1.802 1.145.277c3.703.895 7.67.807 9.657-.213.776-.4 1.621-1.263 1.93-1.974.372-.855.462-2.564.185-3.523-.541-1.874-1.989-2.652-6.043-3.244-2.023-.295-2.393-.407-2.711-.814-.539-.689-.15-1.488.87-1.794 1.484-.443 4.352-.038 6.88.973.201.08.212-.031.181-1.72l-.033-1.805-.965-.21c-2.426-.528-5.113-.702-6.875-.445zm-31.901 7.637v7.408h4.703V19.136h-4.703v7.407zm-47.265-4.275c.8.42 1.32 1.195 1.406 2.09l.058.607h-3.031c-3.42 0-3.194.083-2.783-1.023.295-.792 1.195-1.68 1.893-1.867.9-.241 1.76-.173 2.457.193zm-49.97 2.002l1 .118-.079.38c-.043.208-.117.42-.163.47-.122.133-1.228-.223-1.71-.55-.453-.308-.668-.805-.273-.633.123.054.674.15 1.224.215zm7.891.209c-.333.267-.69.486-.793.486-.427 0-1.364-.267-1.617-.46-.264-.202-.248-.207.542-.177.448.018 1.113-.044 1.478-.138 1.011-.26 1.044-.235.39.289zm.394 3.1c.265.164.581.3.702.3.202 0 .213.097.143 1.306-.083 1.42-.273 2.966-.413 3.345-.067.184-.278-.185-.91-1.594-.45-1.008-1.002-2.104-1.222-2.434-.353-.527-.38-.62-.218-.754a1.04 1.04 0 0 1 .473-.184c.159-.018.387-.088.505-.158.307-.18.399-.163.94.173zm2.808.544c.218.134.426.321.462.417.037.095-.163.573-.444 1.062-.521.907-1.924 3.135-1.974 3.135-.015 0 .044-.342.13-.76.087-.417.223-1.469.303-2.337.08-.868.204-1.619.275-1.668.24-.167.85-.093 1.248.151zm-3.384.398c-.096.251.09.481.35.431.32-.062.296-.516-.03-.563-.14-.02-.285.04-.32.132zm-1.483.824c.58.957 1.662 3.439 1.521 3.489-.168.06-2.234-.782-3.383-1.38-1.19-.619-1.205-.659-.574-1.525.312-.429 1.66-1.453 1.842-1.4.066.02.333.387.593.816zm1.801.78c-.042.11-.02.255.048.324.197.198.572.064.572-.204 0-.308-.51-.407-.62-.12zm9.107 2.92c.412.35.731 1.129 1.038 2.537.357 1.639.164 2.504-.707 3.158-.269.203-.552.259-1.484.293-1.297.048-1.446-.12-.307-.345 1.013-.2 1.114-.256.692-.381-.2-.06-.942-.073-1.652-.03l-1.29.08-.058-.29c-.032-.16-.12-.864-.195-1.566-.075-.701-.192-1.49-.26-1.752-.111-.428-.097-.498.14-.677.144-.11.829-.41 1.521-.665.693-.255 1.288-.51 1.323-.567.136-.223.878-.1 1.239.205zm-2.174 1.208c-.538.2-1.067.538-1.067.684 0 .221.448.087 1.267-.379.63-.358.767-.479.543-.474-.166.003-.5.08-.743.169zm-7.886.19c.461.067.877.184.924.26.047.077.118.718.158 1.425.04.706.126 2.131.192 3.166.066 1.036.177 2.84.247 4.008.07 1.169.138 2.257.15 2.419.037.485-.786.647-3.355.664-2.216.014-4.02-.222-4.362-.571-.159-.162-.726-2.102-1.125-3.848-.546-2.387-1.222-6.825-1.065-6.984.072-.072 2.954-.507 3.839-.58 1.187-.097 3.604-.075 4.397.04zm5.13.389c.308.704.505 1.934.46 2.884l-.037.79-.451.111c-.249.062-.474.09-.5.061-.027-.028-.164-.844-.304-1.812a216.38 216.38 0 0 0-.32-2.156c-.064-.392-.06-.395.43-.395.466 0 .508.03.721.517zm2.594.541a.937.937 0 0 0-.356.169c-.146.14 1.623.143 1.843.003.279-.178-.9-.314-1.487-.172zm-.282 1.226c-.245.17.243.264 1.367.261.686-.001.907-.036.764-.12-.284-.167-1.936-.276-2.13-.141zm-4.252 5.232c.343 1.717.335 2.052-.057 2.203a2.45 2.45 0 0 1-.724.118c-.4 0-.414-.016-.414-.467 0-.257-.035-1.042-.078-1.745l-.077-1.277.47-.119c.258-.065.505-.086.548-.047.043.04.193.64.332 1.334z" fill="#5E6882"/></svg>