<svg width="177" height="62" viewBox="0 0 177 62" fill="none" xmlns="http://www.w3.org/2000/svg"><path fill-rule="evenodd" clip-rule="evenodd" d="M4.002 1.047c-1.224.382-2.148 1.017-2.835 1.95C-.085 4.695-.034 3.546.024 28.851l.052 23.022.426.92c.543 1.173 1.835 2.429 2.902 2.822.457.169 5.731 1.333 11.721 2.587 5.99 1.254 12.138 2.545 13.663 2.87 1.525.323 3.262.587 3.861.586 2.641-.004 4.716-2.046 4.744-4.667l.009-.813 1.889-.099c2.312-.12 3.759-.754 4.783-2.096 1.317-1.723 1.26-.487 1.202-26.046l-.053-23.121-.594-1.08c-.328-.598-.974-1.37-1.444-1.726C41.484.721 42.15.761 22.565.776c-14.009.01-17.91.067-18.563.27zM41.32 2.919c.896.46 1.727 1.311 2.01 2.058.144.381.21 7.766.21 23.487 0 22.15-.013 22.956-.377 23.664-.812 1.582-2.035 2.217-4.266 2.217h-1.489l-.052-21.008-.053-21.008-.531-1.13c-.728-1.552-2.136-2.999-3.607-3.706-.983-.473-2.131-.73-6.16-1.38C14.86 4.153 6.448 2.741 6.352 2.646c-.057-.057 7.623-.104 17.066-.104 16.505 0 17.197.015 17.903.377zM13.381 14.018c.42.146 1.568 1.402 3.931 4.3 1.837 2.252 4.685 5.74 6.33 7.753 4.06 4.965 3.924 4.764 3.908 5.834-.018 1.208-.231 1.448-4.504 5.08-10.972 9.323-10.107 8.655-11.208 8.658-1.858.004-3.106-1.6-2.588-3.326.211-.703.91-1.36 6.067-5.703 3.206-2.7 5.833-4.971 5.838-5.048.005-.078-2.526-3.261-5.626-7.074-6.105-7.512-6.198-7.663-5.523-9.038.666-1.356 1.988-1.919 3.375-1.436zm117.563 9.278c-2.663.569-4.224 2.185-4.235 4.382-.008 1.707.897 3.045 2.561 3.787.485.216 2.022.689 3.416 1.05 1.393.36 2.856.808 3.25.994 2.116 1.003 1.809 3.604-.545 4.615-1.381.593-3.584.517-4.996-.172-1.064-.52-1.972-1.717-2.193-2.89-.127-.677-.143-.687-1.138-.687h-1.008l.118.996c.147 1.24.99 2.819 1.91 3.576 1.206.994 2.623 1.412 4.858 1.434 2.401.024 3.636-.344 4.912-1.466 1.939-1.704 2.134-4.77.407-6.403-.913-.864-1.889-1.27-5.033-2.095-1.631-.427-3.12-.86-3.31-.961-1.079-.577-1.451-2.03-.781-3.05.555-.846 1.449-1.19 3.31-1.275 1.464-.066 1.799-.017 2.573.382.97.5 1.784 1.534 1.784 2.267 0 .432.077.465 1.089.465 1.223 0 1.24-.029.817-1.43-.649-2.156-2.579-3.451-5.372-3.605-.871-.048-1.948-.01-2.394.086zm-72.95 8.488v8.523h2.18v-6.871l3.416-.1c2.525-.075 3.662-.19 4.361-.441 1.867-.672 2.97-2.393 2.977-4.645.005-1.47-.324-2.382-1.23-3.413-1.07-1.215-1.872-1.383-7.098-1.486l-4.604-.09v8.523zm84.552.02v8.503h1.941l.074-4.202c.083-4.642.178-5.048 1.379-5.902.818-.582 2.451-.735 3.279-.307 1.123.58 1.247 1.18 1.247 6.041v4.37h1.981v-4.902c0-4.69-.02-4.939-.446-5.783-.528-1.046-1.632-1.732-3.057-1.9-1.271-.15-2.383.177-3.498 1.027l-.92.701v-6.148h-1.98v8.503zm26.93 0v8.503h1.98V23.301h-1.98v8.503zm5.544 0v8.503H177V23.301h-1.98v8.503zM67.602 25.873c.775.724 1.085 1.442 1.085 2.51-.001 1.25-.56 2.15-1.637 2.638-.707.32-1.309.38-3.857.384l-3.02.004v-6.155l3.45.063c3.366.06 3.462.074 3.979.556zm9.442 2.142c-2.152.767-3.26 2.213-3.657 4.771-.414 2.672.382 5.241 2.007 6.479 2.903 2.21 7.33 1.213 8.759-1.972.398-.887.466-1.36.468-3.215.002-2.373-.274-3.307-1.358-4.587-1.292-1.526-4.164-2.208-6.219-1.476zm31.009-.098c-.511.144-1.09.383-1.287.532-.975.738-1.529 1.367-1.998 2.268-.43.826-.529 1.319-.598 2.998-.104 2.54.24 3.702 1.494 5.04 1.158 1.236 2.254 1.653 4.309 1.64 1.84-.01 2.986-.432 4.04-1.484.585-.584 1.342-1.917 1.169-2.058-.033-.028-.506-.098-1.051-.157-.943-.102-1.008-.078-1.387.516-.517.812-1.552 1.314-2.709 1.315-2.025 0-3.441-1.194-3.807-3.213l-.134-.741h9.177l-.092-1.533c-.146-2.428-1.042-3.847-3.083-4.878-.883-.446-2.898-.568-4.043-.245zm13.608.045c-.325.168-.833.59-1.131.938l-.541.63-.008-.84-.008-.84h-1.783v12.456h1.942l.073-4.3c.081-4.786.248-5.51 1.405-6.107.54-.28.806-.284 2.199-.038.277.049.44-.128.641-.699.327-.926.267-1.043-.673-1.303-1.001-.278-1.425-.257-2.116.103zm37.68-.046c-1.666.47-3.021 1.803-3.607 3.55-.464 1.383-.425 4.19.077 5.521.866 2.295 2.598 3.4 5.348 3.411 1.448.006 1.84-.07 2.802-.541 1.12-.55 1.969-1.428 2.352-2.431.112-.295.179-.555.148-.58-.03-.023-.5-.091-1.045-.15-.936-.102-1.011-.075-1.386.497-1.108 1.692-3.993 1.807-5.487.219-.507-.54-1.146-1.972-1.146-2.568 0-.222.823-.271 4.554-.271h4.554v-1.185c0-1.333-.497-2.84-1.27-3.853-1.09-1.427-3.867-2.19-5.894-1.619zM87.63 33.04a624.87 624.87 0 0 1 1.965 6.229l.308 1.038h1.9l1.248-4.647c.687-2.555 1.313-4.646 1.39-4.646.078 0 .203.333.278.741.11.59 1.868 7.237 2.2 8.315.055.177.376.24 1.017.198l.937-.06 1.998-6.13 1.998-6.129-.875-.061c-.481-.034-.918-.018-.971.034-.076.077-1.682 5.2-2.767 8.826-.255.85-.17 1.071-1.546-4.054a696.589 696.589 0 0 0-1.22-4.508c-.084-.288-.277-.345-1.012-.297l-.909.06-1.27 4.547c-.698 2.502-1.317 4.682-1.375 4.845-.132.371-.135.363-1.543-4.746a2004.64 2004.64 0 0 0-1.216-4.399c-.078-.273-.319-.346-1.146-.346h-1.047l1.658 5.19zm-7.2-3.143c2.418 1.009 3.11 5.336 1.193 7.456-1.704 1.883-4.78 1.42-5.824-.88-.474-1.04-.514-3.57-.073-4.623.795-1.898 2.82-2.74 4.703-1.953zm31.36.248c.685.511 1.181 1.218 1.335 1.907l.123.543h-3.469c-3.001 0-3.469-.04-3.469-.306 0-.776 1.03-2.05 1.98-2.448.804-.337 2.882-.157 3.5.304zm51.043-.124c.827.4 1.339 1.062 1.57 2.03l.13.544h-3.469c-3.001 0-3.469-.04-3.469-.306 0-.781 1.042-2.064 1.98-2.437.837-.334 2.385-.253 3.258.169zM26.234 44.359c4.533.568 4.892.715 4.991 2.045.049.658-.037.915-.437 1.315-.3.3-.722.496-1.067.496-1.503 0-8.684-1.026-9.105-1.302-1.386-.906-.655-3.047 1.041-3.047.35 0 2.41.222 4.577.493z" fill="#5E6882"/></svg>