<svg width="163" height="43" viewBox="0 0 163 43" fill="none" xmlns="http://www.w3.org/2000/svg"><path fill-rule="evenodd" clip-rule="evenodd" d="M26.608 1.097c-.131.084-.163.712-.135 2.668l.037 2.557 2.835.037c2.178.028 2.86-.003 2.944-.135.183-.288.139-4.89-.049-5.078-.188-.187-5.342-.232-5.632-.049zM12.142 7.78c-.036.095-.05 1.296-.03 2.669l.038 2.496 2.76.036c1.921.026 2.816-.01 2.946-.117.251-.209.273-4.847.024-5.095-.24-.24-5.645-.23-5.738.01zm7.181-.003c-.037.097-.05 1.3-.03 2.672l.037 2.496 2.642.038c1.452.021 2.78.005 2.949-.037l.308-.075-.037-2.599-.037-2.598-2.882-.037c-2.268-.028-2.896.001-2.95.14zm7.18.003c-.037.095-.05 1.296-.03 2.669l.037 2.496 2.76.036c1.921.026 2.816-.01 2.946-.117.251-.209.273-4.847.024-5.095-.24-.24-5.645-.23-5.738.01zm18.575 2.05a10.127 10.127 0 0 0-1.7 5.552c-.003 1.41.24 2.507.805 3.616l.398.783-.366.142c-2.447.957-1.64.925-23.504.926-21.496.001-20.03-.06-20.505.848-.18.345-.223.75-.202 1.924.086 4.65 1.319 9.043 3.476 12.388.776 1.203 2.839 3.258 3.887 3.874 4.742 2.785 13.237 3.588 20.978 1.984 2.481-.515 5.305-1.528 7.546-2.709 5.761-3.035 9.709-7.6 12.85-14.862l.584-1.351 1.19-.106c2.556-.227 4.48-1.028 5.92-2.464.848-.846 1.842-2.488 1.842-3.043 0-.311-1.048-.972-2.168-1.366-.784-.276-1.134-.31-3.212-.315l-2.331-.004-.16-.676c-.497-2.098-2.006-4.15-3.972-5.405-.409-.26-.77-.474-.804-.474-.034 0-.282.332-.552.738zm30.726 3.506c-.863.384-.864.392-.864 4.909 0 2.25-.034 4.092-.075 4.092-.041 0-.483-.246-.982-.546-1.207-.726-2.408-1.088-3.893-1.174-1.745-.101-2.959.137-4.424.87-1.605.8-2.932 2.095-3.718 3.627-.792 1.544-.93 2.162-.92 4.115.01 1.907.247 2.826 1.09 4.212 1.043 1.719 2.878 3.215 4.63 3.775 1.256.402 3.555.497 4.822.2 2.88-.673 5.364-3.036 6.27-5.963.23-.744.248-1.43.248-9.08V14.1l-.406-.4c-.49-.48-1.191-.623-1.778-.362zm40.523 0a2.346 2.346 0 0 0-.678.482c-.265.297-.271.522-.31 11.202-.022 5.994-.002 11.107.044 11.361.129.71.766 1.227 1.513 1.227.512 0 .683-.073 1.07-.46l.461-.459v-6.106l.958-.636c.677-.449 1.011-.598 1.137-.508.099.07 1.743 1.876 3.653 4.012 1.911 2.136 3.59 3.945 3.731 4.02.428.229 1.291.162 1.66-.128.453-.355.697-.98.594-1.525-.062-.332-.95-1.41-3.532-4.293-1.897-2.117-3.452-3.89-3.455-3.94-.003-.048 1.516-1.071 3.375-2.273 3.024-1.955 3.396-2.236 3.538-2.665.228-.689-.025-1.458-.592-1.803-.914-.556-1.003-.516-6.091 2.777-2.585 1.672-4.762 3.04-4.838 3.04-.092 0-.138-2.09-.138-6.254 0-6.935.031-6.686-.894-7.072-.549-.229-.685-.229-1.206.001zm-111.333.98c-.173.171-.108 4.979.07 5.155.25.25 5.44.228 5.649-.024.107-.129.144-.952.118-2.67l-.037-2.482-2.854-.036c-1.569-.02-2.895.005-2.946.056zm7.177.002c-.05.05-.09 1.229-.09 2.62 0 2.184.03 2.543.214 2.614.118.045 1.364.082 2.768.082 2.14 0 2.587-.035 2.766-.213.177-.176.213-.6.213-2.489 0-1.252-.037-2.373-.082-2.49-.072-.186-.455-.214-2.89-.214-1.545 0-2.849.04-2.899.09zm7.183-.003c-.172.172-.108 4.98.07 5.156.25.25 5.44.228 5.649-.024.107-.129.144-.952.118-2.67l-.037-2.482-2.854-.036c-1.569-.02-2.895.005-2.946.056zm7.177.003c-.05.05-.09 1.229-.09 2.62 0 2.184.03 2.543.214 2.614.372.142 5.205.091 5.485-.058.243-.13.262-.305.262-2.49 0-1.292-.037-2.445-.082-2.562-.072-.186-.455-.214-2.89-.214-1.545 0-2.849.04-2.899.09zm7.183-.003c-.051.051-.093 1.232-.093 2.624 0 2.183.03 2.542.214 2.613.436.166 5.277.09 5.52-.088.208-.151.23-.438.196-2.669l-.037-2.5-2.854-.036c-1.569-.02-2.895.005-2.946.056zm52.656 6.466c-1.649.358-3.483 1.509-4.624 2.902-2.366 2.887-2.576 7.133-.502 10.161 1.051 1.535 2.652 2.786 4.3 3.36 1.177.41 3.605.516 4.892.213 2.353-.552 4.604-2.367 5.719-4.61 1.24-2.497 1.036-5.945-.49-8.267-.7-1.063-2.18-2.435-3.231-2.994-1.68-.893-4.078-1.195-6.064-.765zm18.672.072c-1.499.392-2.528 1.001-3.756 2.225-1.804 1.797-2.526 3.54-2.517 6.072.01 2.518.668 4.107 2.451 5.907.951.962 1.354 1.261 2.305 1.711.633.3 1.474.612 1.869.693 1.03.211 3.087.182 4.029-.058 1.521-.388 3.382-1.487 3.805-2.248.555-.999-.238-2.277-1.413-2.277-.239 0-.76.241-1.327.614-1.24.813-2.103 1.055-3.503.982-1.42-.074-2.636-.612-3.588-1.588-2.845-2.914-1.587-7.76 2.322-8.945 1.72-.521 3.391-.204 4.981.945 1.264.913 2.724.327 2.709-1.088-.006-.629-.238-.979-1.052-1.589-2.006-1.504-4.782-2.018-7.315-1.356zm32.147-.019c-2.461.608-4.653 2.409-5.698 4.679-.566 1.231-.737 2.084-.737 3.694 0 2.513.66 4.069 2.503 5.901 1.322 1.315 2.283 1.89 3.816 2.286 1.091.281 3.34.281 4.432 0 1.733-.446 3.712-1.774 4.017-2.695.33-.997-.368-1.956-1.423-1.956-.472 0-.729.115-1.461.654-1.189.875-2.076 1.143-3.588 1.082-.988-.04-1.334-.119-2.096-.479-1.1-.518-2.076-1.453-2.585-2.473l-.371-.744 6.405-.067c4.792-.05 6.48-.11 6.703-.238.553-.315.718-.712.718-1.723 0-3.7-2.93-7.185-6.706-7.973-1.242-.259-2.751-.24-3.929.052zm13.042.14l-.443.394V36.82l.443.394c.623.555 1.472.555 2.095 0l.443-.394.067-4.512.068-4.513.506-1.02c1.234-2.49 3.926-3.638 6.617-2.823 1.454.44 2.155.203 2.562-.867.502-1.322-.974-2.331-3.615-2.47-2.112-.112-3.703.28-5.295 1.307l-.811.523-.075-.56c-.166-1.238-1.618-1.753-2.562-.911zm-78.47 3.247c2.177 1.069 3.457 3.46 3.06 5.713A5.518 5.518 0 0 1 71.727 34c-.852.402-1.02.433-2.34.433-1.284 0-1.498-.037-2.194-.377-1.195-.586-2.058-1.444-2.647-2.633-.483-.974-.51-1.1-.51-2.32 0-1.17.04-1.375.423-2.17.744-1.544 1.727-2.422 3.368-3.01 1.085-.388 2.802-.258 3.936.3zm18.809-.085c.992.453 2.184 1.587 2.663 2.535 1.388 2.742.257 6.006-2.541 7.328-.852.402-1.02.433-2.343.433-1.334 0-1.483-.028-2.317-.438-1.112-.546-2.025-1.496-2.6-2.707-.391-.824-.431-1.03-.43-2.193 0-1.157.043-1.372.425-2.179.714-1.507 1.724-2.405 3.365-2.993.992-.355 2.75-.255 3.778.214zm50.945.068c1.054.493 2.004 1.338 2.53 2.252.714 1.243 1.093 1.151-4.756 1.151-5.788 0-5.404.084-4.82-1.052.615-1.197 2.151-2.372 3.567-2.729.955-.24 2.517-.07 3.479.378z" fill="#5E6882"/></svg>