<svg width="152" height="54" viewBox="0 0 152 54" fill="none" xmlns="http://www.w3.org/2000/svg"><path d="M41.634 52.862h-5.87V27.055h5.87v1.65c.735-1.01 2.629-1.98 4.7-1.98 5.614 0 8.74 4.555 8.74 9.87 0 5.314-3.093 9.828-8.705 9.828-2.074 0-4-.97-4.735-1.983v8.422zm0-13.188c.735 1.308 1.936 2.194 3.492 2.194 2.892 0 4.551-2.278 4.551-5.273 0-3.037-1.624-5.315-4.517-5.315-1.597 0-2.791.929-3.526 2.194v6.2zm33.022 6.011h-5.87v-1.422c-.734 1.181-2.825 2.151-5.072 2.151-4.318 0-6.67-2.783-6.67-6.959V27.046h5.138V38.4c0 1.983 1.014 3.333 3.13 3.333 1.64 0 3.474-.97 3.474-2.615v-12.07h5.87v18.638zm8.82 7.177H78.34V27.055h5.137v1.65c.735-1.01 2.7-1.98 4.772-1.98 5.613 0 8.776 4.555 8.776 9.87 0 5.314-3.147 9.828-8.76 9.828-2.073 0-4.053-.97-4.788-1.983v8.422zm0-13.188c.735 1.308 2.01 2.194 3.563 2.194 2.893 0 4.588-2.278 4.588-5.273 0-3.037-1.678-5.315-4.571-5.315-1.597 0-2.845.929-3.58 2.194v6.2zm21.275 13.188h-5.137V27.055h5.137v1.65c.735-1.01 2.725-1.98 4.797-1.98 5.613 0 8.789 4.555 8.789 9.87 0 5.314-3.166 9.828-8.78 9.828-2.072 0-4.071-.97-4.806-1.983v8.422zm0-13.188c.735 1.308 2.034 2.194 3.588 2.194 2.892 0 4.601-2.278 4.601-5.273 0-3.037-1.697-5.315-4.59-5.315-1.597 0-2.864.929-3.599 2.194v6.2zm32.774.273c-.691 3.585-3.714 6.523-8.55 6.523-5.612 0-9.368-4.037-9.368-9.858 0-5.695 3.94-9.885 9.337-9.885 5.657 0 8.82 3.824 8.82 9.349v1.72h-12.976c.173 2.867 1.814 4.514 4.187 4.514 1.815 0 3.153-.93 3.585-2.363h4.965zm-12.608-5.735h7.469c-.042-1.433-1.251-3.543-3.453-3.543-2.073 0-3.542 1.392-4.016 3.543zm16.511-2.863h-2.935v-4.301h2.935v-5.019h5.137v5.019h4.402v4.3h-4.402v8.276c0 1.476.753 2.15 2.135 2.15.821 0 1.532-.252 2.267-.63v4.638c-.735.38-1.877.59-3.302.59-3.928 0-6.237-1.896-6.237-6.074v-8.95zM27.7 15.58H15.96v11.47H27.7V15.58zM9.356 37.085h-3.67V33.5h3.67v3.585zm4.402-7.884H1.284v12.187h12.474V29.2z" fill="#5E6882"/><path d="M16.207 18.49l-7.412-7.242 2.863-2.796 7.412 7.241-2.863 2.796zm-2.563 13.495l-2.862-2.797 5.866-5.73 2.862 2.796-5.866 5.73z" fill="#5E6882"/><path d="M9.356 9.129h-3.67V5.544h3.67v3.585zm4.402-7.886H1.284V13.43h12.474V1.243z" fill="#5E6882"/></svg>