<svg width="196" height="49" viewBox="0 0 196 49" fill="none" xmlns="http://www.w3.org/2000/svg"><g clip-path="url(#a)" fill="#5E6882"><path d="M64.115 16.07h-6.97v-4.23h18.667v4.23h-6.977v21.132H64.13l-.016-21.132z"/><path d="M80.117 33.777a18.844 18.844 0 0 0 5.582-.876l.713 3.504a19.322 19.322 0 0 1-6.71 1.18c-5.732 0-7.723-2.701-7.723-7.17v-4.898c0-3.92 1.725-7.233 7.573-7.233 5.85 0 7.158 3.465 7.158 7.464v3.982H76.518v.956c.04 2.215.824 3.09 3.599 3.09zm-3.56-7.782h5.81v-.94c0-1.753-.525-2.971-2.775-2.971s-3.034 1.218-3.034 2.97v.94zm22.376-3.45a35.615 35.615 0 0 0-4.853 2.701v11.948h-4.57V18.659h3.856l.298 2.055a20.328 20.328 0 0 1 4.799-2.438l.47 4.27zm11.164 0a35.6 35.6 0 0 0-4.837 2.701v11.948h-4.571V18.659h3.857l.298 2.055a20.337 20.337 0 0 1 4.798-2.438l.455 4.27zm15.296 14.657h-3.748l-.337-1.259a9.868 9.868 0 0 1-5.433 1.641c-3.332 0-4.759-2.326-4.759-5.52 0-3.767 1.615-5.217 5.324-5.217h4.382v-1.944c0-2.055-.564-2.78-3.489-2.78-1.7.02-3.394.212-5.056.574l-.565-3.544a23.467 23.467 0 0 1 6.272-.877c5.731 0 7.425 2.055 7.425 6.7l-.016 12.226zm-4.571-7.01h-3.371c-1.497 0-1.913.422-1.913 1.824 0 1.402.416 1.864 1.835 1.864a7.11 7.11 0 0 0 3.449-.956v-2.732zm18.62-15.763a13.205 13.205 0 0 0-2.626-.303c-1.796 0-2.062.797-2.062 2.207v2.326h4.649l-.259 3.696h-4.382v14.847h-4.571V22.355h-2.924v-3.696h2.924V16.07c0-3.847 1.764-5.75 5.809-5.75a14.262 14.262 0 0 1 3.92.533l-.478 3.576zm8.922 23.155c-6.272 0-7.942-3.505-7.942-7.312v-4.683c0-3.808 1.686-7.313 7.942-7.313s7.942 3.505 7.942 7.313v4.683c.008 3.807-1.686 7.312-7.942 7.312zm0-15.349c-2.438 0-3.371 1.107-3.371 3.186v4.986c0 2.095.941 3.186 3.371 3.186 2.431 0 3.371-1.107 3.371-3.186v-4.97c0-2.095-.933-3.202-3.371-3.202zm19.71.31a35.54 35.54 0 0 0-4.837 2.701v11.948h-4.571V18.659h3.857l.298 2.055a20.314 20.314 0 0 1 4.798-2.438l.455 4.27zm12.56 14.657V24.258c0-.987-.416-1.481-1.459-1.481a12.474 12.474 0 0 0-4.759 1.593v12.832h-4.57V18.659h3.489l.446 1.593a18.062 18.062 0 0 1 7.323-1.976 3.417 3.417 0 0 1 2.031.442 3.504 3.504 0 0 1 1.419 1.542 17.672 17.672 0 0 1 7.346-1.984c3.034 0 4.123 2.167 4.123 5.48v13.446h-4.57V24.258c0-.987-.416-1.481-1.458-1.481-1.679.188-3.3.73-4.759 1.593v12.832h-4.602zM28.538 16.596v15.078l12.857-7.535V9.045l-12.857 7.55zM14.269 9.045l12.857 7.55v15.079L14.27 24.131V9.045zM0 .626v15.086l12.858 7.543V8.169L0 .626zm14.269 40.248l12.857 7.543V33.331L14.27 25.788v15.086z"/></g><defs><clipPath id="a"><path fill="#fff" transform="translate(0 .506)" d="M0 0h196v47.911H0z"/></clipPath></defs></svg>