<svg width="130" height="37" viewBox="0 0 130 37" fill="none" xmlns="http://www.w3.org/2000/svg"><g clip-path="url(#a)"><path d="M22.37 35.024a9224.302 9224.302 0 0 0 11.4-1.994l.108-.022-5.865-6.892c-3.226-3.79-5.865-6.907-5.865-6.925 0-.034 6.056-16.51 6.09-16.568.011-.02 4.132 7.01 9.99 17.04l10.047 17.205.077.132-18.64-.002-18.639-.003 11.295-1.97zm71.479-1.667c-2.838-.18-4.488-1.776-4.925-4.763-.116-.795-.117-.815-.129-5.975l-.011-4.993h2.511l.01 4.83c.01 4.353.015 4.863.057 5.17.17 1.242.511 2.078 1.09 2.678.464.48 1.007.761 1.759.91.354.07 1.363.07 1.686 0a3.741 3.741 0 0 0 1.912-1.025c.614-.606 1.068-1.466 1.288-2.44l.074-.327.008-4.87.008-4.872h2.564v15.314h-2.537V31.78c0-.825-.01-1.211-.029-1.205a.996.996 0 0 0-.145.219 5.126 5.126 0 0 1-1.964 1.942c-.957.52-1.916.705-3.227.622zm28.798-.012a6.712 6.712 0 0 1-2.918-.941c-1.816-1.11-2.891-2.94-3.206-5.459-.109-.872-.122-2.042-.031-2.783.203-1.654.861-3.278 1.798-4.438.24-.297.785-.836 1.086-1.073a6.806 6.806 0 0 1 2.772-1.307c.588-.127 1.624-.187 2.248-.13 1.569.144 3.008.874 3.985 2.023.993 1.167 1.539 2.798 1.609 4.806.011.315.013.867.006 1.226l-.014.654-5.496.007-5.496.007v.242c0 .738.182 1.578.495 2.293.271.616.737 1.289 1.118 1.615a4.944 4.944 0 0 0 2.786 1.163c.389.036 1.378-.001 1.821-.069 1.262-.191 2.463-.68 3.432-1.398a6.87 6.87 0 0 1 .243-.176c.028-.017.035.203.034 1.131l-.001 1.153-.26.158a9.164 9.164 0 0 1-3.683 1.262c-.396.048-1.853.07-2.328.034zm4.783-9.721c0-1.236-.527-2.608-1.273-3.315-.532-.505-1.175-.813-1.94-.93-.362-.055-1.125-.034-1.506.042a3.953 3.953 0 0 0-2.056 1.08 5.531 5.531 0 0 0-1.36 2.15 6.854 6.854 0 0 0-.263 1.058l-.018.13h8.416v-.215zM52.881 32.96l4.147-10.763 4.136-10.73h2.658l.11.28c.336.853 8.278 21.224 8.278 21.235 0 .007-.636.012-1.413.012h-1.414l-1.144-3.01-1.145-3.012h-9.218l-.04.102c-.022.057-.511 1.411-1.087 3.01l-1.047 2.91h-1.416c-1.121 0-1.414-.007-1.405-.034zm13.372-8.285c0-.005-.77-2.068-1.712-4.585-1.761-4.709-1.86-4.992-2-5.748-.064-.354-.097-.364-.136-.04a7.435 7.435 0 0 1-.24 1.035c-.046.142-.84 2.293-1.763 4.78a736.24 736.24 0 0 0-1.68 4.543c0 .013 1.695.023 3.766.023 2.07 0 3.765-.004 3.765-.008zm6.813 7.927v-.392l4.591-6.236 4.592-6.236-4.157-.014-4.158-.014-.007-1.042-.007-1.042h12.026v.704l-4.592 6.27a1997.11 1997.11 0 0 0-4.592 6.283c0 .007 2.041.013 4.537.013h4.537v2.098h-12.77v-.392zm33.696.374c-.01-.01-.018-3.468-.018-7.684v-7.666h2.51v1.58c0 .87.01 1.58.023 1.58s.074-.142.136-.316a5.46 5.46 0 0 1 1.402-2.133 3.651 3.651 0 0 1 1.983-.974c.215-.034.397-.04.827-.03.541.014.823.053 1.152.16l.103.033V20.1l-.296-.147c-.524-.259-1.041-.361-1.662-.33a3.07 3.07 0 0 0-.993.192 3.136 3.136 0 0 0-1.582 1.276 7.367 7.367 0 0 0-1.049 2.982c-.021.183-.033 1.668-.038 4.596l-.007 4.325h-1.236c-.68 0-1.245-.008-1.255-.018zM0 32.922c0-.01 2.764-4.749 6.141-10.532l6.141-10.514 7.157-5.933C23.375 2.679 26.607.005 26.62 0c.014-.005-.038.124-.114.286l-7.772 16.468L11.1 32.926l-5.55.007c-3.052.004-5.55-.001-5.55-.01z" fill="#5E6882"/></g><defs><clipPath id="a"><path fill="#fff" d="M0 0h130v37H0z"/></clipPath></defs></svg>