<svg width="48" height="48" viewBox="0 0 48 48" fill="none" xmlns="http://www.w3.org/2000/svg"><path d="M42 46.5H15a4.504 4.504 0 0 1-4.5-4.5V27a4.504 4.504 0 0 1 4.5-4.5h27a4.504 4.504 0 0 1 4.5 4.5v15a4.504 4.504 0 0 1-4.5 4.5zm-27-21a1.502 1.502 0 0 0-1.5 1.5v15a1.502 1.502 0 0 0 1.5 1.5h27a1.502 1.502 0 0 0 1.5-1.5V27a1.502 1.502 0 0 0-1.5-1.5H15z" fill="#3C50E0"/><path d="M28.5 39a4.5 4.5 0 1 1 0-9 4.5 4.5 0 0 1 0 9zm0-6a1.5 1.5 0 1 0 0 3 1.5 1.5 0 0 0 0-3zM6 39a4.505 4.505 0 0 1-4.5-4.5V6A4.505 4.505 0 0 1 6 1.5h31.5A4.505 4.505 0 0 1 42 6v12.987a1.5 1.5 0 1 1-3 0V6a1.502 1.502 0 0 0-1.5-1.5H6A1.501 1.501 0 0 0 4.5 6v28.5A1.502 1.502 0 0 0 6 36a1.5 1.5 0 1 1 0 3z" fill="#3C50E0"/><path d="M30 15h-4.5a3.003 3.003 0 0 1-3-3V3A1.5 1.5 0 0 1 24 1.5h7.5A1.5 1.5 0 0 1 33 3v9a3.003 3.003 0 0 1-3 3zM25.5 4.5V12h4.502L30 4.5h-4.5z" fill="#3C50E0"/></svg>