<svg width="48" height="48" viewBox="0 0 48 48" fill="none" xmlns="http://www.w3.org/2000/svg"><path d="M33.285 45.488a1.5 1.5 0 0 1-1.466-1.825 3 3 0 0 0-2.929-3.65h-9.78a3 3 0 0 0-2.928 3.65 1.498 1.498 0 0 1-1.134 1.811 1.5 1.5 0 0 1-1.794-1.161 5.999 5.999 0 0 1 5.856-7.3h9.78a6 6 0 0 1 5.856 7.3 1.5 1.5 0 0 1-1.461 1.175zM24 34.012a6.75 6.75 0 1 1 6.75-6.75 6.758 6.758 0 0 1-6.75 6.75zm0-10.5a3.75 3.75 0 1 0 0 7.5 3.75 3.75 0 0 0 0-7.5zM4.216 27.488a1.5 1.5 0 0 1-1.463-1.175 6 6 0 0 1 5.857-7.3H15a1.5 1.5 0 0 1 0 3H8.61a3 3 0 0 0-2.928 3.65 1.5 1.5 0 0 1-1.466 1.825zM13.5 16.012a6.75 6.75 0 1 1 6.75-6.75 6.758 6.758 0 0 1-6.75 6.75zm0-10.5a3.75 3.75 0 1 0 0 7.5 3.75 3.75 0 0 0 0-7.5zm30.285 21.976a1.5 1.5 0 0 1-1.466-1.825 3 3 0 0 0-2.929-3.65H33a1.5 1.5 0 1 1 0-3h6.39a6 6 0 0 1 5.856 7.3 1.5 1.5 0 0 1-1.461 1.175zM34.5 16.012a6.75 6.75 0 1 1 6.75-6.75 6.758 6.758 0 0 1-6.75 6.75zm0-10.5a3.75 3.75 0 1 0 0 7.5 3.75 3.75 0 0 0 0-7.5z" fill="#3C50E0"/></svg>