<svg width="48" height="48" viewBox="0 0 48 48" fill="none" xmlns="http://www.w3.org/2000/svg"><path d="M40.5 4.5H15a1.5 1.5 0 0 0 0 3h25.5A1.5 1.5 0 0 1 42 9v31.647a1.499 1.499 0 0 1-2.035 1.401l-10.614-4.043a4.501 4.501 0 0 0-3.202 0l-10.616 4.043a1.5 1.5 0 0 1-2.033-1.401V33a1.5 1.5 0 1 0-3 0v7.647a4.5 4.5 0 0 0 6.101 4.205l10.614-4.043a1.494 1.494 0 0 1 1.07 0l10.612 4.043A4.5 4.5 0 0 0 45 40.647V9a4.505 4.505 0 0 0-4.5-4.5z" fill="#3C50E0"/><path d="M21 19.5v-3.75a5.25 5.25 0 1 0-10.5 0V21a1.5 1.5 0 1 0 3 0v-5.25a2.25 2.25 0 0 1 4.5 0v3.75a6 6 0 1 1-12 0V6a1.5 1.5 0 0 0-3 0v13.5a9 9 0 0 0 18 0zm12-9a1.5 1.5 0 0 0-1.5 1.5v1.894a4.528 4.528 0 0 0-2.625 4.18A4.463 4.463 0 0 0 33.45 22.5a1.465 1.465 0 0 1 1.425 1.575A1.426 1.426 0 0 1 33.45 25.5H31.5a1.5 1.5 0 1 0 0 3V30a1.5 1.5 0 1 0 3 0v-1.64a4.501 4.501 0 0 0-1.2-8.86 1.465 1.465 0 0 1-1.425-1.575A1.426 1.426 0 0 1 33.3 16.5H36a1.5 1.5 0 1 0 0-3h-1.5V12a1.5 1.5 0 0 0-1.5-1.5z" fill="#3C50E0"/></svg>