<svg width="48" height="48" viewBox="0 0 48 48" fill="none" xmlns="http://www.w3.org/2000/svg"><path d="M38.183 14.392h-14.01l.347-2.077a6.603 6.603 0 0 0-6.514-7.69h-3.741a1.5 1.5 0 0 0-1.48 1.253l-1.42 8.514h-5.24a1.5 1.5 0 0 0-1.5 1.5v26.045a1.5 1.5 0 0 0 1.5 1.5h6.511a1.5 1.5 0 0 0 1.5-1.5v-1.755h18.898a8.051 8.051 0 0 0 7.931-6.879l1.926-13.482a4.755 4.755 0 0 0-4.708-5.43v.001zM11.136 40.437h-3.51V17.392h3.51v23.045zm26.86-7.559a5.037 5.037 0 0 1-4.962 4.304H14.136V16.015l1.4-8.39h2.47a3.605 3.605 0 0 1 3.555 4.198l-.637 3.823c-.007.042.007.081.004.124-.004.042-.025.079-.025.122.008.058.02.116.035.173.016.194.077.383.177.55a1.391 1.391 0 0 0 .878.694c.054.025.108.045.163.063.044.008.085-.008.128-.004.042.004.077.024.12.024h15.78a1.755 1.755 0 0 1 1.738 2.004l-1.926 13.482z" fill="#3C50E0"/></svg>