<svg width="48" height="48" viewBox="0 0 48 48" fill="none" xmlns="http://www.w3.org/2000/svg"><path d="M24.025 17.026c-2.535 0-4.588 2.082-4.588 4.63 0 2.55 2.053 4.63 4.588 4.63 2.536 0 4.59-2.08 4.59-4.63 0-2.548-2.054-4.63-4.59-4.63zm0 7.291c-1.444 0-2.628-1.189-2.628-2.66 0-1.472 1.184-2.661 2.628-2.661 1.445 0 2.63 1.19 2.63 2.66 0 1.472-1.185 2.661-2.63 2.661z" fill="#3C50E0" stroke="#3C50E0"/><path d="M14.264 28.282a11.481 11.481 0 0 1-1.593-3.84l1.593 3.84zm0 0a.962.962 0 0 0 1.41.227l.001-.001m-1.411-.226l1.411.226m-2.559-8.39l-.283.205a.961.961 0 0 1-.162-.766l.445.56zm0 0l-.283.205a.96.96 0 0 0 .677.392m-.394-.597l.394.597m2.165 7.793a1.286 1.286 0 0 1 1.724.093c.469.469.508 1.209.093 1.723a.96.96 0 0 0-.201.756m-1.616-2.572l2.043 3.228m0 0a.96.96 0 0 1-.427-.656m.427.656a11.466 11.466 0 0 0 3.84 1.592m-3.84-1.592l3.84 1.593m-4.267-2.249l.345-.055-.345.056zm4.268 2.249a.965.965 0 0 0 .764-.161m-.764.16l.764-.16m0 0a.961.961 0 0 0 .392-.678m-.392.677l.392-.678m0 0A1.288 1.288 0 0 1 24 31.335c.664 0 1.215.496 1.285 1.154m-2.57 0h2.57m0 0c.028.271.17.518.392.678l-.392-.678zm1.157.84h-.001a.96.96 0 0 1-.764-.162l.765.161zm0 0c1.367-.294 2.66-.83 3.84-1.593m-3.84 1.592l3.84-1.593m0 0a.962.962 0 0 0 .226-1.41A1.288 1.288 0 0 1 30.6 28.6c.47-.47 1.21-.51 1.724-.093m-2.042 3.227l2.043-3.226m0 0a.962.962 0 0 0 1.41-.226m-1.41.226l1.41-.227m0 0a11.481 11.481 0 0 0 1.593-3.84m-1.593 3.84l1.593-3.84m-6.087-7.684a3.21 3.21 0 0 1-.766-3.326 9.553 9.553 0 0 0-1.582-.656A3.208 3.208 0 0 1 24 14.587a3.208 3.208 0 0 1-2.894-1.81c-.546.17-1.074.39-1.582.655a3.21 3.21 0 0 1-.766 3.326h10.484zm0 0a3.208 3.208 0 0 0 3.326.766c.266.508.485 1.036.656 1.582A3.209 3.209 0 0 0 31.414 22c0 1.267.729 2.371 1.81 2.894m-3.982-8.136l3.982 8.136m-19.714-4.18c.659.07 1.155.622 1.155 1.286m-1.155-1.285L14.665 22m0 0c0 .664-.496 1.215-1.155 1.285M14.665 22l-1.155 1.285m0 0a.96.96 0 0 0-.677.391m.677-.391l-.677.391m0 0a.964.964 0 0 0-.162.766l.162-.766zm22.496.766a.961.961 0 0 0-.84-1.157A1.288 1.288 0 0 1 33.336 22l1.994 2.442zm-2.105.452a9.549 9.549 0 0 1-.656 1.581 3.207 3.207 0 0 0-3.326.767l3.982-2.348zm-.198-9.258a.609.609 0 0 0-.481.128l2.441 3.867a11.144 11.144 0 0 0-1.544-3.723.611.611 0 0 0-.416-.272zm2.303 3.921a11.49 11.49 0 0 0-1.593-3.84.96.96 0 0 0-1.411-.226A1.288 1.288 0 0 1 30.6 15.4l4.728 4.158zm-21.065-3.84a11.49 11.49 0 0 0-1.593 3.84l1.593-3.84zm14.978 11.525a3.208 3.208 0 0 0-.766 3.325 9.568 9.568 0 0 1-1.582.657A3.208 3.208 0 0 0 24 29.413c-1.267 0-2.372.73-2.894 1.811a9.545 9.545 0 0 1-1.582-.657 3.208 3.208 0 0 0-.765-3.325 3.207 3.207 0 0 0-3.327-.767 9.544 9.544 0 0 1-.656-1.58A3.208 3.208 0 0 0 16.587 22c0-1.266-.73-2.372-1.811-2.895a9.47 9.47 0 0 1 .656-1.58 3.209 3.209 0 0 0 3.326-.767l10.484 10.484z" fill="#3C50E0" stroke="#3C50E0" stroke-width=".7"/><path fill-rule="evenodd" clip-rule="evenodd" d="M43.62 10.158l-.002-.001c-1.894-1.451-4.103-2.7-6.56-3.716-8.299-3.433-17.814-3.434-26.116 0-2.455 1.015-4.665 2.263-6.56 3.716l-.002.001a1.488 1.488 0 0 0-.58 1.164c-.002.178.002 5.883 2.419 12.822 2.42 6.95 7.287 15.203 17.048 20.324l.004.001c.207.108.44.167.681.167h.095c.242 0 .475-.059.682-.167l.004-.002c9.76-5.12 14.628-13.373 17.048-20.323 2.417-6.94 2.42-12.644 2.419-12.822a1.489 1.489 0 0 0-.58-1.164zm-1.384 1.46l.001-.04a5.887 5.887 0 0 0-.04-.03l.04.03-.001.04zm-5.93-3.358l.006.002-.006-.002zm2.311 15.943c2.09-5.5 2.515-10.344 2.602-12.132-1.54-1.097-3.314-2.067-5.29-2.885-7.578-3.134-16.278-3.135-23.859 0-1.973.816-3.748 1.787-5.288 2.885.087 1.789.516 6.634 2.606 12.135 2.3 6.051 6.59 12.848 14.612 17.286 8.029-4.441 12.32-11.238 14.617-17.289zm-33.433-13.4l-.194.148a.488.488 0 0 0-.19.381c0 .014 0 .105.003.267.035 1.431.383 8.372 3.819 15.842C4.797 19.124 4.798 11.462 4.8 11.332a.488.488 0 0 1 .19-.381c1.817-1.393 3.947-2.599 6.33-3.585l.004-.001-.004.001-.002.001c-2.298.951-4.36 2.107-6.134 3.437z" fill="#3C50E0"/></svg>