<svg width="48" height="48" viewBox="0 0 48 48" fill="none" xmlns="http://www.w3.org/2000/svg"><path d="M24 43.5a19.5 19.5 0 0 0 0-39A1.5 1.5 0 0 0 22.5 6v4.5a1.5 1.5 0 1 0 3 0V7.567A16.5 16.5 0 1 1 7.567 25.5H10.5a1.5 1.5 0 1 0 0-3H6A1.5 1.5 0 0 0 4.5 24 19.522 19.522 0 0 0 24 43.5z" fill="#3C50E0"/><path d="M21.112 23.233A3.02 3.02 0 0 0 21 24a3 3 0 1 0 3-3c-.26.003-.517.041-.767.112L12.31 10.19a1.5 1.5 0 1 0-2.12 2.12l10.922 10.923zM31.5 24a1.5 1.5 0 0 0 1.5 1.5h3a1.5 1.5 0 1 0 0-3h-3a1.5 1.5 0 0 0-1.5 1.5zm-.075-9.546l-2.122 2.121a1.499 1.499 0 0 0 1.634 2.448c.182-.076.347-.186.487-.325l2.122-2.122a1.501 1.501 0 0 0-2.121-2.122z" fill="#3C50E0"/></svg>