<svg width="48" height="48" viewBox="0 0 48 48" fill="none" xmlns="http://www.w3.org/2000/svg"><path fill-rule="evenodd" clip-rule="evenodd" d="M23.45 11.5c-5.959 0-10.883 4.843-11.14 10.997l-.06 1.438H8.6c-2.778 0-5.1 2.326-5.1 5.282 0 2.957 2.322 5.283 5.1 5.283h28.6c3.993 0 7.3-3.338 7.3-7.544 0-4.204-3.307-7.543-7.3-7.543h-3.108l-.383-.926c-1.71-4.129-5.676-6.987-10.259-6.987zM9.443 20.935C10.419 13.933 16.288 8.5 23.45 8.5c5.52 0 10.275 3.233 12.609 7.913H37.2c5.727 0 10.3 4.76 10.3 10.543 0 5.785-4.573 10.544-10.3 10.544H8.6c-4.512 0-8.1-3.747-8.1-8.283 0-4.535 3.588-8.282 8.1-8.282h.843z" fill="#3C50E0"/></svg>