<svg width="48" height="48" viewBox="0 0 48 48" fill="none" xmlns="http://www.w3.org/2000/svg"><path d="M42 36.75H6a4.505 4.505 0 0 1-4.5-4.5v-24A4.505 4.505 0 0 1 6 3.75h18a1.5 1.5 0 0 1 0 3H6a1.501 1.501 0 0 0-1.5 1.5v24a1.502 1.502 0 0 0 1.5 1.5h36a1.502 1.502 0 0 0 1.5-1.5V21.73a1.5 1.5 0 1 1 3 0v10.52a4.504 4.504 0 0 1-4.5 4.5z" fill="#3C50E0"/><path d="M31.5 44.25h-15a1.5 1.5 0 0 1-1.47-1.794l1.5-7.5A1.5 1.5 0 0 1 18 33.75h12a1.5 1.5 0 0 1 1.47 1.206l1.5 7.5a1.5 1.5 0 0 1-1.47 1.794zm-13.17-3h11.34l-.9-4.5h-9.541l-.899 4.5z" fill="#3C50E0"/><path d="M37.5 44.25h-27a1.5 1.5 0 1 1 0-3h27a1.5 1.5 0 1 1 0 3zm-22.5-21H9a1.5 1.5 0 1 1 0-3h6a1.5 1.5 0 1 1 0 3zm6 6H9a1.5 1.5 0 1 1 0-3h12a1.5 1.5 0 1 1 0 3zm12-12a1.496 1.496 0 0 1-1.06-.44l-3.75-3.75a1.497 1.497 0 0 1 0-2.12l3.75-3.75a1.5 1.5 0 1 1 2.12 2.12L31.371 12l2.69 2.69A1.5 1.5 0 0 1 33 17.25zm4.502 1.5a1.504 1.504 0 0 1-1.445-1.912l3-10.5a1.5 1.5 0 0 1 2.886.825l-3 10.5a1.503 1.503 0 0 1-1.441 1.088z" fill="#3C50E0"/></svg>