<svg width="48" height="48" viewBox="0 0 48 48" fill="none" xmlns="http://www.w3.org/2000/svg"><path d="M9 36a1.5 1.5 0 0 1-1.5-1.5 17.143 17.143 0 0 0-2.763-9.23A17.147 17.147 0 0 1 1.5 16.5a15 15 0 0 1 30 0 17.147 17.147 0 0 1-3.236 8.77A17.141 17.141 0 0 0 25.5 34.5 1.5 1.5 0 0 1 24 36H9zm1.441-3.002L22.56 33a20.29 20.29 0 0 1 3.177-9.347A14.594 14.594 0 0 0 28.5 16.5a12 12 0 0 0-24 0 14.595 14.595 0 0 0 2.763 7.153 20.282 20.282 0 0 1 3.178 9.346zM22.5 42h-12a1.5 1.5 0 1 1 0-3h12a1.5 1.5 0 1 1 0 3zM42 46.5H27a1.5 1.5 0 1 1 0-3h15a1.502 1.502 0 0 0 1.5-1.5V18a1.502 1.502 0 0 0-1.5-1.5h-6.691a1.5 1.5 0 1 1 0-3H42a4.504 4.504 0 0 1 4.5 4.5v24a4.504 4.504 0 0 1-4.5 4.5z" fill="#3C50E0"/><path d="M39 34.5h-6a1.5 1.5 0 1 1 0-3h6a1.5 1.5 0 1 1 0 3zm0 6h-9a1.5 1.5 0 1 1 0-3h9a1.5 1.5 0 1 1 0 3z" fill="#3C50E0"/></svg>