<svg width="48" height="48" viewBox="0 0 48 48" fill="none" xmlns="http://www.w3.org/2000/svg"><path d="M33.697 41.56a1.496 1.496 0 0 1-1.06-.44l-8.487-8.484a1.5 1.5 0 0 1-.225-1.833l6.365-10.606a1.5 1.5 0 0 1 2.346-.289l12.728 12.728a1.5 1.5 0 0 1-.288 2.347l-10.607 6.363c-.234.14-.5.214-.772.214zm-6.598-10.218l6.831 6.83 7.954-4.773-10.01-10.012-4.775 7.956z" fill="#3C50E0"/><path d="M28.392 45.619a4.49 4.49 0 0 1-3.181-1.314l-4.242-4.245a4.497 4.497 0 0 1 0-6.363l3.181-3.182a1.498 1.498 0 0 1 2.121 0L34.757 39a1.5 1.5 0 0 1 0 2.121l-3.182 3.182a4.492 4.492 0 0 1-3.183 1.316zm-3.181-11.922l-2.121 2.12a1.5 1.5 0 0 0 0 2.12l4.242 4.245a1.504 1.504 0 0 0 2.122-.001l2.121-2.121-6.364-6.363z" fill="#3C50E0"/><path d="M37.939 45.803a1.497 1.497 0 0 1-1.06-.439l-4.243-4.244a1.498 1.498 0 0 1 .47-2.473 1.5 1.5 0 0 1 1.651.353L39 43.243a1.5 1.5 0 0 1-1.06 2.56h-.001zM4.447 37.447a1.5 1.5 0 0 1-1.06-2.561l5.25-5.25a1.5 1.5 0 0 1 2.308.229l1.985 2.978 7.707-7.707a1.5 1.5 0 0 1 2.12 2.121l-9 9a1.5 1.5 0 0 1-2.308-.228L9.464 33.05l-3.957 3.957a1.495 1.495 0 0 1-1.06.44zm36.675-5.432a1.5 1.5 0 0 1-1.06-2.56 3 3 0 1 0-4.244-4.244 1.5 1.5 0 0 1-2.121-2.121 6 6 0 1 1 8.485 8.485 1.495 1.495 0 0 1-1.06.44zM8.068 26.197a1.5 1.5 0 0 1-1.5-1.5v-3H5.197a3.004 3.004 0 0 1-3-3v-13.5a3.004 3.004 0 0 1 3-3h18a3.004 3.004 0 0 1 3 3v13.5a3.004 3.004 0 0 1-3 3h-7.09l-7.278 4.291a1.49 1.49 0 0 1-.761.209zm-2.871-21v13.5h2.87a1.5 1.5 0 0 1 1.5 1.5v1.873l5.015-2.957a3.005 3.005 0 0 1 1.525-.416h7.09v-13.5h-18z" fill="#3C50E0"/></svg>