<svg width="48" height="48" viewBox="0 0 48 48" fill="none" xmlns="http://www.w3.org/2000/svg"><path fill-rule="evenodd" clip-rule="evenodd" d="M12.5 7A4.5 4.5 0 0 1 17 2.5h14A4.5 4.5 0 0 1 35.5 7v14c0 .526-.09 1.03-.256 1.5H41a4.5 4.5 0 0 1 4.5 4.5v14a4.5 4.5 0 0 1-4.5 4.5H27a4.484 4.484 0 0 1-3-1.146 4.484 4.484 0 0 1-3 1.146H7A4.5 4.5 0 0 1 2.5 41V27A4.5 4.5 0 0 1 7 22.5h5.756A4.49 4.49 0 0 1 12.5 21V7zm10-1.5v5a1.5 1.5 0 0 0 3 0v-5H31A1.5 1.5 0 0 1 32.5 7v14a1.5 1.5 0 0 1-1.5 1.5H17a1.5 1.5 0 0 1-1.5-1.5V7A1.5 1.5 0 0 1 17 5.5h5.5zM7 25.5h5.5v5a1.5 1.5 0 0 0 3 0v-5H21a1.5 1.5 0 0 1 1.5 1.5v14a1.5 1.5 0 0 1-1.5 1.5H7A1.5 1.5 0 0 1 5.5 41V27A1.5 1.5 0 0 1 7 25.5zM25.5 27a1.5 1.5 0 0 1 1.5-1.5h5.5v5a1.5 1.5 0 0 0 3 0v-5H41a1.5 1.5 0 0 1 1.5 1.5v14a1.5 1.5 0 0 1-1.5 1.5H27a1.5 1.5 0 0 1-1.5-1.5V27z" fill="#3C50E0"/></svg>