<svg width="48" height="48" viewBox="0 0 48 48" fill="none" xmlns="http://www.w3.org/2000/svg"><path d="M40.5 43.5h-33A4.505 4.505 0 0 1 3 39V13.5A4.505 4.505 0 0 1 7.5 9h33a4.505 4.505 0 0 1 4.5 4.5V39a4.504 4.504 0 0 1-4.5 4.5zM7.5 12A1.502 1.502 0 0 0 6 13.5V39a1.502 1.502 0 0 0 1.5 1.5h33A1.502 1.502 0 0 0 42 39V13.5a1.502 1.502 0 0 0-1.5-1.5h-33z" fill="#3C50E0"/><path d="M43.5 19.5h-39a1.5 1.5 0 1 1 0-3h39a1.5 1.5 0 1 1 0 3zm-30-7.5a1.5 1.5 0 0 1-1.5-1.5v-6a1.5 1.5 0 1 1 3 0v6a1.5 1.5 0 0 1-1.5 1.5zm21 0a1.5 1.5 0 0 1-1.5-1.5v-6a1.5 1.5 0 1 1 3 0v6a1.5 1.5 0 0 1-1.5 1.5zm3 21h-9a1.5 1.5 0 1 1 0-3h9a1.5 1.5 0 1 1 0 3z" fill="#3C50E0"/><path d="M33 37.5a1.5 1.5 0 0 1-1.5-1.5v-9a1.5 1.5 0 1 1 3 0v9a1.5 1.5 0 0 1-1.5 1.5z" fill="#3C50E0"/></svg>