<svg width="48" height="48" viewBox="0 0 48 48" fill="none" xmlns="http://www.w3.org/2000/svg"><path d="M7 31v12m20-21v21m-7-12v12m20-21v21" stroke="#3C50E0" stroke-width="2.5"/><ellipse cx="13.5" cy="30.5" rx="6.5" ry="2.5" stroke="#3C50E0" stroke-width="2.5"/><ellipse cx="33.5" cy="22.5" rx="6.5" ry="2.5" stroke="#3C50E0" stroke-width="2.5"/><path d="M20 43c0 1.38-2.91 2.5-6.5 2.5S7 44.38 7 43m33 0c0 1.38-2.91 2.5-6.5 2.5S27 44.38 27 43" stroke="#3C50E0" stroke-width="2.5"/><circle cx="13.5" cy="16.5" r="6.5" stroke="#3C50E0" stroke-width="2.5"/><circle cx="33.5" cy="8.5" r="6.5" stroke="#3C50E0" stroke-width="2.5"/><path d="M34.075 7.718h-.025V6.145a2.7 2.7 0 0 1 1.196.486l.544-.77a3.498 3.498 0 0 0-1.74-.628v-.426h-.535v.418c-.54.029-.98.195-1.318.502-.337.307-.505.701-.506 1.184 0 .482.146.847.44 1.092.293.246.754.444 1.383.594v1.623c-.495-.078-.978-.321-1.447-.728l-.61.727c.607.53 1.293.833 2.057.912v.61h.536v-.601c.57-.028 1.027-.196 1.372-.502.346-.306.519-.704.519-1.192s-.15-.86-.452-1.117c-.302-.256-.773-.46-1.414-.611zm-.56-.15c-.313-.101-.524-.206-.636-.314a.59.59 0 0 1-.167-.444c0-.187.07-.342.213-.468.142-.125.339-.2.589-.222v1.447zm1.17 2.442c-.156.128-.368.207-.635.234V8.74c.334.1.563.208.686.322.123.114.184.27.184.464a.604.604 0 0 1-.235.485zm-21.067 5.9h-.024v-1.572a2.7 2.7 0 0 1 1.195.485l.544-.77a3.499 3.499 0 0 0-1.74-.627V13h-.535v.418c-.54.029-.98.195-1.318.502-.337.307-.505.701-.506 1.184 0 .482.146.847.44 1.092.293.245.754.443 1.383.594v1.622c-.495-.078-.978-.32-1.447-.728l-.61.728c.607.53 1.293.833 2.057.912v.61h.537v-.602c.568-.027 1.026-.195 1.371-.502.346-.306.519-.703.519-1.191 0-.488-.15-.86-.452-1.117-.302-.256-.773-.46-1.414-.611zm-.56-.15c-.313-.1-.524-.205-.636-.313a.59.59 0 0 1-.168-.444.6.6 0 0 1 .214-.469c.142-.125.338-.199.589-.221v1.447zm1.17 2.443c-.156.128-.368.207-.635.234v-1.505c.334.1.563.208.685.322a.602.602 0 0 1 .184.464.604.604 0 0 1-.234.485z" fill="#3C50E0"/></svg>