<svg width="48" height="48" viewBox="0 0 48 48" fill="none" xmlns="http://www.w3.org/2000/svg"><path d="M35 10.5a1.5 1.5 0 0 0 0 3h1.525L26.24 24.574l-13.45-8.349a1.5 1.5 0 0 0-1.852.214l-7.5 7.5a1.5 1.5 0 0 0 2.122 2.122l6.659-6.66 13.489 8.373a1.5 1.5 0 0 0 1.89-.253L38.5 15.78V16a1.5 1.5 0 0 0 3 0v-4a1.5 1.5 0 0 0-1.5-1.5h-5zm6.5 11a1.5 1.5 0 0 0-3 0V39a1.5 1.5 0 0 0 3 0V21.5z" fill="#3C50E0"/><path d="M13.5 26a1.5 1.5 0 0 0-3 0v13a1.5 1.5 0 0 0 3 0V26zM6 31a1.5 1.5 0 0 0-3 0v8a1.5 1.5 0 0 0 3 0v-8zm13-3.5a1.5 1.5 0 0 1 1.5 1.5v10a1.5 1.5 0 0 1-3 0V29a1.5 1.5 0 0 1 1.5-1.5zm8.5 4.5a1.5 1.5 0 0 0-3 0v7a1.5 1.5 0 0 0 3 0v-7zm5.5-6.5a1.5 1.5 0 0 1 1.5 1.5v12a1.5 1.5 0 0 1-3 0V27a1.5 1.5 0 0 1 1.5-1.5z" fill="#3C50E0"/></svg>