<svg width="111" height="31" viewBox="0 0 111 31" fill="none" xmlns="http://www.w3.org/2000/svg">
<path fill-rule="evenodd" clip-rule="evenodd" d="M9.90506 0.130236C4.41843 1.07254 1.44144 4.41204 0.298342 10.9065C-0.0763046 13.0354 -0.103947 18.186 0.248586 20.2012C0.846812 23.622 1.98361 26.0536 3.80361 27.806C5.2518 29.2002 6.9354 30.0433 9.35093 30.5837C11.1218 30.9799 14.958 31.0172 16.6902 30.6551C18.4675 30.2835 20.9335 29.3071 21.5726 28.7219C21.7819 28.5303 21.7976 27.9909 21.7976 21.0094C21.7976 15.3493 21.7597 13.4635 21.6433 13.3425C21.5289 13.2235 20.254 13.1821 16.7026 13.1821C12.5228 13.1821 11.8907 13.2087 11.7141 13.3921C11.5453 13.5678 11.5122 14.0021 11.5122 16.0393C11.5122 17.7567 11.5577 18.5239 11.6664 18.637C11.7725 18.7473 12.415 18.7974 13.7235 18.7974H15.6263V21.7362V24.675L15.2728 24.7778C15.0784 24.8344 13.9935 24.8789 12.8621 24.8769C10.3696 24.8724 9.75926 24.6814 8.56744 23.5342C7.16888 22.1876 6.44118 20.1411 6.25412 17.0276C5.93385 11.698 7.10215 8.21869 9.6924 6.78759C11.5174 5.77937 15.0223 5.67281 18.2353 6.52794C19.1144 6.76192 19.3877 6.79173 19.4647 6.66231C19.5191 6.57073 19.8131 5.40181 20.118 4.06456L20.6724 1.63327L20.3873 1.39315C19.997 1.06438 18.2938 0.521436 16.8698 0.271688C15.2395 -0.0141579 11.2208 -0.0958471 9.90506 0.130236ZM49.2147 1.10409C48.9848 1.20062 48.9784 30.0296 49.2082 30.2687C49.4421 30.5119 54.7558 30.4946 54.951 30.25C55.0502 30.1256 55.1042 28.1935 55.1275 23.9327L55.1609 17.7947L59.243 17.7594L63.325 17.7241V23.9162C63.325 28.554 63.3637 30.1485 63.4793 30.2687C63.5896 30.3834 64.4115 30.4291 66.3629 30.4291C68.6726 30.4291 69.1233 30.3968 69.2943 30.2191C69.4754 30.0307 69.4962 28.5319 69.4962 15.7223C69.4962 2.91276 69.4754 1.414 69.2943 1.22562C69.1236 1.04834 68.6812 1.01558 66.4573 1.01558C64.8868 1.01558 63.7219 1.07147 63.5736 1.15396C63.3341 1.28726 63.325 1.48981 63.325 6.63557V11.9788H59.2108H55.0966V6.65763C55.0966 2.69723 55.0572 1.29541 54.9424 1.17602C54.8314 1.06064 54.0271 1.01852 52.0817 1.02615C50.5933 1.03189 49.3031 1.06706 49.2147 1.10409ZM92.7118 1.22562C92.5307 1.414 92.5099 2.91276 92.5099 15.7223C92.5099 28.5319 92.5307 30.0307 92.7118 30.2191C92.8774 30.3911 93.259 30.4291 94.8241 30.4291C96.9164 30.4291 97.1364 30.3552 97.1402 29.6509C97.144 28.9686 97.3047 28.9039 97.9226 29.336C99.4173 30.3811 101.203 30.8755 103.502 30.8814C105.255 30.886 106.122 30.7116 107.227 30.1334C109.62 28.8808 110.787 26.0183 110.979 20.9301C111.221 14.5098 109.416 10.8041 105.65 9.98738C103.839 9.59484 101.279 9.89111 99.533 10.695C99.1176 10.8864 98.7559 11.0429 98.7295 11.0429C98.7029 11.0429 98.6811 8.85897 98.6811 6.18969C98.6811 2.59322 98.6411 1.29488 98.5268 1.17602C98.4165 1.06131 97.5946 1.01558 95.6432 1.01558C93.3335 1.01558 92.8828 1.04794 92.7118 1.22562ZM26.9034 1.87419C24.5597 2.52971 23.7216 5.69113 25.3835 7.60836C26.9709 9.43948 29.8327 9.03037 30.8709 6.82368C31.789 4.87236 30.8201 2.49963 28.8576 1.89358C28.0573 1.64637 27.7297 1.64316 26.9034 1.87419ZM36.1567 4.71206C36.1082 4.76247 36.0686 6.08487 36.0686 7.65074V10.4978L35.5865 10.6286C35.3214 10.7005 34.7283 10.8548 34.2687 10.9717C32.7177 11.3655 32.8425 11.1397 32.8832 13.4816L32.9187 15.5218L34.4615 15.5886L36.0043 15.6555L36.0707 20.9366C36.1409 26.5211 36.1513 26.6203 36.8043 27.9433C37.407 29.1645 38.9034 30.2485 40.5267 30.6399C42.1511 31.0317 45.6898 30.8131 46.3039 30.2831C46.5361 30.0828 46.5668 25.9533 46.3372 25.8057C46.2572 25.7544 45.5775 25.7057 44.8265 25.6975C43.2645 25.6807 42.7612 25.4764 42.3086 24.6754C42.0602 24.2356 42.047 23.9961 42.047 19.9338V15.6555L44.1041 15.6201C45.8533 15.59 46.1852 15.5511 46.3219 15.3606C46.4349 15.2029 46.4826 14.4969 46.4826 12.9815C46.4826 11.4662 46.4349 10.7601 46.3219 10.6025C46.1852 10.412 45.8533 10.3731 44.1041 10.343L42.047 10.3076L41.9827 7.49993L41.9184 4.69227L39.0816 4.65631C37.5214 4.63666 36.2051 4.66166 36.1567 4.71206ZM24.9089 10.5349C24.7918 10.6567 24.7546 13.018 24.7546 20.3454C24.7546 29.1519 24.7732 30.0113 24.9669 30.1788C25.1276 30.3177 25.8121 30.3722 27.7881 30.4033C30.2773 30.4423 30.4092 30.4317 30.6614 30.1693C30.9234 29.8969 30.9259 29.8042 30.9259 20.2948C30.9259 13.0068 30.8887 10.6567 30.7716 10.5349C30.553 10.3076 25.1275 10.3076 24.9089 10.5349ZM72.2283 10.4629C71.9802 10.5671 72.0027 25.0748 72.2527 26.302C72.8506 29.2348 74.7799 30.6956 78.3544 30.9221C80.4643 31.0558 82.7828 30.5264 84.6523 29.4843C85.033 29.2721 85.3945 29.1306 85.4559 29.1701C85.5171 29.2094 85.5672 29.4142 85.5672 29.6253C85.5672 30.3474 85.7876 30.4291 87.7363 30.4291C88.9377 30.4291 89.5506 30.3779 89.6557 30.2687C89.7728 30.1469 89.8099 27.7554 89.8099 20.3225C89.8099 11.5225 89.7895 10.5286 89.6066 10.4556C89.2017 10.2939 84.0846 10.3653 83.9215 10.5349C83.8054 10.6556 83.7673 12.4417 83.7673 17.7519V24.8083L83.2813 25.0662C81.8786 25.8104 79.7994 25.9762 79.049 25.4037C78.2269 24.7766 78.2392 24.8978 78.2391 17.5033C78.2388 11.5829 78.2151 10.7699 78.0369 10.5845C77.8652 10.406 77.425 10.376 75.1119 10.385C73.6143 10.3907 72.3167 10.4259 72.2283 10.4629ZM103.294 15.3283C104.502 16.0344 104.912 17.3033 104.909 20.3349C104.907 24.5842 104.262 25.7395 101.892 25.7467C100.866 25.7498 99.4371 25.4104 98.8805 25.0311L98.5526 24.8076V20.327V15.8466L99.1633 15.5737C100.754 14.8631 102.337 14.7689 103.294 15.3283Z" fill="#5E6882"/>
</svg>
