<svg width="183" height="34" viewBox="0 0 183 34" fill="none" xmlns="http://www.w3.org/2000/svg">
<g clip-path="url(#clip0)">
<path d="M39.7681 7.09231H31.8633V1.84033H53.3801V7.09231H45.4754V27.6752H39.7681V7.09231Z" fill="#5E6882"/>
<path d="M47.459 17.8998V17.8391C47.459 12.1925 51.4877 7.54767 57.2865 7.54767C63.9095 7.54767 66.9615 12.6782 66.9615 18.2945C66.9615 18.7499 66.931 19.266 66.9004 19.7821H53.0747C53.6241 22.3321 55.4248 23.6679 57.9275 23.6679C59.8197 23.6679 61.1931 23.0911 62.7497 21.6339L65.9848 24.4876C64.1231 26.7645 61.4678 28.1913 57.8664 28.1913C51.8844 28.1306 47.459 23.9411 47.459 17.8998ZM61.4983 16.2301C61.1626 13.7104 59.6671 12.0103 57.3171 12.0103C54.967 12.0103 53.4715 13.68 53.0137 16.2301H61.4983Z" fill="#5E6882"/>
<path d="M67.3584 21.9982V21.9375C67.3584 17.6266 70.6546 15.623 75.3547 15.623C77.3691 15.623 78.8035 15.9569 80.2075 16.4426V16.1087C80.2075 13.7711 78.773 12.4961 75.9346 12.4961C73.7982 12.4961 72.2722 12.8907 70.441 13.5586L69.037 9.27809C71.2345 8.30663 73.3709 7.69946 76.7587 7.69946C79.8412 7.69946 82.0692 8.51914 83.4731 9.91562C84.9686 11.4032 85.6096 13.5586 85.6096 16.2301V27.7056H80.1464V25.5805C78.773 27.0984 76.8807 28.1002 74.1339 28.1002C70.4104 28.0395 67.3584 25.9144 67.3584 21.9982ZM80.299 20.6928V19.691C79.3224 19.2356 78.071 18.9624 76.6976 18.9624C74.2865 18.9624 72.791 19.9338 72.791 21.6946V21.7553C72.791 23.2733 74.0424 24.1536 75.8736 24.1536C78.4983 24.184 80.299 22.7268 80.299 20.6928Z" fill="#5E6882"/>
<path d="M86.7693 7.91197H92.4155V10.7049C93.7279 9.03522 95.4065 7.54767 98.2755 7.54767C100.87 7.54767 102.823 8.70128 103.861 10.6746C105.6 8.64057 107.676 7.54767 110.392 7.54767C114.573 7.54767 117.107 10.0674 117.107 14.8033V27.6752H111.46V16.6551C111.46 14.014 110.27 12.6479 108.164 12.6479C106.058 12.6479 104.746 14.014 104.746 16.6551V27.6752H99.0995V16.6551C99.0995 14.014 97.9092 12.6479 95.8033 12.6479C93.6974 12.6479 92.385 14.014 92.385 16.6551V27.6752H86.7388V7.91197H86.7693Z" fill="#5E6882"/>
<path d="M117.748 14.8337V14.773C117.748 7.42628 123.302 1.41534 131.268 1.41534C136.151 1.41534 139.081 3.02433 141.492 5.39228L137.891 9.55136C135.877 7.72986 133.862 6.63697 131.268 6.63697C126.904 6.63697 123.73 10.2496 123.73 14.6819V14.7426C123.73 19.1749 126.812 22.8483 131.268 22.8483C134.229 22.8483 136.06 21.6643 138.105 19.8125L141.737 23.4555C139.081 26.3091 136.09 28.0699 131.085 28.0699C123.424 28.1306 117.748 22.2411 117.748 14.8337Z" fill="#5E6882"/>
<path d="M142.286 0.747437H148.207V5.72619H142.286V0.747437ZM142.438 7.91199H148.085V27.6752H142.438V7.91199Z" fill="#5E6882"/>
<path d="M151.411 22.0589V12.7086H149.031V7.91199H151.411V2.84216H157.058V7.88164H161.727V12.6782H157.058V21.1178C157.058 22.4232 157.607 23.0304 158.889 23.0304C159.927 23.0304 160.842 22.7572 161.666 22.3322V26.8556C160.476 27.5538 159.102 28.0092 157.21 28.0092C153.761 28.0092 151.411 26.643 151.411 22.0589Z" fill="#5E6882"/>
<path d="M177.14 7.91201H183L175.37 28.161C173.844 32.1683 172.226 33.6862 168.838 33.6862C166.794 33.6862 165.268 33.1701 163.833 32.3201L165.725 28.252C166.458 28.7074 167.404 29.0414 168.137 29.0414C169.113 29.0414 169.632 28.7378 170.09 27.736L162.307 7.88165H168.289L172.806 21.3304L177.14 7.91201Z" fill="#5E6882"/>
<path d="M25.9423 1.87073H0V27.6753H25.9423V1.87073Z" fill="#5E6882"/>
<path d="M4.39495 6.39403H2.41113V5.08862H7.78271V6.39403H5.79889V11.5246H4.39495V6.39403Z" fill="white"/>
<path d="M7.87451 8.33699C7.87451 6.48514 9.27845 4.96722 11.2623 4.96722C12.4831 4.96722 13.2156 5.36188 13.826 5.96905L12.9104 7.00123C12.422 6.54585 11.9032 6.27263 11.2623 6.27263C10.1635 6.27263 9.37001 7.18338 9.37001 8.27628V8.30663C9.37001 9.39953 10.133 10.3406 11.2623 10.3406C11.9948 10.3406 12.4526 10.0371 12.9714 9.58168L13.887 10.4924C13.2156 11.1907 12.4831 11.646 11.2317 11.646C9.27845 11.646 7.87451 10.1888 7.87451 8.33699Z" fill="white"/>
<path d="M12.1471 22.8483H2.41113V24.4573H12.1471V22.8483Z" fill="white"/>
</g>
<defs>
<clipPath id="clip0">
<rect width="183" height="32.9387" fill="white" transform="translate(0 0.747437)"/>
</clipPath>
</defs>
</svg>
