<svg width="196" height="49" viewBox="0 0 196 49" fill="none" xmlns="http://www.w3.org/2000/svg">
<g clip-path="url(#clip0)">
<path d="M64.1153 16.0701H57.1455V11.8405H75.8125V16.0701H68.8349V37.2018H64.1309L64.1153 16.0701Z" fill="#5E6882"/>
<path d="M80.1169 33.7767C82.0101 33.767 83.8913 33.4718 85.699 32.9006L86.4124 36.4053C84.2603 37.1931 81.989 37.5921 79.7014 37.5841C73.9704 37.5841 71.979 34.8839 71.979 30.4154V25.5168C71.979 21.5979 73.7038 18.2844 79.5524 18.2844C85.4011 18.2844 86.7104 21.7492 86.7104 25.7478V29.7304H76.5184V30.6862C76.5576 32.9006 77.3416 33.7767 80.1169 33.7767ZM76.5576 25.9947H82.367V25.0548C82.367 23.3025 81.8417 22.0838 79.5916 22.0838C77.3416 22.0838 76.5576 23.3025 76.5576 25.0548V25.9947ZM98.9329 22.5458C97.2491 23.3173 95.6266 24.22 94.08 25.246V37.1938H89.5092V18.6587H93.3665L93.6644 20.7138C95.1516 19.6908 96.7648 18.8713 98.4625 18.2764L98.9329 22.5458ZM110.097 22.5458C108.419 23.318 106.801 24.2207 105.26 25.246V37.1938H100.689V18.6587H104.546L104.844 20.7138C106.331 19.6908 107.945 18.8713 109.642 18.2764L110.097 22.5458ZM125.393 37.2018H121.645L121.308 35.9433C119.691 37.0122 117.804 37.5821 115.875 37.5841C112.543 37.5841 111.116 35.2583 111.116 32.0642C111.116 28.2967 112.731 26.847 116.44 26.847H120.822V24.9035C120.822 22.8484 120.258 22.1236 117.333 22.1236C115.633 22.143 113.939 22.3352 112.277 22.6971L111.712 19.1526C113.755 18.5783 115.864 18.2836 117.984 18.2764C123.715 18.2764 125.409 20.3314 125.409 24.9752L125.393 37.2018ZM120.822 30.1924H117.451C115.954 30.1924 115.538 30.6145 115.538 32.0164C115.538 33.4183 115.954 33.8803 117.373 33.8803C118.583 33.8616 119.77 33.5328 120.822 32.9245V30.1924ZM139.442 14.4292C138.579 14.2407 137.699 14.1393 136.816 14.1265C135.02 14.1265 134.754 14.923 134.754 16.3329V18.6587H139.403L139.144 22.3546H134.762V37.2018H130.191V22.3546H127.267V18.6587H130.191V16.07C130.191 12.2228 131.955 10.3191 136 10.3191C137.325 10.314 138.644 10.4936 139.92 10.8528L139.442 14.4292ZM148.364 37.5841C142.092 37.5841 140.422 34.0794 140.422 30.272V25.5885C140.422 21.7811 142.108 18.2764 148.364 18.2764C154.62 18.2764 156.306 21.7811 156.306 25.5885V30.272C156.314 34.0794 154.62 37.5841 148.364 37.5841ZM148.364 22.2351C145.926 22.2351 144.993 23.3423 144.993 25.4212V30.4074C144.993 32.5023 145.934 33.5935 148.364 33.5935C150.795 33.5935 151.735 32.4864 151.735 30.4074V25.4371C151.735 23.3423 150.802 22.2351 148.364 22.2351ZM168.074 22.5458C166.395 23.318 164.778 24.2207 163.237 25.246V37.1938H158.666V18.6587H162.523L162.821 20.7138C164.308 19.6908 165.921 18.8712 167.619 18.2764L168.074 22.5458ZM180.634 37.2018V24.2583C180.634 23.2706 180.218 22.7768 179.175 22.7768C177.5 22.9789 175.882 23.5206 174.416 24.3698V37.2018H169.846V18.6587H173.335L173.781 20.2518C176.06 19.0811 178.554 18.4082 181.104 18.2764C181.81 18.2089 182.519 18.3629 183.135 18.7175C183.752 19.0722 184.247 19.6104 184.554 20.2597C186.834 19.0719 189.339 18.3955 191.9 18.2764C194.934 18.2764 196.023 20.4429 196.023 23.7565V37.2018H191.453V24.2583C191.453 23.2706 191.037 22.7768 189.995 22.7768C188.316 22.9645 186.695 23.5072 185.236 24.3698V37.2018H180.634Z" fill="#5E6882"/>
<path d="M28.5376 16.5958V31.674L41.3952 24.1389V9.04474L28.5376 16.5958Z" fill="#5E6882"/>
<path d="M14.2686 9.04474L27.1262 16.5958V31.674L14.2686 24.1309V9.04474Z" fill="#5E6882"/>
<path d="M0 0.625671V15.7118L12.8576 23.2549V8.16874L0 0.625671ZM14.2688 40.874L27.1264 48.4171V33.3309L14.2688 25.7878V40.874Z" fill="#5E6882"/>
</g>
<defs>
<clipPath id="clip0">
<rect width="196" height="47.9109" fill="white" transform="translate(0 0.505981)"/>
</clipPath>
</defs>
</svg>
