<svg width="163" height="43" viewBox="0 0 163 43" fill="none" xmlns="http://www.w3.org/2000/svg">
<path fill-rule="evenodd" clip-rule="evenodd" d="M26.6083 1.09738C26.4765 1.1809 26.4446 1.80853 26.4728 3.76454L26.5098 6.3225L29.3449 6.35912C31.5227 6.38723 32.2054 6.35588 32.2894 6.22398C32.4725 5.93624 32.4279 1.33349 32.2403 1.14631C32.0522 0.95872 26.8981 0.913986 26.6083 1.09738ZM12.1423 7.77967C12.1057 7.87495 12.0923 9.07615 12.1128 10.4489L12.1498 12.9448L14.9096 12.9814C16.831 13.0069 17.7262 12.9711 17.8561 12.8636C18.1074 12.6554 18.1294 8.01713 17.8802 7.76859C17.6396 7.52856 12.235 7.53897 12.1423 7.77967ZM19.3234 7.77697C19.2862 7.87373 19.2723 9.07615 19.2928 10.4489L19.3298 12.9448L21.9715 12.9832C23.4244 13.0042 24.7516 12.9875 24.921 12.946L25.2286 12.8706L25.1919 10.2724L25.1551 7.67398L22.273 7.63749C20.0046 7.60884 19.3767 7.63844 19.3234 7.77697ZM26.5023 7.77967C26.4658 7.87495 26.4524 9.07615 26.4728 10.4489L26.5098 12.9448L29.2696 12.9814C31.191 13.0069 32.0862 12.9711 32.2161 12.8636C32.4674 12.6554 32.4894 8.01713 32.2403 7.76859C31.9997 7.52856 26.595 7.53897 26.5023 7.77967ZM45.0788 9.83136C43.9805 11.4819 43.3812 13.4381 43.3781 15.3829C43.3758 16.7939 43.6199 17.89 44.1836 18.9986L44.5817 19.7815L44.216 19.9245C41.7691 20.8811 42.5764 20.8492 20.7116 20.8502C-0.783876 20.8511 0.682744 20.7904 0.206966 21.698C0.0262468 22.0427 -0.0164269 22.4486 0.00511317 23.6215C0.090596 28.2713 1.32353 32.6649 3.48132 36.0098C4.25731 37.2126 6.3196 39.2681 7.36828 39.8841C12.1102 42.6688 20.6054 43.472 28.346 41.8677C30.827 41.3534 33.6507 40.3399 35.8923 39.159C41.6535 36.1243 45.6009 31.5587 48.7416 24.2973L49.3261 22.9458L50.5168 22.8401C53.0715 22.6134 54.9964 21.8122 56.436 20.3761C57.2837 19.5302 58.278 17.8878 58.278 17.3331C58.278 17.0217 57.2295 16.3609 56.1104 15.967C55.3256 15.6906 54.9761 15.6564 52.8984 15.6523L50.5668 15.6478L50.4066 14.972C49.9095 12.8742 48.4012 10.822 46.4346 9.56688C46.0262 9.30631 45.6646 9.09305 45.631 9.09305C45.5974 9.09305 45.3489 9.42524 45.0788 9.83136ZM75.8051 13.3371C74.9425 13.7209 74.941 13.7293 74.941 18.2457C74.941 20.4962 74.9072 22.3376 74.8658 22.3376C74.8245 22.3376 74.3827 22.0922 73.8842 21.7922C72.6773 21.066 71.4761 20.7037 69.9906 20.6177C68.2456 20.5168 67.032 20.7552 65.5665 21.4871C63.9618 22.2884 62.6353 23.5831 61.8489 25.115C61.0568 26.6586 60.9183 27.2774 60.9285 29.2302C60.9385 31.1365 61.1764 32.0563 62.0182 33.4421C63.0622 35.1609 64.8973 36.6566 66.6493 37.2171C67.9046 37.6186 70.2042 37.7141 71.4712 37.4176C74.3509 36.7436 76.835 34.3806 77.7401 31.4543C77.9703 30.7101 77.9891 30.0243 77.9891 22.3741V14.0988L77.5827 13.6999C77.0933 13.2194 76.3916 13.0761 75.8051 13.3371ZM116.328 13.3371C116.104 13.4355 115.799 13.6523 115.65 13.8189C115.385 14.1157 115.379 14.3415 115.34 25.021C115.318 31.0155 115.338 36.128 115.384 36.3824C115.513 37.0929 116.15 37.6094 116.897 37.6094C117.409 37.6094 117.58 37.5362 117.967 37.1499L118.428 36.6904V33.6371V30.5838L119.386 29.948C120.063 29.4993 120.397 29.3498 120.523 29.4401C120.622 29.5105 122.266 31.3158 124.176 33.4518C126.087 35.5879 127.766 37.3972 127.907 37.4725C128.335 37.7006 129.198 37.6336 129.567 37.3437C130.02 36.9885 130.264 36.3632 130.161 35.8192C130.099 35.4873 129.211 34.4088 126.629 31.526C124.732 29.4085 123.177 27.6358 123.174 27.5868C123.171 27.5377 124.69 26.5145 126.549 25.3128C129.573 23.358 129.945 23.0774 130.087 22.6479C130.315 21.9591 130.062 21.1903 129.495 20.845C128.581 20.2889 128.492 20.3293 123.404 23.6215C120.819 25.294 118.642 26.6624 118.566 26.6624C118.474 26.6624 118.428 24.5718 118.428 20.4081C118.428 13.4731 118.459 13.7216 117.534 13.3359C116.985 13.1074 116.849 13.1075 116.328 13.3371ZM4.99495 14.3161C4.8225 14.4883 4.88739 19.2957 5.06458 19.4725C5.31494 19.7222 10.5045 19.6998 10.7139 19.4481C10.8212 19.3191 10.8576 18.4956 10.832 16.7789L10.795 14.2963L7.94147 14.2599C6.37202 14.2399 5.04602 14.2652 4.99495 14.3161ZM12.1724 14.3188C12.1227 14.3683 12.082 15.5477 12.082 16.9398C12.082 19.1228 12.1114 19.4818 12.2963 19.5526C12.4142 19.5977 13.6596 19.6346 15.0638 19.6346C17.2042 19.6346 17.6514 19.6003 17.83 19.4223C18.0066 19.246 18.0428 18.8227 18.0428 16.933C18.0428 15.6809 18.0058 14.5601 17.9606 14.4425C17.8893 14.2571 17.5059 14.2287 15.0705 14.2287C13.5262 14.2287 12.222 14.2692 12.1724 14.3188ZM19.355 14.3161C19.1825 14.4883 19.2474 19.2957 19.4246 19.4725C19.675 19.7222 24.8645 19.6998 25.0739 19.4481C25.1812 19.3191 25.2177 18.4956 25.1921 16.7789L25.1551 14.2963L22.3015 14.2599C20.732 14.2399 19.406 14.2652 19.355 14.3161ZM26.5324 14.3188C26.4827 14.3683 26.4421 15.5477 26.4421 16.9398C26.4421 19.1228 26.4715 19.4818 26.6564 19.5526C27.0282 19.6951 31.8612 19.644 32.1408 19.4948C32.3844 19.3646 32.4028 19.1899 32.4028 17.0056C32.4028 15.7134 32.3658 14.5601 32.3206 14.4425C32.2493 14.2571 31.8659 14.2287 29.4306 14.2287C27.8862 14.2287 26.582 14.2692 26.5324 14.3188ZM33.715 14.3161C33.6639 14.3672 33.6221 15.5477 33.6221 16.9398C33.6221 19.1228 33.6515 19.4818 33.8364 19.5526C34.2722 19.7194 39.1134 19.6427 39.3569 19.4652C39.5643 19.3139 39.5853 19.0274 39.5522 16.796L39.5151 14.2963L36.6615 14.2599C35.0921 14.2399 33.7661 14.2652 33.715 14.3161ZM86.3708 20.7823C84.7221 21.1401 82.8885 22.2907 81.7466 23.6841C79.3806 26.5715 79.1709 30.8174 81.2447 33.8452C82.2962 35.3804 83.8967 36.6307 85.5453 37.2049C86.7219 37.6147 89.1504 37.7206 90.4372 37.4184C92.7904 36.8657 95.0411 35.0512 96.1559 32.8078C97.3968 30.311 97.1923 26.8625 95.6654 24.5411C94.9663 23.4781 93.4855 22.1058 92.4348 21.5471C90.7548 20.6538 88.3568 20.3515 86.3708 20.7823ZM105.043 20.8539C103.544 21.2457 102.515 21.8551 101.287 23.079C99.483 24.8764 98.7606 26.619 98.77 29.1513C98.7793 31.6694 99.4381 33.2575 101.221 35.0583C102.172 36.0201 102.575 36.3191 103.526 36.7693C104.159 37.0692 105 37.381 105.395 37.4621C106.425 37.6735 108.482 37.6436 109.424 37.4037C110.945 37.0164 112.806 35.9168 113.229 35.1555C113.784 34.1572 112.991 32.8792 111.816 32.8792C111.577 32.8792 111.056 33.12 110.489 33.4926C109.249 34.3062 108.386 34.5482 106.986 34.4749C105.566 34.4006 104.35 33.8628 103.398 32.8868C100.553 29.9731 101.811 25.1265 105.72 23.9421C107.44 23.4208 109.111 23.7378 110.701 24.8865C111.965 25.8004 113.425 25.2144 113.41 23.7994C113.404 23.1701 113.172 22.82 112.358 22.2102C110.352 20.7065 107.576 20.1919 105.043 20.8539ZM137.19 20.835C134.729 21.4432 132.537 23.2436 131.492 25.5136C130.926 26.7451 130.755 27.5983 130.755 29.2084C130.755 31.7206 131.415 33.2768 133.258 35.1092C134.58 36.4239 135.541 36.9997 137.074 37.3949C138.165 37.676 140.414 37.6762 141.506 37.3952C143.239 36.9492 145.218 35.6212 145.523 34.7005C145.853 33.7029 145.155 32.7441 144.1 32.7441C143.628 32.7441 143.371 32.8589 142.639 33.3976C141.45 34.2735 140.563 34.541 139.051 34.4799C138.063 34.4399 137.717 34.3611 136.955 34.0012C135.855 33.4826 134.879 32.5482 134.37 31.5277L133.999 30.7844L140.404 30.7168C145.196 30.6663 146.884 30.6064 147.107 30.4792C147.66 30.1637 147.825 29.7674 147.825 28.7555C147.825 25.0552 144.895 21.5713 141.119 20.7833C139.877 20.524 138.368 20.5439 137.19 20.835ZM150.232 20.975L149.789 21.3694V29.095V36.8207L150.232 37.215C150.855 37.7704 151.704 37.7705 152.327 37.2153L152.77 36.8212L152.837 32.3086L152.905 27.796L153.411 26.7754C154.645 24.2858 157.337 23.138 160.028 23.9534C161.482 24.3939 162.183 24.1564 162.59 23.0862C163.092 21.7638 161.616 20.755 158.975 20.6155C156.863 20.504 155.272 20.8968 153.68 21.9232L152.869 22.4461L152.794 21.8851C152.628 20.6484 151.176 20.1329 150.232 20.975ZM71.7627 24.2223C73.9385 25.2907 75.2193 27.6827 74.8217 29.935C74.5045 31.7314 73.3678 33.2244 71.7269 33.9997C70.8751 34.4022 70.7068 34.4334 69.3867 34.4334C68.1035 34.4334 67.8886 34.3964 67.1931 34.0557C65.9981 33.4702 65.1346 32.6115 64.5457 31.4227C64.0634 30.4494 64.0355 30.3223 64.0355 29.1021C64.0355 27.9336 64.0758 27.7277 64.459 26.9327C65.2029 25.3894 66.1864 24.5107 67.827 23.9233C68.9116 23.535 70.6292 23.6654 71.7627 24.2223ZM90.5707 24.1368C91.5634 24.5903 92.7548 25.724 93.2345 26.6717C94.6224 29.4144 93.4906 32.6777 90.693 33.9997C89.8409 34.4023 89.6732 34.4334 88.3499 34.4334C87.0164 34.4334 86.8672 34.4052 86.0326 33.9954C84.9208 33.4494 84.0081 32.4986 83.4331 31.2876C83.042 30.4638 83.0017 30.2589 83.0025 29.095C83.0035 27.9383 83.0456 27.7225 83.4278 26.916C84.1417 25.4091 85.1518 24.5109 86.793 23.9233C87.7854 23.5681 89.543 23.6675 90.5707 24.1368ZM141.516 24.2054C142.57 24.6976 143.52 25.5428 144.046 26.4569C144.76 27.7 145.139 27.6084 139.29 27.6084C133.502 27.6084 133.886 27.6923 134.47 26.5565C135.085 25.3594 136.621 24.1841 138.037 23.8272C138.992 23.5864 140.554 23.7563 141.516 24.2054Z" fill="#5E6882"/>
</svg>
