<svg width="130" height="37" viewBox="0 0 130 37" fill="none" xmlns="http://www.w3.org/2000/svg">
<g clip-path="url(#clip0)">
<path d="M22.3693 35.0241C28.5815 33.9399 33.7124 33.0428 33.7714 33.0304L33.8785 33.008L28.0135 26.116C24.7878 22.3254 22.1486 19.2093 22.1486 19.1914C22.1486 19.1574 28.2047 2.6816 28.2387 2.62299C28.2501 2.60339 32.3714 9.63287 38.2291 19.6629C43.7131 29.0532 48.2345 36.7955 48.2765 36.8681L48.3529 37L29.7136 36.9976L11.0743 36.9953L22.3693 35.0241V35.0241ZM93.8488 33.3573C91.0115 33.1776 89.3614 31.5815 88.9241 28.5939C88.8078 27.7992 88.8073 27.7786 88.7954 22.6192L88.7839 17.6257H90.0396H91.2953L91.3052 22.4557C91.3141 26.8088 91.3197 27.3192 91.3618 27.6254C91.5328 28.8682 91.8732 29.7039 92.4526 30.3038C92.9164 30.7839 93.4593 31.065 94.2109 31.2142C94.5654 31.2846 95.574 31.2847 95.8973 31.2145C96.6592 31.0488 97.2699 30.7213 97.8086 30.1893C98.4226 29.5829 98.8768 28.7226 99.0966 27.7498L99.1707 27.4219L99.1789 22.5511L99.1872 17.6803H100.469H101.751V25.3373V32.9944H100.482H99.2136V31.7795C99.2136 30.9541 99.2044 30.5677 99.185 30.5741C99.1693 30.5793 99.1041 30.6777 99.0402 30.7929C98.603 31.5807 97.8745 32.3011 97.0763 32.7351C96.1194 33.2554 95.1599 33.4404 93.8488 33.3573L93.8488 33.3573ZM122.647 33.3449C121.646 33.2705 120.591 32.9303 119.729 32.4036C117.913 31.2934 116.838 29.4634 116.523 26.945C116.414 26.0735 116.401 24.9029 116.492 24.1624C116.695 22.5078 117.353 20.8835 118.29 19.7239C118.53 19.4266 119.075 18.8882 119.376 18.6509C120.189 18.01 121.139 17.5618 122.148 17.3437C122.736 17.2166 123.772 17.157 124.396 17.2142C125.965 17.3578 127.404 18.0877 128.381 19.2365C129.374 20.4037 129.92 22.0347 129.99 24.0429C130.001 24.3577 130.003 24.9095 129.996 25.2692L129.982 25.9231L124.486 25.93L118.99 25.9369V26.1792C118.99 26.9168 119.172 27.7568 119.485 28.4716C119.756 29.088 120.222 29.761 120.603 30.0867C121.385 30.7546 122.342 31.1543 123.389 31.2505C123.778 31.2862 124.767 31.2486 125.21 31.1815C126.472 30.9898 127.673 30.5006 128.642 29.7826C128.756 29.6982 128.865 29.6192 128.885 29.6073C128.913 29.5897 128.92 29.8104 128.919 30.7381L128.918 31.8907L128.658 32.0494C127.562 32.7194 126.306 33.1496 124.975 33.3107C124.579 33.3587 123.122 33.3801 122.647 33.3449L122.647 33.3449ZM127.43 23.6235C127.43 22.388 126.903 21.0155 126.157 20.3087C125.625 19.8044 124.982 19.4962 124.217 19.3791C123.855 19.3237 123.092 19.3451 122.711 19.4212C121.904 19.5822 121.237 19.9325 120.655 20.5005C120.043 21.0983 119.584 21.8244 119.295 22.6516C119.191 22.9491 119.07 23.4375 119.032 23.7091L119.014 23.8386H123.222H127.43V23.6235ZM52.8811 32.9603C52.8875 32.9416 54.7538 28.098 57.0283 22.1969L61.1638 11.4675L62.4925 11.4675L63.8213 11.4674L63.9315 11.7467C64.2684 12.6002 72.2105 32.9711 72.2105 32.9817C72.2105 32.9886 71.5744 32.9943 70.7969 32.9941L69.3833 32.9939L68.2386 29.9831L67.094 26.9723L62.485 26.9722L57.8761 26.9722L57.836 27.0744C57.814 27.1306 57.3249 28.4853 56.7492 30.0849L55.7025 32.9933L54.2859 32.9938C53.1647 32.9942 52.8718 32.9872 52.8811 32.9602V32.9603ZM66.2527 24.6746C66.2527 24.6698 65.4824 22.6067 64.5409 20.0899C62.7795 15.3814 62.681 15.0981 62.5418 14.3422C62.4766 13.9877 62.4436 13.9778 62.4048 14.3013C62.3771 14.5325 62.2571 15.0498 62.1645 15.3368C62.1186 15.4791 61.3254 17.6299 60.4019 20.1162C59.4784 22.6024 58.7227 24.6472 58.7227 24.66C58.7227 24.6728 60.417 24.6833 62.4877 24.6833C64.5585 24.6833 66.2527 24.6794 66.2527 24.6746V24.6746ZM73.0655 32.6022V32.2101L77.6575 25.9738L82.2494 19.7375L78.0919 19.7239L73.9344 19.7103L73.9272 18.668L73.9199 17.6257H79.9332H85.9465V17.9777V18.3298L81.354 24.6001C78.8282 28.0487 76.7616 30.8762 76.7616 30.8833C76.7616 30.8903 78.8034 30.8961 81.2989 30.8961H85.8362V31.9452V32.9944H79.4509H73.0655V32.6022ZM106.762 32.9762C106.752 32.9662 106.744 29.5082 106.744 25.2919V17.6257H107.999H109.254V19.2062C109.254 20.0754 109.264 20.7866 109.277 20.7866C109.29 20.7866 109.351 20.6443 109.413 20.4704C109.695 19.6735 110.185 18.9289 110.815 18.3371C111.383 17.804 112.032 17.4851 112.798 17.3631C113.013 17.3289 113.195 17.3223 113.625 17.3334C114.166 17.3473 114.448 17.3863 114.777 17.4925L114.88 17.5259V18.8128V20.0997L114.584 19.9531C114.06 19.6941 113.543 19.5916 112.922 19.6235C112.518 19.6443 112.252 19.6956 111.929 19.8154C111.264 20.062 110.724 20.4973 110.347 21.0914C109.802 21.9515 109.413 23.0571 109.298 24.0732C109.277 24.2556 109.265 25.7407 109.26 28.6685L109.253 32.9944H108.017C107.337 32.9944 106.772 32.9862 106.762 32.9762ZM0 32.9223C0 32.9126 2.76354 28.1733 6.1412 22.3904L12.2824 11.8761L19.4392 5.94254C23.3755 2.6791 26.6067 0.00501094 26.6196 0.000134051C26.6326 -0.00474187 26.5808 0.124011 26.5046 0.286252C26.4283 0.448494 22.9312 7.85886 18.7332 16.7537L11.1005 32.9262L5.55027 32.9331C2.49762 32.9369 0 32.932 0 32.9223V32.9223Z" fill="#5E6882"/>
</g>
<defs>
<clipPath id="clip0">
<rect width="130" height="37" fill="white"/>
</clipPath>
</defs>
</svg>
