<svg width="208" height="38" viewBox="0 0 208 38" fill="none" xmlns="http://www.w3.org/2000/svg">
<path fill-rule="evenodd" clip-rule="evenodd" d="M32.7235 8.02198C33.339 8.35172 33.8313 8.88754 34.0365 9.54701L37.1549 23.025C37.237 23.7257 37.0729 24.4263 36.6626 25.0034L28.0048 35.761C27.5534 36.3793 26.8559 36.709 26.1173 36.6266H12.3305C11.633 36.5854 10.9354 36.2556 10.4431 35.761L1.78528 25.0034C1.37496 24.4263 1.21083 23.7257 1.33393 23.025L4.41133 9.46458C4.57546 8.76389 5.02681 8.22807 5.6423 7.93955L18.1571 1.88065C18.4853 1.79822 18.8546 1.79822 19.1829 1.79822C19.5111 1.79822 19.8804 1.83943 20.2087 2.0043L32.7235 8.02198ZM32.0256 22.4479C32.0256 22.4891 32.0667 22.4891 32.1077 22.4891C32.477 22.5716 32.8052 22.9013 32.8463 23.3547C32.7232 23.6844 32.3949 23.9317 32.0256 23.9317C31.9436 23.9317 31.9025 23.9317 31.8205 23.8905C31.7794 23.8493 31.7794 23.8493 31.7384 23.8493C31.6903 23.8493 31.6563 23.8352 31.6282 23.8234C31.6083 23.8152 31.5913 23.8081 31.5743 23.8081C31.4525 23.7775 31.3534 23.7243 31.2433 23.6652C31.205 23.6446 31.1653 23.6233 31.1229 23.602C31.0409 23.602 30.9588 23.5608 30.8767 23.5196H30.8357C30.4254 23.3547 29.974 23.231 29.5227 23.1486H29.4816C29.3585 23.1486 29.2354 23.1898 29.1534 23.2723C29.1534 23.2723 29.1534 23.3135 29.1123 23.3135L28.7841 23.2723C28.0455 25.6216 26.4453 27.6 24.3526 28.8778L24.4757 29.2075C24.4757 29.2075 24.4347 29.2075 24.4347 29.2487C24.3526 29.3724 24.3526 29.5372 24.3937 29.6609C24.5578 30.0731 24.7629 30.4852 25.0502 30.8562V30.9386C25.1322 31.021 25.1733 31.0623 25.2143 31.1447C25.3374 31.2683 25.4195 31.392 25.5015 31.5569C25.5426 31.5981 25.5836 31.6393 25.5836 31.6805C25.5836 31.6805 25.6246 31.6805 25.6246 31.7217C25.7067 31.9278 25.7067 32.1339 25.6656 32.34C25.6246 32.5461 25.4605 32.7109 25.2964 32.7934C25.2707 32.802 25.2468 32.8106 25.2239 32.8188C25.1372 32.85 25.0655 32.8758 24.9681 32.8758C24.6398 32.8758 24.3526 32.6697 24.1885 32.3812C24.1475 32.3812 24.1475 32.34 24.1475 32.34C24.1269 32.3194 24.1167 32.2988 24.1064 32.2782C24.0962 32.2576 24.0859 32.237 24.0654 32.2163C23.9833 32.0927 23.9423 31.9278 23.9013 31.763L23.8192 31.5157V31.4744C23.6961 31.021 23.4909 30.6089 23.2858 30.1967C23.2037 30.0731 23.0806 29.9906 22.9575 29.9494C22.9575 29.9082 22.9575 29.9082 22.9165 29.9082L22.7524 29.6197C22.648 29.6511 22.5409 29.6853 22.4318 29.72C22.1123 29.8219 21.7758 29.9292 21.4393 29.9906C20.7008 30.1967 19.9622 30.2791 19.2236 30.2791C17.9926 30.2791 16.8027 30.0731 15.6538 29.6197L15.4897 29.9494C15.4897 29.97 15.4897 29.9804 15.4845 29.9855C15.4794 29.9906 15.4691 29.9906 15.4487 29.9906C15.3256 30.0318 15.2025 30.1143 15.1204 30.2379C14.9152 30.6501 14.7101 31.0623 14.587 31.5157L14.5049 31.763C14.4844 31.8454 14.4536 31.9175 14.4229 31.9896C14.3921 32.0618 14.3613 32.1339 14.3408 32.2163C14.2998 32.2576 14.2587 32.2988 14.2587 32.34C14.2177 32.34 14.2177 32.3812 14.2177 32.3812C14.0536 32.6697 13.7663 32.8758 13.4381 32.8758C13.356 32.8758 13.2329 32.8346 13.1509 32.7934C12.7816 32.5873 12.6174 32.0927 12.8226 31.6805C12.8636 31.6805 12.8636 31.6393 12.8636 31.6393C12.8841 31.6187 12.8944 31.5981 12.9047 31.5775C12.9149 31.5569 12.9252 31.5363 12.9457 31.5157C12.9997 31.4434 13.0458 31.3711 13.0874 31.3057C13.1408 31.2221 13.1868 31.1498 13.2329 31.1035C13.315 31.021 13.356 30.9798 13.3971 30.8974V30.8562C13.6432 30.4852 13.8894 30.0731 14.0536 29.6609C14.0946 29.5372 14.0946 29.3724 14.0125 29.2487C14.0125 29.2487 13.9715 29.2487 13.9715 29.2075L14.1767 28.919C13.7663 28.7129 13.4381 28.4656 13.0688 28.1771C11.4685 26.9406 10.3196 25.2507 9.70416 23.3547L9.33487 23.3959C9.33487 23.3959 9.33487 23.3547 9.29384 23.3547C9.21178 23.2723 9.08868 23.231 8.96558 23.231H8.92455C8.43217 23.3135 8.02184 23.4371 7.57049 23.602H7.52946C7.4474 23.602 7.36533 23.6432 7.28327 23.6844C7.23744 23.6998 7.18593 23.7208 7.13085 23.7433C7.03797 23.7813 6.93494 23.8234 6.83191 23.8493C6.81949 23.8493 6.79954 23.8455 6.77777 23.8414C6.72763 23.8319 6.66779 23.8206 6.66779 23.8493C6.66779 23.8905 6.66779 23.8905 6.62675 23.8905C6.54469 23.9317 6.50366 23.9317 6.42159 23.9317C6.0523 23.9729 5.68301 23.7256 5.60095 23.3547C5.51889 22.9013 5.80611 22.4891 6.25746 22.4067C6.28108 22.383 6.2911 22.3729 6.30318 22.3686C6.31209 22.3655 6.32211 22.3655 6.33953 22.3655C6.3876 22.3655 6.42159 22.3513 6.44975 22.3396C6.46966 22.3313 6.48666 22.3243 6.50366 22.3243C6.58572 22.3243 6.66779 22.314 6.74985 22.3037C6.83191 22.2934 6.91398 22.2831 6.99604 22.2831C7.07811 22.2418 7.16017 22.2418 7.24223 22.2418C7.73462 22.2006 8.18597 22.1182 8.63733 21.9945C8.76042 21.9121 8.88352 21.8297 8.92455 21.706C8.92455 21.706 8.96558 21.706 8.96558 21.6648L9.29384 21.5824C8.92455 19.233 9.45797 16.8424 10.73 14.8228C10.7505 14.7816 10.771 14.7506 10.7915 14.7197C10.812 14.6888 10.8325 14.6579 10.8531 14.6167L10.6149 14.3774C10.6336 14.2589 10.5587 14.1149 10.4838 14.0397C10.1555 13.7099 9.74519 13.4626 9.33487 13.2153L9.08868 13.0917L9.08865 13.0916C8.92453 13.0092 8.76042 12.9268 8.63733 12.8444C8.59629 12.8444 8.51423 12.7619 8.51423 12.7619C8.51423 12.7619 8.51423 12.7207 8.4732 12.7207C8.14494 12.4322 8.06288 11.9376 8.30907 11.5666C8.43217 11.3605 8.63733 11.2781 8.88352 11.2781C9.08868 11.2781 9.29384 11.3605 9.45797 11.4842L9.499 11.5254C9.51952 11.546 9.54003 11.5563 9.56055 11.5666C9.58107 11.5769 9.60158 11.5872 9.6221 11.6079C9.68365 11.6697 9.73494 11.7315 9.78623 11.7933C9.83752 11.8552 9.88881 11.917 9.95035 11.9788C9.96278 11.9913 9.97896 12.0038 9.99663 12.0174C10.0373 12.0488 10.0859 12.0862 10.1145 12.1437C10.4017 12.4734 10.771 12.8031 11.1403 13.0917C11.2223 13.1329 11.3044 13.1741 11.3865 13.1741C11.4346 13.1741 11.4685 13.16 11.4967 13.1482C11.5166 13.14 11.5336 13.1329 11.5506 13.1329H11.5916L11.8378 13.2977C13.1919 11.8552 14.9563 10.8247 16.8848 10.4126C16.9559 10.4007 17.0261 10.3888 17.0956 10.377C17.5075 10.3072 17.8937 10.2417 18.2799 10.2065L18.3209 9.87674V9.7943C18.444 9.71187 18.485 9.58822 18.5261 9.46457C18.5261 8.96996 18.5261 8.51658 18.444 8.06319V8.02197C18.444 7.93954 18.444 7.85711 18.403 7.77467C18.3619 7.6098 18.3209 7.44494 18.3209 7.28007V7.07398C18.3209 6.8679 18.403 6.66181 18.5671 6.49695C18.7723 6.29086 19.0184 6.16721 19.2646 6.20843C19.675 6.24964 20.0032 6.66181 19.9622 7.07398V7.32129C19.9417 7.40372 19.9314 7.48616 19.9212 7.56859C19.9109 7.65103 19.9006 7.73346 19.8801 7.81589C19.8801 7.85711 19.8699 7.89832 19.8596 7.93954C19.8493 7.98076 19.8391 8.02197 19.8391 8.06319V8.10441C19.757 8.59901 19.757 9.0524 19.757 9.50579C19.7981 9.62944 19.8391 9.75309 19.9622 9.83552V9.7943L20.0032 10.124C21.9317 10.3301 23.8192 11.072 25.3374 12.2673C25.5015 12.4322 25.6759 12.597 25.8503 12.7619C26.0247 12.9268 26.1991 13.0917 26.3632 13.2565L26.6915 13.0504H26.7325C26.7735 13.0917 26.8556 13.0917 26.8966 13.0917C26.9787 13.0917 27.0607 13.0504 27.1428 13.0092C27.5121 12.7619 27.8814 12.4322 28.1686 12.1025C28.181 12.09 28.1972 12.0775 28.2149 12.0639C28.2556 12.0325 28.3041 11.9951 28.3327 11.9376C28.4148 11.8139 28.5379 11.6903 28.661 11.5666C28.702 11.5666 28.7431 11.5254 28.7841 11.4842L28.8251 11.443C28.9892 11.3193 29.1944 11.2369 29.3996 11.2369C29.6047 11.2369 29.8509 11.3605 29.974 11.5254C30.2612 11.8964 30.1792 12.391 29.8099 12.6795C29.8099 12.6952 29.8159 12.705 29.821 12.7133C29.8293 12.7267 29.8353 12.7365 29.8099 12.7619C29.7894 12.7825 29.7689 12.7928 29.7483 12.8031C29.7278 12.8134 29.7073 12.8238 29.6868 12.8444C29.6047 12.8856 29.5329 12.9268 29.4611 12.968C29.3893 13.0092 29.3175 13.0504 29.2354 13.0917L28.9893 13.2153C28.5789 13.4626 28.2096 13.7099 27.8403 14.0397C27.7583 14.1221 27.7173 14.287 27.7173 14.4106V14.4518L27.4711 14.6991C28.1276 15.7295 28.62 16.8836 28.9072 18.0789C29.1534 19.2742 29.2354 20.5107 29.0713 21.706L29.3996 21.7884C29.4406 21.9121 29.5637 22.0357 29.6868 22.077C30.1381 22.2006 30.6305 22.283 31.0819 22.3243H31.1229C31.205 22.3655 31.287 22.3655 31.3691 22.3655C31.5332 22.3655 31.6974 22.3655 31.8615 22.4067C31.9436 22.4067 32.0256 22.4067 32.0256 22.4479ZM10.6149 14.3774L10.6069 14.3694V14.4106C10.6104 14.3998 10.6131 14.3887 10.6149 14.3774ZM19.1415 21.7472L20.2494 21.2114L20.5366 20.0161L19.757 19.0269H18.5261L17.7465 20.0161L18.0337 21.2114L19.1415 21.7472ZM27.1018 21.129C27.1838 20.2634 27.1428 19.3979 26.9376 18.5323C26.7325 17.6667 26.4042 16.8424 25.9529 16.1005L22.8755 18.9033C22.7934 18.9857 22.7524 19.0681 22.7113 19.1918C22.6293 19.5627 22.8344 19.9337 23.2037 20.0161L27.1018 21.129ZM21.3573 16.9661L24.7219 14.5755C23.4909 13.339 21.8907 12.5558 20.0853 12.3498L20.3315 16.5127C20.3315 16.6363 20.3725 16.7188 20.4546 16.8012C20.6597 17.0897 21.0701 17.1309 21.3573 16.9661ZM18.1157 12.3085L17.2951 12.4734C15.859 12.8031 14.5459 13.545 13.4791 14.5755L16.8848 17.0073C16.9105 17.0159 16.9344 17.0245 16.9572 17.0327C17.0439 17.0639 17.1156 17.0897 17.213 17.0897C17.5823 17.0897 17.9106 16.8012 17.9106 16.4302L18.1157 12.3085ZM15.3256 18.8208L12.2892 16.1005C11.3865 17.6255 10.9762 19.3979 11.0993 21.129L15.0794 19.9749C15.2435 19.9337 15.3256 19.8925 15.4076 19.7688C15.6538 19.4803 15.6128 19.0681 15.3256 18.8208ZM15.6538 22.3655L11.5916 23.0662C12.1661 24.7149 13.315 26.1574 14.7511 27.1054L16.3103 23.3135C16.3924 23.1898 16.3924 23.025 16.3514 22.9013C16.3103 22.5716 15.9821 22.3655 15.6538 22.3655ZM19.1415 28.3832C19.757 28.3832 20.3315 28.3007 20.9059 28.1771C21.1931 28.0946 21.4393 28.0534 21.6855 28.0122L21.6855 28.0122L19.716 24.4263L19.716 24.4263C19.5929 24.3027 19.5108 24.2202 19.3877 24.1378C19.1005 23.9729 18.7723 24.0554 18.5671 24.3027L16.5565 27.971C17.3772 28.2183 18.2799 28.3832 19.1415 28.3832ZM23.4499 27.0642C24.4347 26.446 25.2964 25.5804 25.9118 24.5912C26.2401 24.1378 26.4863 23.602 26.6915 23.025L22.5882 22.3243C22.4652 22.3243 22.3421 22.3655 22.219 22.4067L22.219 22.4067C21.9317 22.5304 21.7676 22.8601 21.8497 23.1898L23.4499 27.0642Z" fill="#5E6882"/>
<path d="M200.093 27.5588C200.668 27.6001 201.283 27.5176 201.816 27.3115C202.145 27.1467 202.35 26.7757 202.309 26.4048C202.268 25.9926 202.022 25.6216 201.652 25.498C201.037 25.127 200.339 24.7973 199.642 24.5912C198.944 24.3439 198.329 24.0554 197.754 23.7669C197.221 23.5196 196.77 23.1898 196.318 22.7777C195.908 22.3655 195.621 21.9121 195.415 21.3763C195.169 20.758 195.087 20.0986 195.087 19.4391C195.046 18.0789 195.662 16.76 196.729 15.9357C197.836 15.0701 199.314 14.6579 201.201 14.6579C202.104 14.6579 203.047 14.7404 203.95 14.9464C204.648 15.0701 205.345 15.235 206.043 15.4823L205.263 18.9857C204.689 18.7796 204.155 18.656 203.581 18.4911C202.924 18.3262 202.227 18.285 201.57 18.285C200.175 18.285 199.478 18.656 199.478 19.4391C199.478 19.604 199.519 19.7688 199.56 19.9337C199.642 20.0986 199.765 20.2222 199.929 20.3459C200.093 20.4695 200.339 20.5932 200.627 20.758C200.914 20.9229 201.324 21.0878 201.816 21.2526C202.637 21.5412 203.458 21.9121 204.196 22.3243C204.771 22.6128 205.263 22.9838 205.673 23.4784C206.043 23.8493 206.289 24.3027 206.453 24.8385C206.617 25.4156 206.699 25.9926 206.699 26.5696C206.781 27.971 206.125 29.3312 204.935 30.1143C203.786 30.8974 202.145 31.3096 200.011 31.3096C198.821 31.3508 197.672 31.2271 196.523 30.9386C195.867 30.7738 195.251 30.5677 194.636 30.3616L195.374 26.7345C196.113 27.023 196.893 27.2703 197.672 27.4352C198.493 27.4764 199.272 27.5588 200.093 27.5588ZM177.484 23.025C177.443 21.7885 177.69 20.552 178.1 19.3979C178.469 18.4087 179.044 17.5431 179.782 16.76C180.48 16.0593 181.259 15.5235 182.162 15.1937C183.065 14.8228 184.009 14.6579 184.952 14.6579C187.168 14.6579 188.932 15.3586 190.204 16.7188C191.476 18.0789 192.133 20.0986 192.133 22.7365C192.133 22.9838 192.133 23.2723 192.092 23.602C192.092 23.9317 192.051 24.179 192.051 24.4263H182.039C182.121 25.2919 182.572 26.1162 183.311 26.6108C184.214 27.1879 185.281 27.4764 186.347 27.4352C187.127 27.4352 187.948 27.3528 188.727 27.2291C189.384 27.1055 190.04 26.8994 190.656 26.6108L191.271 30.2379C190.984 30.4028 190.656 30.4852 190.327 30.6089C189.876 30.7325 189.425 30.8562 188.973 30.8974C188.481 30.9798 187.989 31.0623 187.414 31.1447C186.881 31.1859 186.306 31.2272 185.732 31.2272C184.46 31.2684 183.229 31.0623 182.039 30.6089C181.054 30.2379 180.193 29.6609 179.454 28.919C178.756 28.1771 178.264 27.2703 177.936 26.3223C177.649 25.2095 177.484 24.0966 177.484 23.025ZM187.866 21.3351C187.866 20.9641 187.784 20.5932 187.66 20.2222C187.578 19.8513 187.373 19.5627 187.168 19.2742C186.922 18.9857 186.635 18.7384 186.306 18.5735C185.896 18.3675 185.486 18.285 185.034 18.285C184.583 18.285 184.173 18.3675 183.762 18.5735C183.434 18.7384 183.106 18.9445 182.86 19.233C182.613 19.5215 182.408 19.8513 182.285 20.2222C182.162 20.5932 182.08 20.9641 182.039 21.3351H187.866ZM165.462 11.1133L169.894 10.4126V15.0289H175.228V18.7384H169.894V24.2615C169.852 25.0446 170.017 25.8277 170.386 26.4872C170.714 27.023 171.371 27.3115 172.396 27.3115C172.889 27.3115 173.381 27.2703 173.833 27.1879C174.325 27.1055 174.776 26.9818 175.228 26.8169L175.843 30.2792C175.269 30.5265 174.653 30.6913 174.038 30.8562C173.258 31.0211 172.437 31.1035 171.617 31.1035C170.591 31.1447 169.565 30.9798 168.622 30.6089C167.883 30.3204 167.226 29.8258 166.734 29.2487C166.242 28.6305 165.913 27.8886 165.708 27.1055C165.503 26.1987 165.421 25.2507 165.462 24.3439V11.1133ZM147.531 23.025C147.49 21.7885 147.736 20.552 148.146 19.3979C148.516 18.4087 149.09 17.5431 149.829 16.76C150.526 16.0593 151.306 15.5235 152.209 15.1937C153.111 14.8228 154.055 14.6579 154.999 14.6579C157.215 14.6579 158.979 15.3586 160.251 16.7188C161.523 18.0789 162.179 20.0986 162.179 22.7365C162.179 22.9838 162.179 23.2723 162.138 23.602C162.097 23.9317 162.097 24.179 162.097 24.4263H152.045C152.127 25.2919 152.578 26.1162 153.317 26.6108C154.219 27.1879 155.286 27.4764 156.353 27.4352C157.133 27.4352 157.953 27.3528 158.733 27.2291C159.389 27.1055 160.046 26.8994 160.702 26.6108L161.318 30.2379C161.031 30.4028 160.702 30.4852 160.374 30.6089C159.923 30.7325 159.471 30.8562 159.02 30.8974C158.528 30.9798 158.035 31.0623 157.461 31.1447C156.927 31.1859 156.353 31.2272 155.778 31.2272C154.506 31.2684 153.276 31.0623 152.086 30.6089C151.101 30.2379 150.239 29.6609 149.501 28.919C148.803 28.1771 148.311 27.2703 147.982 26.3223C147.654 25.2095 147.49 24.0966 147.531 23.025ZM157.912 21.3351C157.912 20.9641 157.83 20.5932 157.707 20.2222C157.625 19.8513 157.42 19.5627 157.215 19.2742C156.968 18.9857 156.681 18.7384 156.353 18.5735C155.943 18.3675 155.532 18.285 155.081 18.285C154.63 18.285 154.219 18.3675 153.809 18.5735C153.481 18.7384 153.193 18.9445 152.947 19.233C152.701 19.5215 152.496 19.8513 152.373 20.2222C152.25 20.5932 152.168 20.9641 152.127 21.3351H157.912ZM130.708 15.5647C131.652 15.3174 132.636 15.1113 133.621 14.9464C134.852 14.7404 136.124 14.6579 137.355 14.6579C138.463 14.6167 139.571 14.8228 140.638 15.1937C141.458 15.4823 142.197 15.9769 142.73 16.6363C143.264 17.2958 143.633 18.0789 143.838 18.9033C144.084 19.8513 144.166 20.8405 144.166 21.8297V30.6913H139.776V22.4067C139.776 20.9641 139.571 19.9749 139.201 19.3567C138.832 18.7796 138.135 18.4499 137.109 18.4499C136.781 18.4499 136.452 18.4499 136.083 18.4911C135.714 18.4911 135.427 18.5323 135.139 18.5735V30.6913H130.708V15.5647ZM127.589 18.9857C127.179 18.9033 126.728 18.7796 126.194 18.6972C125.62 18.5735 125.045 18.5323 124.471 18.5323C124.143 18.5323 123.814 18.5735 123.445 18.6148C123.158 18.656 122.871 18.6972 122.583 18.7796V30.7738H118.152V15.8532C119.055 15.5235 119.998 15.2762 120.942 15.0701C122.132 14.7816 123.363 14.6579 124.553 14.6991C124.84 14.6991 125.127 14.7404 125.415 14.7404C125.743 14.7404 126.071 14.7816 126.441 14.864C126.769 14.9052 127.097 14.9464 127.466 15.0289C127.754 15.0701 128.041 15.1525 128.328 15.2762L127.589 18.9857ZM100.057 23.025C100.016 21.7885 100.262 20.552 100.672 19.3979C101.042 18.4087 101.616 17.5431 102.355 16.76C103.052 16.0593 103.832 15.5235 104.735 15.1937C105.637 14.8228 106.581 14.6579 107.525 14.6579C109.74 14.6579 111.505 15.3586 112.777 16.7188C114.049 18.0789 114.705 20.0986 114.705 22.6952C114.705 22.9425 114.705 23.2311 114.664 23.5608C114.623 23.8905 114.623 24.1378 114.623 24.3851H104.57C104.652 25.2507 105.104 26.075 105.842 26.5696C106.745 27.1467 107.812 27.4352 108.879 27.394C109.658 27.394 110.479 27.3115 111.259 27.1879C111.915 27.0642 112.572 26.8582 113.187 26.6108L113.803 30.2379C113.515 30.4028 113.187 30.4852 112.859 30.6089C112.408 30.7325 111.956 30.8562 111.505 30.8974C111.012 30.9798 110.52 31.0623 109.946 31.1447C109.412 31.1859 108.838 31.2272 108.263 31.2272C106.991 31.2684 105.76 31.0623 104.57 30.6089C103.586 30.2379 102.724 29.6609 101.985 28.919C101.288 28.1771 100.795 27.2703 100.467 26.3223C100.221 25.2095 100.057 24.1378 100.057 23.025ZM110.479 21.3351C110.479 20.9641 110.397 20.5932 110.274 20.2222C110.192 19.8513 109.987 19.5627 109.781 19.2742C109.535 18.9857 109.248 18.7384 108.92 18.5735C108.509 18.3675 108.099 18.285 107.648 18.285C107.196 18.285 106.786 18.3675 106.376 18.5735C106.048 18.7384 105.719 18.9445 105.473 19.233C105.227 19.5215 105.022 19.8513 104.899 20.2222C104.776 20.5932 104.694 20.9641 104.652 21.3351H110.479ZM92.8763 22.7777C92.8763 19.8925 91.8094 18.4911 89.7168 18.4911C89.2654 18.4911 88.8141 18.5323 88.3627 18.656C87.9934 18.7384 87.6241 18.9033 87.2959 19.1094V27.1879C87.5011 27.2291 87.7883 27.2703 88.1165 27.3115C88.4448 27.3528 88.8141 27.3528 89.2244 27.3528C90.2912 27.4352 91.317 26.9818 91.9735 26.1162C92.589 25.127 92.9173 23.973 92.8763 22.7777ZM97.3898 22.9425C97.3898 24.0966 97.2257 25.2507 96.8153 26.3635C96.4871 27.3528 95.9537 28.2183 95.2561 28.9602C94.5175 29.7021 93.6559 30.2792 92.7121 30.6501C91.6043 31.0623 90.4554 31.2272 89.2654 31.2272C88.732 31.2272 88.1576 31.1859 87.5831 31.1447C87.0087 31.1035 86.4342 31.0211 85.8598 30.9799C85.3264 30.8974 84.7929 30.815 84.2595 30.6913C83.7261 30.6089 83.2747 30.4852 82.9055 30.3204V8.26929L87.3369 7.5686V15.3998C87.8293 15.1937 88.3627 15.0289 88.8961 14.9052C89.4706 14.7816 90.045 14.7404 90.6195 14.7404C91.6453 14.7404 92.6301 14.9052 93.5738 15.3586C94.3944 15.7296 95.133 16.3066 95.7075 17.0073C96.323 17.7904 96.7743 18.656 97.0205 19.604C97.2667 20.6344 97.3898 21.7885 97.3898 22.9425ZM78.6792 30.1967C77.7354 30.444 76.7506 30.6501 75.7659 30.7738C74.5349 30.9799 73.2629 31.0623 72.032 31.0623C70.8831 31.1035 69.7752 30.8974 68.7084 30.5265C67.8877 30.1967 67.1902 29.7021 66.6157 29.0427C66.0823 28.342 65.713 27.5588 65.5078 26.6933C65.2617 25.7453 65.1796 24.7149 65.1796 23.7257V15.0289H69.6111V23.2311C69.6111 24.6737 69.8162 25.7041 70.1855 26.3223C70.5548 26.9406 71.2523 27.2703 72.2781 27.2703C72.6064 27.2703 72.9347 27.2703 73.3039 27.2291C73.6732 27.1879 73.9605 27.1879 74.2477 27.1055V15.0289H78.6792V30.1967ZM52.8289 20.7168C53.2803 20.2222 53.6906 19.7276 54.183 19.233C54.6343 18.6972 55.0857 18.2026 55.537 17.708C55.9884 17.1722 56.3987 16.7188 56.768 16.2654C57.1373 15.812 57.5066 15.3998 57.7938 15.0701H63.0459C61.9791 16.2654 60.9533 17.4607 59.9685 18.5735C58.9427 19.6864 57.8759 20.8405 56.6859 21.9945C57.3425 22.6128 57.9579 23.2311 58.5324 23.9317C59.1479 24.6737 59.7634 25.4156 60.3788 26.2399C60.9533 27.023 61.5277 27.8474 62.0201 28.6305C62.5125 29.4136 62.9228 30.1555 63.2511 30.815H58.1631C57.8348 30.2792 57.4656 29.7433 57.0552 29.1251C56.6449 28.5068 56.1936 27.8886 55.7832 27.2291C55.3319 26.6108 54.8395 25.9926 54.3061 25.4156C53.8547 24.8797 53.3623 24.3851 52.8289 23.973V30.8562H48.3975V8.26929L52.8289 7.5686V20.7168Z" fill="#5E6882"/>
</svg>
