<svg width="152" height="54" viewBox="0 0 152 54" fill="none" xmlns="http://www.w3.org/2000/svg">
<path d="M41.634 52.8625H35.7642V27.0554H41.634V28.7059C42.3686 27.6947 44.2627 26.7246 46.3348 26.7246C51.9482 26.7246 55.0744 31.2797 55.0744 36.5955C55.0744 41.9094 51.9807 46.4234 46.3692 46.4234C44.2953 46.4234 42.3686 45.4533 41.634 44.4402V52.8625ZM41.634 39.6739C42.3686 40.9823 43.5701 41.8683 45.1256 41.8683C48.0184 41.8683 49.6772 39.5898 49.6772 36.5955C49.6772 33.5581 48.0528 31.2797 45.16 31.2797C43.5625 31.2797 42.3686 32.2086 41.634 33.474V39.6739Z" fill="#5E6882"/>
<path d="M74.6562 45.6851H68.7864V44.2627C68.0517 45.444 65.9606 46.4141 63.7144 46.4141C59.3963 46.4141 57.0449 43.6309 57.0449 39.4553V27.0461H62.1819V38.3992C62.1819 40.3824 63.196 41.7319 65.312 41.7319C66.9516 41.7319 68.7864 40.7618 68.7864 39.117V27.0461H74.6562V45.6851Z" fill="#5E6882"/>
<path d="M83.4764 52.8625H78.3394V27.0554H83.4764V28.7059C84.2111 27.6947 86.1759 26.7246 88.248 26.7246C93.8614 26.7246 97.024 31.2797 97.024 36.5955C97.024 41.9094 93.8767 46.4234 88.2633 46.4234C86.1913 46.4234 84.2111 45.4533 83.4764 44.4402V52.8625ZM83.4764 39.6739C84.2111 40.9823 85.4853 41.8683 87.0388 41.8683C89.9316 41.8683 91.6267 39.5898 91.6267 36.5955C91.6267 33.5581 89.9488 31.2797 87.056 31.2797C85.4585 31.2797 84.2111 32.2086 83.4764 33.474V39.6739Z" fill="#5E6882"/>
<path d="M104.751 52.8625H99.6143V27.0554H104.751V28.7059C105.486 27.6947 107.476 26.7246 109.548 26.7246C115.161 26.7246 118.337 31.2797 118.337 36.5955C118.337 41.9094 115.171 46.4234 109.557 46.4234C107.485 46.4234 105.486 45.4533 104.751 44.4402V52.8625ZM104.751 39.6739C105.486 40.9823 106.785 41.8683 108.339 41.8683C111.231 41.8683 112.94 39.5898 112.94 36.5955C112.94 33.5581 111.243 31.2797 108.35 31.2797C106.753 31.2797 105.486 32.2086 104.751 33.474V39.6739Z" fill="#5E6882"/>
<path d="M137.525 39.9469C136.834 43.5319 133.811 46.4702 128.975 46.4702C123.363 46.4702 119.607 42.4329 119.607 36.6124C119.607 30.9172 123.547 26.7266 128.944 26.7266C134.601 26.7266 137.764 30.5508 137.764 36.076V37.7956H124.788C124.961 40.6628 126.602 42.3095 128.975 42.3095C130.79 42.3095 132.128 41.3806 132.56 39.9469H137.525ZM124.917 34.2124H132.386C132.344 32.7788 131.135 30.6686 128.933 30.6686C126.86 30.6686 125.391 32.0611 124.917 34.2124Z" fill="#5E6882"/>
<path d="M141.428 31.3488H138.493V27.0479H141.428V22.0293H146.565V27.0479H150.967V31.3488H146.565V39.6235C146.565 41.1001 147.318 41.7749 148.7 41.7749C149.521 41.7749 150.232 41.5225 150.967 41.1431V45.7823C150.232 46.1617 149.09 46.3729 147.665 46.3729C143.737 46.3729 141.428 44.4758 141.428 40.2982V31.3488Z" fill="#5E6882"/>
<path d="M27.7 15.5809H15.9604V27.0499H27.7V15.5809Z" fill="#5E6882"/>
<path d="M9.35611 37.0852H5.68653V33.5001H9.35611V37.0852ZM13.7584 29.2011H1.28418V41.3879H13.7584V29.2011Z" fill="#5E6882"/>
<path d="M16.2073 18.4893L8.79541 11.2483L11.6576 8.45207L19.0695 15.6931L16.2073 18.4893Z" fill="#5E6882"/>
<path d="M13.6439 31.9845L10.7817 29.1883L16.6477 23.4575L19.5099 26.2537L13.6439 31.9845Z" fill="#5E6882"/>
<path d="M9.35611 9.12876H5.68653V5.54382H9.35611V9.12876ZM13.7584 1.2429H1.28418V13.4297H13.7584V1.2429Z" fill="#5E6882"/>
</svg>
