<svg width="152" height="48" viewBox="0 0 152 48" fill="none" xmlns="http://www.w3.org/2000/svg">
<path fill-rule="evenodd" clip-rule="evenodd" d="M17.2214 0.552203C15.2734 0.728412 13.5471 1.33573 11.2586 2.64995C9.45329 3.6868 8.51676 4.52899 8.08015 5.50876C7.88115 5.95529 7.64161 6.27942 7.40823 6.41822C6.90843 6.71563 6.33155 7.93488 6.23277 8.90287L6.15546 9.66054L4.97264 10.8768C1.43347 14.5158 -0.327551 19.404 0.0503192 24.5396C0.359442 28.7416 2.1043 32.6136 5.00291 35.5303L5.90857 36.4417L5.98395 37.9509C6.0451 39.1757 6.09998 39.4996 6.27523 39.6696C6.39391 39.7848 7.11527 40.1634 7.87813 40.5106C10.6961 41.7934 10.8983 41.8641 11.9506 41.9342L12.9476 42.0006L13.2141 42.9245C13.3607 43.4326 13.7004 44.5266 13.969 45.3553C14.4522 46.8458 14.4625 46.8639 14.9152 47.0217C15.8286 47.3401 17.4317 47.4632 19.8185 47.3982C22.3205 47.3301 22.7949 47.2389 23.3515 46.7187C23.6623 46.4283 23.6825 46.3553 23.6109 45.7787L23.5333 45.1536L24.1714 44.9995C25.4194 44.698 25.5639 44.2543 25.123 42.0763C24.8428 40.6922 24.8796 40.4033 25.3723 40.1187C25.5806 39.9983 25.7284 39.8118 25.7284 39.6691C25.7284 39.4804 25.8696 39.3831 26.3534 39.2385C27.3153 38.9508 27.9774 38.99 28.2971 39.3536C28.8366 39.9671 31.4526 39.8833 32.2265 39.2277C32.743 38.79 33.1145 37.8123 33.1804 36.7174C33.2276 35.932 33.1831 35.6065 32.9067 34.7136C32.4988 33.3964 32.1017 32.592 31.7037 32.2767L31.3993 32.0357L31.9353 30.8964C32.5831 29.5196 33.1238 27.8902 33.4093 26.4547C33.7347 24.8186 33.7042 21.3025 33.3504 19.6591C32.6652 16.4768 31.2402 13.6475 29.1973 11.4138L28.3 10.4325L28.2241 9.53169C28.1175 8.26447 27.6212 6.39442 27.1607 5.5243C26.7269 4.70495 24.96 2.7533 24.0285 2.06485C22.472 0.914458 19.7944 0.319404 17.2214 0.552203ZM20.8959 1.8929C21.9733 2.19844 23.3288 2.82422 23.9513 3.3033C24.3757 3.63009 25.9696 5.49625 25.9696 5.66639C25.9696 5.70877 25.838 5.71812 25.6771 5.68715C25.1529 5.58624 24.5254 5.88364 24.3122 6.33406C24.0968 6.78873 24.1714 6.99142 24.4641 6.74684C24.7955 6.46995 25.6921 6.56966 26.3054 6.95146C27.3567 7.6059 27.648 8.70311 27.6539 12.0313C27.6603 15.5999 26.9622 18.0926 25.2343 20.6709C24.5156 21.7432 24.0092 22.1763 22.7734 22.7758C21.5472 23.3705 20.6952 23.5544 19.4915 23.4844C17.6924 23.3794 15.9402 22.1971 14.2634 19.9568C13.4862 18.9181 13.2892 18.996 13.8541 20.1184C14.1831 20.7723 15.7158 22.4713 16.4897 23.0401L16.96 23.3859H16.3552C15.9198 23.3859 15.6584 23.4586 15.4223 23.6458C15.1082 23.8943 15.0493 23.8992 14.0521 23.7588C12.7627 23.5771 11.9715 23.2443 11.4746 22.6744C10.9571 22.0809 10.2171 20.4548 9.89677 19.2069L9.63336 18.181L10.0221 17.6939C10.2359 17.4259 10.4109 17.1215 10.4109 17.0175C10.4109 16.7563 10.0215 16.7802 9.66388 17.0635C8.50964 17.9776 6.98731 16.863 6.54334 14.7789C6.24049 13.3566 7.17365 12.092 8.52617 12.092C9.23077 12.092 9.71791 12.5549 9.94285 13.4383L10.1013 14.0609L10.6873 14.0042C11.6536 13.9107 11.7051 13.7849 11.3823 12.3043C11.0871 10.9491 11.0832 11.0334 11.5567 8.44881C11.7126 7.59776 11.721 7.27546 11.6046 6.61252C11.464 5.81199 11.4649 5.80629 11.8368 5.26212C12.7277 3.95834 15.4092 2.09291 16.9731 1.689C17.8183 1.47077 19.7639 1.57193 20.8959 1.8929ZM13.8762 2.58255C13.8998 2.65396 13.5233 2.91797 13.0395 3.16923C11.7068 3.86131 11.0145 4.33784 10.3506 5.01997C9.78207 5.60421 9.29348 5.89858 8.89234 5.89858C8.34043 5.89858 9.98868 4.16467 11.2088 3.46177C11.9804 3.0173 13.5457 2.36748 13.7202 2.41922C13.7823 2.43767 13.8525 2.51115 13.8762 2.58255ZM16.3694 6.14668C15.8712 6.29812 14.9516 7.12682 14.7078 7.64427C14.3305 8.44493 14.5471 9.32318 14.9355 8.56697C15.2499 7.95467 15.9452 7.25785 16.3887 7.11043C16.6164 7.03477 17.0334 6.98984 17.3155 7.0106C17.7545 7.04291 17.8335 7.01267 17.8639 6.80076C17.9383 6.28124 17.1139 5.92044 16.3694 6.14668ZM10.9449 6.4657C11.0368 6.70688 10.8765 6.82346 10.3048 6.93142C9.69765 7.04618 8.81551 7.52369 8.35574 7.98661C7.74244 8.60413 7.47131 9.33144 7.4367 10.4526C7.39147 11.9194 7.21478 11.5558 7.21478 9.99583C7.21478 8.73784 7.23986 8.5881 7.53451 8.08328C7.91045 7.43941 8.72035 6.81885 9.60092 6.49971C10.3937 6.21238 10.8439 6.20096 10.9449 6.4657ZM18.6575 9.51104C18.6863 9.79473 18.878 10.3883 19.0833 10.8302C19.2887 11.272 19.4567 11.6523 19.4567 11.6751C19.4567 11.7957 18.5915 11.8407 18.0418 11.7488C17.4707 11.6532 17.4038 11.6659 17.3356 11.8819C17.1956 12.3263 17.6656 12.6248 18.5879 12.6772C19.338 12.7198 19.4424 12.6956 19.7946 12.3972C20.2959 11.9726 20.2995 11.5595 19.8067 11.0475C19.6012 10.834 19.2468 10.285 19.0191 9.82739L18.605 8.99529L18.6575 9.51104ZM26.0941 9.38535C26.0919 9.59994 26.2041 10.0819 26.3432 10.4563C26.4823 10.8308 26.5753 11.1583 26.5498 11.184C26.5243 11.2096 26.1527 11.2756 25.7239 11.3303C25.041 11.4175 24.9492 11.4597 24.9829 11.6699C25.0386 12.0171 25.3506 12.2137 25.8419 12.2115C26.3268 12.2092 27.2175 11.7526 27.2658 11.4815C27.2833 11.3832 27.0276 10.7835 26.6977 10.149C26.1753 9.1443 26.0973 9.04569 26.0941 9.38535ZM22.3939 9.84804C22.2652 10.1858 22.5818 11.299 23.0103 12.0156C23.234 12.3896 23.8014 13.1677 24.2712 13.7445C25.1055 14.7693 25.2772 15.1852 25.0283 15.5795C24.977 15.6607 24.503 15.9318 23.9748 16.1818C23.1835 16.5564 22.8779 16.6371 22.2367 16.6411C21.4115 16.6462 21.3388 16.5932 21.0795 15.7959C21.0054 15.5682 20.9931 15.572 20.8828 15.8566C20.7469 16.2067 20.8274 16.8925 21.0335 17.1425C21.2498 17.4049 22.5813 17.3608 23.4708 17.0619C23.8833 16.9232 24.5621 16.6102 24.9793 16.3659C25.687 15.9517 25.7504 15.8782 25.9265 15.2684L26.1153 14.6147L25.5201 13.9909C24.168 12.5738 22.9218 10.829 22.7725 10.1445C22.6786 9.71433 22.4986 9.57334 22.3939 9.84804ZM8.00513 12.9635C7.68081 13.0843 7.40522 13.4034 7.39955 13.6646C7.39653 13.8016 7.42789 13.8083 7.54042 13.695C7.86257 13.3706 7.98294 13.533 7.91467 14.1997C7.87355 14.6003 7.90997 15.0318 8.00947 15.323L8.17109 15.7959L8.25757 14.9585C8.3935 13.6427 8.81466 13.4544 9.3129 14.487C9.51336 14.9026 9.6125 15.007 9.6886 14.8829C9.80994 14.6852 9.71863 14.1062 9.49526 13.6583C9.21762 13.1015 8.51471 12.7736 8.00513 12.9635ZM93.2698 23.6314V33.9563L95.5915 33.9234L97.9133 33.8904L97.9455 30.8272L97.9777 27.764L100.773 30.7665C102.31 32.4178 103.625 33.8092 103.696 33.8582C103.85 33.9664 109.311 33.9827 109.311 33.875C109.311 33.833 107.593 32.0274 105.493 29.8625L101.675 25.9262L102.086 25.4966C102.312 25.2604 103.896 23.7462 105.607 22.1317L108.718 19.1962L106.033 19.1634L103.347 19.1308L100.661 21.8341L97.9736 24.5375V18.922V13.3064H95.6217H93.2698V23.6314ZM111.241 15.2494V17.1925H113.593H115.944V15.2494V13.3064H113.593H111.241V15.2494ZM45.807 14.3083C45.7765 14.3918 45.7374 18.7499 45.7204 23.9931L45.6893 33.5261L45.4232 34.0269C45.1369 34.5658 44.5642 35.1112 44.0678 35.3177C43.8982 35.3881 43.3253 35.4783 42.7946 35.5182L41.8298 35.5906L41.7965 37.5206L41.7632 39.4506L43.3644 39.3824C47.3649 39.212 49.4818 37.8661 50.5508 34.8132C50.7238 34.3191 50.7508 33.097 50.7848 24.2056L50.8231 14.1565H48.3429C46.4688 14.1565 45.8491 14.1935 45.807 14.3083ZM25.7275 17.0973C25.3632 17.3019 24.7122 17.5859 24.281 17.7285L23.4971 17.9876L23.5112 18.4443C23.5189 18.6953 23.5526 18.9282 23.5857 18.9616C23.7088 19.0855 24.6727 18.7836 25.1324 18.4772C25.5634 18.1901 26.558 16.8944 26.4392 16.7748C26.4121 16.7475 26.0919 16.8926 25.7275 17.0973ZM18.7176 17.6492C19.1292 18.4236 20.6303 19.01 22.2074 19.0126L23.0888 19.0141L23.0517 18.4979L23.0146 17.9818L21.4467 17.902C20.5804 17.858 19.609 17.7363 19.2757 17.6301C18.9441 17.5245 18.6573 17.4374 18.6383 17.4367C18.6194 17.4359 18.6551 17.5316 18.7176 17.6492ZM17.9598 18.5108C17.8463 18.6958 19.3225 20.4367 19.7924 20.6719C20.1359 20.8439 20.5081 20.8954 21.3864 20.8924C22.6292 20.888 23.3701 20.7024 23.5584 20.3482C23.7533 19.9814 23.7082 19.9539 23.0448 20.0346C22.6966 20.077 21.8926 20.0611 21.2582 19.9992C19.8382 19.8607 19.0801 19.5343 18.6464 18.8744C18.3515 18.4257 18.0953 18.29 17.9598 18.5108ZM60.6449 18.9499C57.5547 19.5241 55.5126 21.3515 54.7923 24.1869C54.4647 25.4768 54.4647 27.6098 54.7923 28.8997C55.4441 31.4654 57.2326 33.2266 59.9453 33.9743C60.7368 34.1925 61.2211 34.2341 62.9968 34.2363C65.297 34.2391 66.633 34.0318 68.6051 33.366L69.57 33.0403L69.6034 31.2348C69.6299 29.8059 69.6047 29.4434 69.4828 29.4967C69.3981 29.5339 68.8403 29.7796 68.2433 30.0427C66.5042 30.8095 65.2465 31.0858 63.4673 31.0919C61.9624 31.0973 61.9399 31.0932 61.1298 30.6723C60.1722 30.1746 59.7079 29.601 59.4583 28.6078L59.2907 27.9399L64.8408 27.9083L70.3909 27.8767L70.3117 26.451C70.1613 23.7444 69.646 22.4088 68.1808 20.9287C67.4766 20.2172 67.0351 19.8874 66.3602 19.5689C64.762 18.8147 62.6209 18.5828 60.6449 18.9499ZM82.0851 18.9584C81.084 19.2299 80.25 19.7166 79.4335 20.5062L78.676 21.2385V20.187V19.1355H76.3241H73.9723V26.5433V33.9511H76.3174H78.6624L78.7026 29.4882C78.7473 24.5143 78.7681 24.3763 79.6228 23.3696C80.9867 21.7636 83.4534 22.1263 83.8507 23.9914C83.9335 24.3807 83.9828 26.3535 83.9828 29.2817V33.9511H86.409H88.8353L88.7735 28.6989C88.7234 24.4408 88.6753 23.3025 88.5191 22.6853C88.1491 21.2224 87.3521 20.0329 86.3432 19.4376C85.3033 18.824 83.3791 18.6075 82.0851 18.9584ZM128.52 18.9584C127.519 19.2299 126.685 19.7166 125.868 20.5062L125.111 21.2385V20.187V19.1355H122.759H120.407V26.5433V33.9511H122.752H125.097L125.137 29.4882C125.182 24.5143 125.203 24.3763 126.058 23.3696C127.421 21.7636 129.888 22.1263 130.285 23.9914C130.368 24.3807 130.418 26.3535 130.418 29.2817V33.9511H132.844H135.27L135.208 28.6989C135.158 24.4408 135.11 23.3025 134.954 22.6853C134.584 21.2224 133.787 20.0329 132.778 19.4376C131.738 18.824 129.814 18.6075 128.52 18.9584ZM143.142 18.9063C140.867 19.238 139.386 20.2655 138.924 21.8346C138.677 22.6708 138.686 24.2849 138.943 25.0836C139.208 25.9109 140.012 26.8068 140.847 27.2042C141.721 27.621 142.595 27.8404 144.529 28.1289C146.637 28.4435 146.997 28.5479 147.296 28.9307C147.601 29.3203 147.617 30.0278 147.33 30.3859C146.934 30.8802 146.347 31.0739 145.072 31.1307C143.299 31.2095 141.065 30.7465 139.068 29.8861C138.867 29.7995 138.856 29.9083 138.887 31.5959L138.921 33.3982L140.066 33.6751C143.769 34.5699 147.736 34.4822 149.723 33.4616C150.499 33.0628 151.344 32.1992 151.653 31.4876C152.025 30.6333 152.115 28.9241 151.838 27.9655C151.297 26.0909 149.849 25.3134 145.795 24.7212C143.772 24.4258 143.402 24.3145 143.084 23.9072C142.545 23.2184 142.934 22.4187 143.954 22.1134C145.438 21.6698 148.306 22.0752 150.834 23.0858C151.035 23.166 151.046 23.0547 151.015 21.3662L150.982 19.561L150.017 19.351C147.591 18.8232 144.904 18.6494 143.142 18.9063ZM111.241 26.5433V33.9511H113.593H115.944V26.5433V19.1355H113.593H111.241V26.5433ZM63.9761 22.2679C64.7753 22.6882 65.2963 23.4631 65.3818 24.3581L65.4396 24.9646H62.409C58.9882 24.9646 59.2154 25.0481 59.6264 23.9421C59.9209 23.1497 60.8213 22.2614 61.5189 22.0747C62.4194 21.834 63.2797 21.9016 63.9761 22.2679ZM14.0053 24.2704L15.0065 24.3882L14.9273 24.7675C14.8837 24.9761 14.8102 25.1879 14.7637 25.2383C14.6419 25.3707 13.5356 25.0146 13.0546 24.6882C12.6008 24.3803 12.3857 23.8827 12.7808 24.055C12.9036 24.1087 13.4546 24.2056 14.0053 24.2704ZM21.8974 24.4788C21.5642 24.746 21.2071 24.9646 21.1037 24.9646C20.6769 24.9646 19.7399 24.6979 19.4867 24.5043C19.2232 24.3026 19.2387 24.2976 20.0294 24.3285C20.4773 24.3459 21.1422 24.2837 21.507 24.1901C22.518 23.9308 22.5508 23.9551 21.8974 24.4788ZM22.291 27.5787C22.5563 27.7433 22.8721 27.8782 22.9926 27.8785C23.1954 27.8791 23.2061 27.9761 23.1359 29.1846C23.0534 30.6045 22.8626 32.1511 22.7234 32.5303C22.6558 32.7139 22.4454 32.345 21.8139 30.936C21.3621 29.9277 20.8115 28.8324 20.5906 28.5021C20.2379 27.9747 20.2113 27.8829 20.3727 27.7481C20.4738 27.6637 20.6866 27.5806 20.8458 27.5635C21.005 27.5464 21.2325 27.4755 21.3513 27.4059C21.6581 27.2262 21.7496 27.2429 22.291 27.5787ZM25.0993 28.1231C25.3171 28.2569 25.525 28.4444 25.5614 28.5399C25.5977 28.6353 25.3978 29.1132 25.117 29.6018C24.5956 30.5087 23.1929 32.7367 23.1433 32.7367C23.1281 32.7367 23.1866 32.3952 23.2731 31.9777C23.3597 31.5603 23.4961 30.5083 23.5763 29.64C23.6565 28.7717 23.78 28.0211 23.8508 27.972C24.0913 27.8053 24.7019 27.8793 25.0993 28.1231ZM21.7145 28.5213C21.6188 28.7722 21.8055 29.0022 22.0642 28.9521C22.3847 28.8899 22.3611 28.4357 22.0349 28.3888C21.8942 28.3687 21.7499 28.4282 21.7145 28.5213ZM20.2315 29.3453C20.8115 30.3016 21.8941 32.7837 21.7532 32.834C21.5847 32.8942 19.5187 32.0517 18.3698 31.4543C17.1797 30.8353 17.1646 30.7954 17.796 29.9288C18.1084 29.5 19.4559 28.476 19.6376 28.5295C19.7039 28.5489 19.9712 28.9161 20.2315 29.3453ZM22.0332 30.1254C21.9915 30.2348 22.0131 30.3803 22.0812 30.4489C22.2778 30.6469 22.6528 30.5134 22.6528 30.2455C22.6528 29.9367 22.1429 29.8377 22.0332 30.1254ZM31.1398 33.0454C31.552 33.3947 31.871 34.174 32.1781 35.5823C32.5353 37.2208 32.3419 38.0857 31.4714 38.7405C31.2022 38.943 30.9188 38.999 29.9869 39.0335C28.6897 39.0815 28.5409 38.9137 29.6804 38.6882C30.6927 38.488 30.7936 38.4324 30.3718 38.3068C30.1728 38.2475 29.4295 38.2345 28.72 38.2779L27.4299 38.3567L27.3718 38.0666C27.3398 37.907 27.2524 37.2027 27.1772 36.5014C27.1022 35.8 26.985 35.0114 26.9169 34.749C26.8057 34.3211 26.8201 34.251 27.0562 34.0717C27.201 33.9617 27.886 33.6628 28.5784 33.4074C29.2708 33.1521 29.8658 32.8967 29.9006 32.84C30.0374 32.617 30.7793 32.74 31.1398 33.0454ZM28.9661 34.2529C28.4282 34.4522 27.8993 34.7911 27.8993 34.9366C27.8993 35.1581 28.3475 35.0243 29.1657 34.5583C29.7958 34.1996 29.9335 34.0791 29.7085 34.0836C29.5426 34.087 29.2086 34.1632 28.9661 34.2529ZM21.0797 34.4423C21.5412 34.5095 21.9571 34.6272 22.0042 34.7038C22.0512 34.7803 22.1221 35.4212 22.1617 36.1276C22.2013 36.8341 22.2876 38.2592 22.3537 39.2945C22.4197 40.3297 22.531 42.1331 22.6011 43.302C22.6712 44.4708 22.7386 45.5593 22.751 45.7207C22.788 46.2055 21.9646 46.3684 19.3964 46.3848C17.1799 46.3989 15.3766 46.163 15.0338 45.8138C14.8752 45.6524 14.3077 43.7116 13.9086 41.9661C13.363 39.5792 12.6866 35.1411 12.8441 34.9824C12.9155 34.9105 15.7978 34.475 16.6826 34.4024C17.8698 34.305 20.2867 34.327 21.0797 34.4423ZM26.2094 34.8316C26.5181 35.5362 26.7145 36.7657 26.67 37.7157L26.6329 38.5051L26.1816 38.6173C25.9334 38.6791 25.7083 38.7065 25.6816 38.678C25.6549 38.6497 25.5183 37.8342 25.3781 36.8657C25.238 35.8972 25.0941 34.9273 25.0585 34.7101C24.9942 34.3184 24.9975 34.3154 25.4885 34.3154C25.9545 34.3154 25.9962 34.3453 26.2094 34.8316ZM28.8039 35.3735C28.6712 35.4057 28.5111 35.4813 28.4481 35.5416C28.3015 35.682 30.071 35.6855 30.2907 35.5454C30.5695 35.3673 29.3916 35.2312 28.8039 35.3735ZM28.5223 36.599C28.2766 36.7692 28.7654 36.8626 29.8894 36.8603C30.5748 36.8589 30.7959 36.824 30.6526 36.7397C30.3694 36.5734 28.7168 36.4642 28.5223 36.599ZM24.2696 41.8312C24.6135 43.5484 24.6049 43.8835 24.2129 44.0336C24.0427 44.0987 23.7171 44.152 23.4892 44.152C23.0891 44.152 23.075 44.1361 23.075 43.6852C23.075 43.4284 23.04 42.6433 22.9973 41.9405L22.9196 40.6627L23.3893 40.5441C23.6476 40.4787 23.8945 40.4579 23.9379 40.4974C23.9813 40.5372 24.1305 41.1373 24.2696 41.8312Z" fill="#5E6882"/>
</svg>
