<svg width="165" height="55" viewBox="0 0 165 55" fill="none" xmlns="http://www.w3.org/2000/svg">
<path d="M90.3345 35.3714C90.0622 35.3714 89.7682 35.3024 89.5641 35.0258L80.8234 23.5072V35.2563H78.8301V20.7887C78.8301 20.213 79.3057 19.7522 79.8497 19.7522C80.1663 19.7522 80.4384 19.8442 80.6415 20.1208L89.3602 31.6166V19.9134H91.3533V34.3578C91.3533 34.9569 90.8777 35.3714 90.3345 35.3714" fill="#5E6882"/>
<path d="M102.009 35.5096C100.017 35.5096 97.9329 35.0947 95.9854 34.3579L96.4612 32.6989C98.2502 33.2749 100.198 33.6896 102.009 33.6896C104.523 33.6896 105.836 32.7911 105.836 31.5243C105.836 30.3722 104.817 29.7963 101.307 28.1375C97.797 26.4788 96.416 25.4193 96.416 23.3456C96.416 20.7429 98.4086 19.6826 102.167 19.6826C103.73 19.6826 106.13 20.0055 107.512 20.4202L107.195 22.1247C105.677 21.7563 103.776 21.5029 102.213 21.5029C99.5639 21.5029 98.4767 22.0095 98.4767 23.2768C98.4767 24.5206 99.269 25.0505 102.983 26.7785C106.901 28.5985 107.897 29.5201 107.897 31.4088C107.897 34.1506 105.315 35.5096 102.009 35.5096" fill="#5E6882"/>
<path d="M113.598 19.9138H115.659V35.2565H113.598V19.9138Z" fill="#5E6882"/>
<path d="M128.91 28.2993H123.791V33.5061H128.91C130.654 33.5061 131.718 32.4001 131.718 30.8563C131.718 29.4049 130.608 28.2993 128.91 28.2993V28.2993ZM127.913 21.6644H123.791V26.5715H127.913C129.567 26.5715 130.767 25.5116 130.767 24.0374C130.767 22.586 129.725 21.6644 127.913 21.6644ZM128.932 35.2565H122.773C122.184 35.2565 121.731 34.7955 121.731 34.2199V20.9504C121.731 20.3972 122.184 19.9138 122.773 19.9138H127.868C130.993 19.9138 132.85 21.4571 132.85 23.8762C132.85 25.1891 132.08 26.4102 130.902 27.1243C132.647 27.6543 133.824 29.1055 133.824 30.8563C133.824 33.2983 131.809 35.2565 128.933 35.2565" fill="#5E6882"/>
<path d="M140.512 35.2565C139.947 35.2565 139.494 34.7727 139.494 34.2199V19.9138H141.554V33.3907H149.752V35.2566H140.512L140.512 35.2565Z" fill="#5E6882"/>
<path d="M159.521 35.5096C155.309 35.5096 152.773 33.9432 152.773 30.7871C152.773 29.2896 153.611 27.8613 155.242 27.1932C153.928 26.3638 153.249 25.1888 153.249 23.8988C153.249 21.0423 155.446 19.6826 159.567 19.6826C160.949 19.6826 162.896 19.8441 164.527 20.2129L164.3 21.9174C162.579 21.6408 160.971 21.4801 159.408 21.4801C156.736 21.4801 155.309 22.2169 155.309 23.991C155.309 25.3965 156.623 26.5021 158.367 26.5021H161.899C162.398 26.5021 162.783 26.8937 162.783 27.3774C162.783 27.8841 162.398 28.2758 161.899 28.2758H158.096C156.102 28.2758 154.835 29.2662 154.835 30.7871C154.835 33.0216 156.895 33.6896 159.477 33.6896C160.881 33.6896 162.783 33.5058 164.322 33.137L164.617 34.8185C163.145 35.2334 161.22 35.5096 159.522 35.5096" fill="#5E6882"/>
<path d="M67.7726 22.7915L71.3816 31.8529L65.9308 27.4848L67.7726 22.7915L67.7726 22.7915ZM74.1842 33.9405L68.6331 20.3494C68.4747 19.9577 68.1575 19.7502 67.7725 19.7502C67.3875 19.7502 67.0479 19.9577 66.8895 20.3494L60.7964 35.257H62.8803L65.2926 29.1109L72.49 35.0265C72.7795 35.2643 72.9883 35.372 73.2604 35.372C73.8036 35.372 74.2792 34.9575 74.2792 34.3586C74.2792 34.2614 74.2451 34.1069 74.1841 33.9405H74.1842Z" fill="#5E6882"/>
<path d="M54.3542 27.233C54.3542 42.2739 42.1873 54.4658 27.1771 54.4658C12.1682 54.4658 0 42.2739 0 27.233C0 12.1932 12.1682 0 27.1771 0C42.1873 0 54.3542 12.1932 54.3542 27.233Z" fill="#5E6882"/>
<path d="M27.6342 16.6359L34.6671 34.0296L24.044 25.6445L27.6342 16.6359V16.6359ZM40.128 38.0364L29.31 11.9485C29.0012 11.1961 28.3837 10.798 27.6342 10.798C26.8834 10.798 26.2209 11.1961 25.9121 11.9485L14.0386 40.5636H18.1003L22.8005 28.7654L36.8271 40.1205C37.3912 40.5776 37.7982 40.7843 38.3274 40.7843C39.387 40.7843 40.3133 39.9883 40.3133 38.8393C40.3133 38.6523 40.2473 38.3555 40.128 38.0363L40.128 38.0364Z" fill="white"/>
</svg>
