<svg width="177" height="62" viewBox="0 0 177 62" fill="none" xmlns="http://www.w3.org/2000/svg">
<path fill-rule="evenodd" clip-rule="evenodd" d="M4.00168 1.04691C2.77777 1.4291 1.85424 2.06438 1.16655 2.99702C-0.0852852 4.69485 -0.034396 3.5455 0.0236215 28.851L0.0762925 51.8731L0.502414 52.7937C1.04497 53.9656 2.3368 55.2217 3.40448 55.6154C3.86109 55.7838 9.13534 56.9476 15.1252 58.2018C21.1151 59.4559 27.2633 60.747 28.788 61.0711C30.3127 61.3952 32.0503 61.6595 32.6493 61.6583C35.29 61.6538 37.3649 59.6121 37.3928 56.9913L37.4016 56.1781L39.2908 56.0792C41.6034 55.9586 43.0496 55.3249 44.0742 53.9834C45.3911 52.2595 45.3341 53.4962 45.2757 27.9367L45.223 4.81566L44.629 3.73531C44.3005 3.1378 43.655 2.36669 43.1847 2.0102C41.484 0.721064 42.1505 0.761003 22.5641 0.775634C8.55616 0.786114 4.65473 0.843057 4.00168 1.04691ZM41.3202 2.91912C42.2162 3.37942 43.0467 4.23001 43.3292 4.9768C43.4738 5.3584 43.5399 12.7433 43.5399 28.464C43.5399 50.6148 43.5271 51.4196 43.1631 52.1282C42.3511 53.7096 41.1283 54.3446 38.8965 54.3446H37.4085L37.3556 33.3368L37.3025 12.329L36.7719 11.1985C36.0436 9.64676 34.6355 8.20043 33.1651 7.49319C32.1816 7.02024 31.0335 6.76301 27.0059 6.1131C14.8595 4.15349 6.44713 2.74117 6.35149 2.64567C6.29446 2.58853 13.9738 2.54187 23.4166 2.54187C39.9222 2.54187 40.6139 2.5565 41.3202 2.91912ZM13.3811 14.018C13.8001 14.1639 14.9488 15.4204 17.3124 18.3184C19.149 20.5704 21.9974 24.0588 23.6419 26.0706C27.7011 31.0362 27.5663 30.8349 27.5503 31.9055C27.5318 33.1128 27.319 33.3531 23.0457 36.9844C12.074 46.3083 12.9388 45.6404 11.8378 45.6428C9.98006 45.6471 8.73239 44.0436 9.25039 42.3173C9.46127 41.6142 10.1604 40.957 15.3173 36.6141C18.5229 33.9144 21.1499 31.6426 21.1551 31.5655C21.1604 31.4882 18.6286 28.305 15.5293 24.4918C9.42404 16.9804 9.33137 16.8286 10.006 15.4544C10.6719 14.098 11.9942 13.5353 13.3811 14.018ZM130.944 23.2958C128.281 23.865 126.72 25.4808 126.709 27.6777C126.701 29.3848 127.606 30.7226 129.27 31.4652C129.755 31.6815 131.292 32.1537 132.686 32.5143C134.079 32.875 135.542 33.3226 135.936 33.5094C138.052 34.5123 137.745 37.1129 135.391 38.1242C134.01 38.7174 131.807 38.6413 130.395 37.9516C129.331 37.4318 128.423 36.2352 128.202 35.0612C128.075 34.3846 128.059 34.3749 127.064 34.3749H126.056L126.174 35.3706C126.321 36.6109 127.164 38.1895 128.084 38.9474C129.29 39.9407 130.707 40.3589 132.942 40.3812C135.343 40.4053 136.578 40.0368 137.854 38.9149C139.793 37.2108 139.988 34.1455 138.261 32.5116C137.348 31.6477 136.372 31.2416 133.228 30.4175C131.597 29.99 130.108 29.5572 129.918 29.4556C128.839 28.8794 128.467 27.426 129.137 26.4055C129.692 25.5599 130.586 25.2157 132.447 25.131C133.911 25.0646 134.246 25.1144 135.02 25.5132C135.99 26.0135 136.804 27.0473 136.804 27.7805C136.804 28.2123 136.881 28.2455 137.893 28.2455C139.116 28.2455 139.133 28.2161 138.71 26.8142C138.061 24.6589 136.131 23.364 133.338 23.21C132.467 23.1617 131.39 23.2005 130.944 23.2958ZM57.9948 31.7837V40.3065H59.0839H60.1729V36.8713V33.4361L63.5886 33.3353C66.1141 33.2609 67.2509 33.146 67.95 32.8947C69.8173 32.2235 70.9206 30.5023 70.9274 28.2505C70.9317 26.7796 70.6028 25.8679 69.6963 24.837C68.6276 23.6216 67.8247 23.4536 62.5986 23.351L57.9948 23.2608V31.7837ZM142.546 31.8045V40.3065H143.516H144.487L144.561 36.1049C144.644 31.463 144.739 31.0573 145.94 30.2026C146.758 29.6209 148.391 29.468 149.219 29.8957C150.342 30.4756 150.466 31.0761 150.466 35.9371V40.3065H151.456H152.447V35.4054C152.447 30.7159 152.427 30.4661 152.001 29.6221C151.473 28.5761 150.369 27.89 148.944 27.7222C147.673 27.5723 146.561 27.8987 145.446 28.7489L144.526 29.45V26.3763V23.3025H143.536H142.546V31.8045ZM169.476 31.8045V40.3065H170.466H171.456V31.8045V23.3025H170.466H169.476V31.8045ZM175.02 31.8045V40.3065H176.01H177V31.8045V23.3025H176.01H175.02V31.8045ZM67.6017 25.8729C68.3774 26.5973 68.6874 27.3151 68.6867 28.3839C68.6857 29.6329 68.1275 30.5324 67.0497 31.0207C66.343 31.3412 65.7412 31.4012 63.1926 31.4047L60.1729 31.4091V28.3317V25.2542L63.6227 25.3165C66.9889 25.377 67.0853 25.3906 67.6017 25.8729ZM77.0445 28.0148C74.8921 28.7819 73.7835 30.2283 73.3871 32.786C72.9728 35.4576 73.769 38.027 75.3943 39.2649C78.2966 41.4752 82.7235 40.4783 84.1528 37.2926C84.5506 36.4059 84.6193 35.9337 84.6211 34.0783C84.6232 31.7047 84.3472 30.7714 83.2635 29.4914C81.9709 27.9646 79.0987 27.2826 77.0445 28.0148ZM108.053 27.9167C107.542 28.0609 106.963 28.3005 106.766 28.4494C105.791 29.1875 105.237 29.8162 104.768 30.717C104.338 31.5431 104.239 32.036 104.17 33.7145C104.066 36.2548 104.41 37.4166 105.664 38.7548C106.822 39.9911 107.918 40.4083 109.973 40.3957C111.813 40.3844 112.959 39.9632 114.013 38.911C114.598 38.3269 115.355 36.9937 115.182 36.8527C115.149 36.8254 114.676 36.7546 114.131 36.6957C113.188 36.5935 113.123 36.6178 112.744 37.2118C112.227 38.0242 111.192 38.5264 110.035 38.5266C108.01 38.5274 106.594 37.3328 106.228 35.314L106.094 34.5726H110.682H115.271L115.179 33.0403C115.033 30.6115 114.137 29.1928 112.096 28.1621C111.213 27.7162 109.198 27.5938 108.053 27.9167ZM121.661 27.9616C121.336 28.1303 120.828 28.5524 120.53 28.8996L119.989 29.5307L119.981 28.6904L119.973 27.8501H119.081H118.19V34.0783V40.3065H119.161H120.132L120.205 36.0061C120.286 31.22 120.453 30.4962 121.61 29.8989C122.15 29.6195 122.416 29.6149 123.809 29.8607C124.086 29.9096 124.249 29.7328 124.45 29.162C124.777 28.2358 124.717 28.1192 123.777 27.8586C122.776 27.581 122.352 27.6016 121.661 27.9616ZM159.341 27.9165C157.675 28.3857 156.32 29.7186 155.734 31.4654C155.27 32.8491 155.309 35.6565 155.811 36.9872C156.677 39.2821 158.409 40.3868 161.159 40.3982C162.607 40.4044 162.999 40.3284 163.961 39.8567C165.081 39.3074 165.93 38.4295 166.313 37.4257C166.425 37.1313 166.492 36.8707 166.461 36.8466C166.431 36.8227 165.961 36.7546 165.416 36.6957C164.48 36.5943 164.405 36.6212 164.03 37.193C162.922 38.8853 160.037 39.0003 158.543 37.4117C158.036 36.8729 157.397 35.4404 157.397 34.8443C157.397 34.6216 158.22 34.5726 161.951 34.5726H166.505V33.3884C166.505 32.0548 166.008 30.5474 165.235 29.5345C164.145 28.1083 161.368 27.3459 159.341 27.9165ZM87.6299 33.0403C88.5417 35.8949 89.4262 38.6976 89.5953 39.2685L89.9028 40.3065H90.8527H91.8028L93.0512 35.6601C93.7379 33.1045 94.3635 31.0136 94.4413 31.0136C94.5193 31.0136 94.6444 31.3474 94.7195 31.7551C94.8282 32.3449 96.5867 38.9916 96.9196 40.0702C96.974 40.2468 97.295 40.3093 97.9362 40.2679L98.8732 40.2076L100.871 34.0783L102.869 27.949L101.994 27.8879C101.513 27.8542 101.076 27.8697 101.023 27.9223C100.947 27.9986 99.3405 33.1211 98.256 36.7475C98.0015 37.5977 98.0861 37.8194 96.7103 32.6942C96.0973 30.4106 95.5484 28.3818 95.4907 28.186C95.4058 27.8975 95.2129 27.8412 94.4777 27.8894L93.5694 27.949L92.2998 32.4965C91.6014 34.9977 90.9824 37.1776 90.9244 37.3407C90.7919 37.7122 90.7895 37.7043 89.3811 32.5954C88.7664 30.3661 88.2191 28.3865 88.1649 28.1961C88.0867 27.9227 87.8465 27.8501 87.0188 27.8501H85.9719L87.6299 33.0403ZM80.4292 29.8967C82.8481 30.9059 83.5409 35.2328 81.6228 37.3527C79.9187 39.236 76.8439 38.7722 75.7986 36.4739C75.325 35.4325 75.2854 32.9038 75.7264 31.8504C76.5206 29.9521 78.5455 29.1108 80.4292 29.8967ZM111.79 30.1452C112.475 30.6561 112.971 31.3634 113.125 32.0517L113.248 32.5954H109.779C106.778 32.5954 106.31 32.5541 106.31 32.2889C106.31 31.5129 107.34 30.2397 108.29 29.8411C109.094 29.504 111.172 29.6845 111.79 30.1452ZM162.833 30.0209C163.66 30.4205 164.172 31.0828 164.403 32.0517L164.533 32.5954H161.064C158.063 32.5954 157.595 32.5541 157.595 32.2889C157.595 31.5077 158.637 30.2253 159.575 29.8516C160.412 29.5183 161.96 29.5987 162.833 30.0209ZM26.2341 44.3592C30.7666 44.927 31.1262 45.0743 31.225 46.4038C31.2739 47.0622 31.1885 47.3192 30.7883 47.7188C30.4878 48.019 30.0658 48.2153 29.7213 48.2153C28.2178 48.2153 21.0368 47.1887 20.6165 46.9135C19.2302 46.0066 19.9611 43.8655 21.657 43.8655C22.0075 43.8655 24.0672 44.0877 26.2341 44.3592Z" fill="#5E6882"/>
</svg>
